<?xml version="1.0" encoding="UTF-8" standalone="no"?>
<!DOCTYPE svg PUBLIC "-//W3C//DTD SVG 1.1//EN"
 "http://www.w3.org/Graphics/SVG/1.1/DTD/svg11.dtd">
<!-- Generated by graphviz version 2.43.0 (0)
 -->
<!-- Title: identify Pages: 1 -->
<svg width="469pt" height="329pt"
 viewBox="0.00 0.00 469.00 329.00" xmlns="http://www.w3.org/2000/svg" xmlns:xlink="http://www.w3.org/1999/xlink">
<g id="graph0" class="graph" transform="scale(1 1) rotate(0) translate(4 325)">
<title>identify</title>
<!-- Node1 -->
<g id="Node000001" class="node">
<title>Node1</title>
<g id="a_Node000001"><a xlink:title="Run IDENTIFY and populate drive descriptor.">
<polygon fill="#999999" stroke="#666666" points="53,-170 0,-170 0,-151 53,-151 53,-170"/>
<text text-anchor="middle" x="26.5" y="-158" font-family="Helvetica,sans-Serif" font-size="10.00">identify</text>
</a>
</g>
</g>
<!-- Node2 -->
<g id="Node000002" class="node">
<title>Node2</title>
<g id="a_Node000002"><a xlink:href="ata_8c.html#a2dbd463b4d0069e223eab48b63d80977" target="_top" xlink:title="Check whether a device is present (0xFF = floating bus).">
<polygon fill="white" stroke="#666666" points="178,-208 89,-208 89,-189 178,-189 178,-208"/>
<text text-anchor="middle" x="133.5" y="-196" font-family="Helvetica,sans-Serif" font-size="10.00">channel_exists</text>
</a>
</g>
</g>
<!-- Node1&#45;&gt;Node2 -->
<g id="edge1_Node000001_Node000002" class="edge">
<title>Node1&#45;&gt;Node2</title>
<g id="a_edge1_Node000001_Node000002"><a xlink:title=" ">
<path fill="none" stroke="#63b8ff" d="M53.19,-169.8C66.21,-174.51 82.24,-180.31 96.47,-185.46"/>
<polygon fill="#63b8ff" stroke="#63b8ff" points="95.39,-188.79 105.98,-188.9 97.77,-182.21 95.39,-188.79"/>
</a>
</g>
</g>
<!-- Node3 -->
<g id="Node000003" class="node">
<title>Node3</title>
<g id="a_Node000003"><a xlink:href="ata_8c.html#a2e42765bdca6c8d40cafe008a9c35e7e" target="_top" xlink:title=" ">
<polygon fill="white" stroke="#666666" points="282.5,-246 223.5,-246 223.5,-227 282.5,-227 282.5,-246"/>
<text text-anchor="middle" x="253" y="-234" font-family="Helvetica,sans-Serif" font-size="10.00">reg_read</text>
</a>
</g>
</g>
<!-- Node1&#45;&gt;Node3 -->
<g id="edge14_Node000001_Node000003" class="edge">
<title>Node1&#45;&gt;Node3</title>
<g id="a_edge14_Node000001_Node000003"><a xlink:title=" ">
<path fill="none" stroke="#63b8ff" d="M35,-170.38C45.5,-183.4 65.9,-205.9 89,-216.5 128.68,-234.72 179.23,-238.3 213.43,-238.23"/>
<polygon fill="#63b8ff" stroke="#63b8ff" points="213.54,-241.73 223.49,-238.11 213.45,-234.73 213.54,-241.73"/>
</a>
</g>
</g>
<!-- Node5 -->
<g id="Node000005" class="node">
<title>Node5</title>
<g id="a_Node000005"><a xlink:href="ata_8c.html#a19176aed0b71563bf7d030583c5865b1" target="_top" xlink:title=" ">
<polygon fill="white" stroke="#666666" points="292,-170 214,-170 214,-151 292,-151 292,-170"/>
<text text-anchor="middle" x="253" y="-158" font-family="Helvetica,sans-Serif" font-size="10.00">delay_400ns</text>
</a>
</g>
</g>
<!-- Node1&#45;&gt;Node5 -->
<g id="edge4_Node000001_Node000005" class="edge">
<title>Node1&#45;&gt;Node5</title>
<g id="a_edge4_Node000001_Node000005"><a xlink:title=" ">
<path fill="none" stroke="#63b8ff" d="M53.25,-160.5C89.87,-160.5 157.66,-160.5 203.78,-160.5"/>
<polygon fill="#63b8ff" stroke="#63b8ff" points="203.85,-164 213.85,-160.5 203.85,-157 203.85,-164"/>
</a>
</g>
</g>
<!-- Node7 -->
<g id="Node000007" class="node">
<title>Node7</title>
<g id="a_Node000007"><a xlink:href="io_8h.html#aae25743490c4dc54e9a713c64e79d7af" target="_top" xlink:title="Read a word from an I/O port.">
<polygon fill="white" stroke="#666666" points="150.5,-56 116.5,-56 116.5,-37 150.5,-37 150.5,-56"/>
<text text-anchor="middle" x="133.5" y="-44" font-family="Helvetica,sans-Serif" font-size="10.00">inw</text>
</a>
</g>
</g>
<!-- Node1&#45;&gt;Node7 -->
<g id="edge7_Node000001_Node000007" class="edge">
<title>Node1&#45;&gt;Node7</title>
<g id="a_edge7_Node000001_Node000007"><a xlink:title=" ">
<path fill="none" stroke="#63b8ff" d="M32.21,-150.74C41.18,-132.95 62.25,-94.81 89,-70.5 94.4,-65.59 100.99,-61.3 107.39,-57.76"/>
<polygon fill="#63b8ff" stroke="#63b8ff" points="109.15,-60.79 116.46,-53.13 105.96,-54.56 109.15,-60.79"/>
</a>
</g>
</g>
<!-- Node8 -->
<g id="Node000008" class="node">
<title>Node8</title>
<g id="a_Node000008"><a xlink:href="ata_8c.html#ab080ebc34772e3b0ce3cc2ee637005ac" target="_top" xlink:title="Poll until BSY clears.">
<polygon fill="white" stroke="#666666" points="162,-321 105,-321 105,-302 162,-302 162,-321"/>
<text text-anchor="middle" x="133.5" y="-309" font-family="Helvetica,sans-Serif" font-size="10.00">poll_bsy</text>
</a>
</g>
</g>
<!-- Node1&#45;&gt;Node8 -->
<g id="edge8_Node000001_Node000008" class="edge">
<title>Node1&#45;&gt;Node8</title>
<g id="a_edge8_Node000001_Node000008"><a xlink:title=" ">
<path fill="none" stroke="#63b8ff" d="M29.45,-170.28C34.74,-194.44 51.56,-257.56 89,-293.5 91.1,-295.52 93.46,-297.32 95.96,-298.93"/>
<polygon fill="#63b8ff" stroke="#63b8ff" points="94.4,-302.07 104.87,-303.7 97.7,-295.89 94.4,-302.07"/>
</a>
</g>
</g>
<!-- Node10 -->
<g id="Node000010" class="node">
<title>Node10</title>
<g id="a_Node000010"><a xlink:href="ata_8c.html#afece4807d5a19ec91aa03298b05f7351" target="_top" xlink:title="Poll until DRQ asserted (BSY clear).">
<polygon fill="white" stroke="#666666" points="161.5,-284 105.5,-284 105.5,-265 161.5,-265 161.5,-284"/>
<text text-anchor="middle" x="133.5" y="-272" font-family="Helvetica,sans-Serif" font-size="10.00">poll_drq</text>
</a>
</g>
</g>
<!-- Node1&#45;&gt;Node10 -->
<g id="edge11_Node000001_Node000010" class="edge">
<title>Node1&#45;&gt;Node10</title>
<g id="a_edge11_Node000001_Node000010"><a xlink:title=" ">
<path fill="none" stroke="#63b8ff" d="M32.21,-170.26C41.18,-188.05 62.25,-226.19 89,-250.5 92.71,-253.88 96.99,-256.96 101.37,-259.7"/>
<polygon fill="#63b8ff" stroke="#63b8ff" points="99.97,-262.93 110.39,-264.86 103.44,-256.86 99.97,-262.93"/>
</a>
</g>
</g>
<!-- Node11 -->
<g id="Node000011" class="node">
<title>Node11</title>
<g id="a_Node000011"><a xlink:href="ata_8c.html#aac0ce9774302791de96fdba30cfbc3b9" target="_top" xlink:title=" ">
<polygon fill="white" stroke="#666666" points="284,-113 222,-113 222,-94 284,-94 284,-113"/>
<text text-anchor="middle" x="253" y="-101" font-family="Helvetica,sans-Serif" font-size="10.00">reg_write</text>
</a>
</g>
</g>
<!-- Node1&#45;&gt;Node11 -->
<g id="edge15_Node000001_Node000011" class="edge">
<title>Node1&#45;&gt;Node11</title>
<g id="a_edge15_Node000001_Node000011"><a xlink:title=" ">
<path fill="none" stroke="#63b8ff" d="M34.09,-150.94C44.11,-137.36 64.6,-113.07 89,-103.5 128.63,-87.96 177.97,-90.68 211.93,-95.57"/>
<polygon fill="#63b8ff" stroke="#63b8ff" points="211.52,-99.05 221.94,-97.14 212.6,-92.14 211.52,-99.05"/>
</a>
</g>
</g>
<!-- Node13 -->
<g id="Node000013" class="node">
<title>Node13</title>
<g id="a_Node000013"><a xlink:href="ata_8c.html#a76551fd547f6d7ea4a7da3efc4bce305" target="_top" xlink:title="Select a drive on its channel (master or slave).">
<polygon fill="white" stroke="#666666" points="171.5,-132 95.5,-132 95.5,-113 171.5,-113 171.5,-132"/>
<text text-anchor="middle" x="133.5" y="-120" font-family="Helvetica,sans-Serif" font-size="10.00">select_drive</text>
</a>
</g>
</g>
<!-- Node1&#45;&gt;Node13 -->
<g id="edge17_Node000001_Node000013" class="edge">
<title>Node1&#45;&gt;Node13</title>
<g id="a_edge17_Node000001_Node000013"><a xlink:title=" ">
<path fill="none" stroke="#63b8ff" d="M53.19,-151.2C66.21,-146.49 82.24,-140.69 96.47,-135.54"/>
<polygon fill="#63b8ff" stroke="#63b8ff" points="97.77,-138.79 105.98,-132.1 95.39,-132.21 97.77,-138.79"/>
</a>
</g>
</g>
<!-- Node14 -->
<g id="Node000014" class="node">
<title>Node14</title>
<g id="a_Node000014"><a xlink:href="ata_8c.html#ab63f05247c2c72f1ddc451636dde2cbf" target="_top" xlink:title="Right&#45;trim spaces and NULs from an ATA identify string.">
<polygon fill="white" stroke="#666666" points="168.5,-19 98.5,-19 98.5,0 168.5,0 168.5,-19"/>
<text text-anchor="middle" x="133.5" y="-7" font-family="Helvetica,sans-Serif" font-size="10.00">trim_string</text>
</a>
</g>
</g>
<!-- Node1&#45;&gt;Node14 -->
<g id="edge20_Node000001_Node000014" class="edge">
<title>Node1&#45;&gt;Node14</title>
<g id="a_edge20_Node000001_Node000014"><a xlink:title=" ">
<path fill="none" stroke="#63b8ff" d="M29.45,-150.72C34.74,-126.56 51.56,-63.44 89,-27.5 90.11,-26.44 91.28,-25.44 92.51,-24.49"/>
<polygon fill="#63b8ff" stroke="#63b8ff" points="94.64,-27.29 101.27,-19.02 90.93,-21.35 94.64,-27.29"/>
</a>
</g>
</g>
<!-- Node2&#45;&gt;Node3 -->
<g id="edge2_Node000002_Node000003" class="edge">
<title>Node2&#45;&gt;Node3</title>
<g id="a_edge2_Node000002_Node000003"><a xlink:title=" ">
<path fill="none" stroke="#63b8ff" d="M164.15,-208.09C179.13,-212.93 197.48,-218.87 213.53,-224.06"/>
<polygon fill="#63b8ff" stroke="#63b8ff" points="212.58,-227.43 223.17,-227.18 214.73,-220.77 212.58,-227.43"/>
</a>
</g>
</g>
<!-- Node4 -->
<g id="Node000004" class="node">
<title>Node4</title>
<g id="a_Node000004"><a xlink:href="io_8h.html#a72469337290ae306e228d538970aef1d" target="_top" xlink:title="Read a byte from an I/O port.">
<polygon fill="white" stroke="#666666" points="461,-217 429,-217 429,-198 461,-198 461,-217"/>
<text text-anchor="middle" x="445" y="-205" font-family="Helvetica,sans-Serif" font-size="10.00">inb</text>
</a>
</g>
</g>
<!-- Node3&#45;&gt;Node4 -->
<g id="edge3_Node000003_Node000004" class="edge">
<title>Node3&#45;&gt;Node4</title>
<g id="a_edge3_Node000003_Node000004"><a xlink:title=" ">
<path fill="none" stroke="#63b8ff" d="M282.86,-232.1C319.92,-226.44 383.66,-216.71 418.84,-211.34"/>
<polygon fill="#63b8ff" stroke="#63b8ff" points="419.43,-214.79 428.79,-209.82 418.37,-207.87 419.43,-214.79"/>
</a>
</g>
</g>
<!-- Node6 -->
<g id="Node000006" class="node">
<title>Node6</title>
<g id="a_Node000006"><a xlink:href="ata_8c.html#a210a41152ac79a3588f1869164b196f2" target="_top" xlink:title=" ">
<polygon fill="white" stroke="#666666" points="393,-189 328,-189 328,-170 393,-170 393,-189"/>
<text text-anchor="middle" x="360.5" y="-177" font-family="Helvetica,sans-Serif" font-size="10.00">alt_status</text>
</a>
</g>
</g>
<!-- Node5&#45;&gt;Node6 -->
<g id="edge5_Node000005_Node000006" class="edge">
<title>Node5&#45;&gt;Node6</title>
<g id="a_edge5_Node000005_Node000006"><a xlink:title=" ">
<path fill="none" stroke="#63b8ff" d="M292.09,-167.36C300.4,-168.86 309.23,-170.45 317.68,-171.97"/>
<polygon fill="#63b8ff" stroke="#63b8ff" points="317.26,-175.45 327.72,-173.78 318.5,-168.56 317.26,-175.45"/>
</a>
</g>
</g>
<!-- Node6&#45;&gt;Node4 -->
<g id="edge6_Node000006_Node000004" class="edge">
<title>Node6&#45;&gt;Node4</title>
<g id="a_edge6_Node000006_Node000004"><a xlink:title=" ">
<path fill="none" stroke="#63b8ff" d="M389.89,-189.14C399.37,-192.35 409.86,-195.91 419.06,-199.04"/>
<polygon fill="#63b8ff" stroke="#63b8ff" points="418.18,-202.43 428.78,-202.33 420.43,-195.81 418.18,-202.43"/>
</a>
</g>
</g>
<!-- Node8&#45;&gt;Node3 -->
<g id="edge10_Node000008_Node000003" class="edge">
<title>Node8&#45;&gt;Node3</title>
<g id="a_edge10_Node000008_Node000003"><a xlink:title=" ">
<path fill="none" stroke="#63b8ff" d="M160.8,-301.93C166.6,-299.46 172.62,-296.61 178,-293.5 198.18,-281.83 219.04,-265.29 233.44,-253.03"/>
<polygon fill="#63b8ff" stroke="#63b8ff" points="235.86,-255.57 241.13,-246.37 231.28,-250.27 235.86,-255.57"/>
</a>
</g>
</g>
<!-- Node9 -->
<g id="Node000009" class="node">
<title>Node9</title>
<g id="a_Node000009"><a xlink:href="cpu_8c.html#a72dd5d1604adc49aa410d8bd39714cb5" target="_top" xlink:title="CPU pause instruction for spinlock optimization.">
<polygon fill="white" stroke="#666666" points="287,-302 219,-302 219,-283 287,-283 287,-302"/>
<text text-anchor="middle" x="253" y="-290" font-family="Helvetica,sans-Serif" font-size="10.00">cpu_pause</text>
</a>
</g>
</g>
<!-- Node8&#45;&gt;Node9 -->
<g id="edge9_Node000008_Node000009" class="edge">
<title>Node8&#45;&gt;Node9</title>
<g id="a_edge9_Node000008_Node000009"><a xlink:title=" ">
<path fill="none" stroke="#63b8ff" d="M162.05,-307.05C175.96,-304.8 193.16,-302.01 208.78,-299.49"/>
<polygon fill="#63b8ff" stroke="#63b8ff" points="209.45,-302.93 218.76,-297.87 208.33,-296.02 209.45,-302.93"/>
</a>
</g>
</g>
<!-- Node10&#45;&gt;Node3 -->
<g id="edge13_Node000010_Node000003" class="edge">
<title>Node10&#45;&gt;Node3</title>
<g id="a_edge13_Node000010_Node000003"><a xlink:title=" ">
<path fill="none" stroke="#63b8ff" d="M161.75,-265.69C177.17,-260.7 196.69,-254.39 213.63,-248.91"/>
<polygon fill="#63b8ff" stroke="#63b8ff" points="214.82,-252.2 223.26,-245.8 212.66,-245.54 214.82,-252.2"/>
</a>
</g>
</g>
<!-- Node10&#45;&gt;Node9 -->
<g id="edge12_Node000010_Node000009" class="edge">
<title>Node10&#45;&gt;Node9</title>
<g id="a_edge12_Node000010_Node000009"><a xlink:title=" ">
<path fill="none" stroke="#63b8ff" d="M161.75,-278.67C175.66,-280.8 192.9,-283.45 208.58,-285.85"/>
<polygon fill="#63b8ff" stroke="#63b8ff" points="208.19,-289.33 218.6,-287.38 209.25,-282.41 208.19,-289.33"/>
</a>
</g>
</g>
<!-- Node12 -->
<g id="Node000012" class="node">
<title>Node12</title>
<g id="a_Node000012"><a xlink:href="io_8h.html#a6932901bf7ae9a3e81166b99b36b6ecf" target="_top" xlink:title="Write a byte to an I/O port.">
<polygon fill="white" stroke="#666666" points="379.5,-113 341.5,-113 341.5,-94 379.5,-94 379.5,-113"/>
<text text-anchor="middle" x="360.5" y="-101" font-family="Helvetica,sans-Serif" font-size="10.00">outb</text>
</a>
</g>
</g>
<!-- Node11&#45;&gt;Node12 -->
<g id="edge16_Node000011_Node000012" class="edge">
<title>Node11&#45;&gt;Node12</title>
<g id="a_edge16_Node000011_Node000012"><a xlink:title=" ">
<path fill="none" stroke="#63b8ff" d="M284.23,-103.5C298.98,-103.5 316.62,-103.5 331.12,-103.5"/>
<polygon fill="#63b8ff" stroke="#63b8ff" points="331.49,-107 341.49,-103.5 331.49,-100 331.49,-107"/>
</a>
</g>
</g>
<!-- Node13&#45;&gt;Node5 -->
<g id="edge18_Node000013_Node000005" class="edge">
<title>Node13&#45;&gt;Node5</title>
<g id="a_edge18_Node000013_Node000005"><a xlink:title=" ">
<path fill="none" stroke="#63b8ff" d="M164.15,-132.09C178.9,-136.86 196.93,-142.69 212.8,-147.82"/>
<polygon fill="#63b8ff" stroke="#63b8ff" points="211.77,-151.17 222.36,-150.91 213.92,-144.51 211.77,-151.17"/>
</a>
</g>
</g>
<!-- Node13&#45;&gt;Node11 -->
<g id="edge19_Node000013_Node000011" class="edge">
<title>Node13&#45;&gt;Node11</title>
<g id="a_edge19_Node000013_Node000011"><a xlink:title=" ">
<path fill="none" stroke="#63b8ff" d="M171.68,-116.49C184.41,-114.43 198.71,-112.12 211.68,-110.02"/>
<polygon fill="#63b8ff" stroke="#63b8ff" points="212.43,-113.44 221.74,-108.39 211.31,-106.53 212.43,-113.44"/>
</a>
</g>
</g>
</g>
</svg>
