<?xml version="1.0" encoding="UTF-8" standalone="no"?>
<!DOCTYPE svg PUBLIC "-//W3C//DTD SVG 1.1//EN"
 "http://www.w3.org/Graphics/SVG/1.1/DTD/svg11.dtd">
<!-- Generated by graphviz version 2.43.0 (0)
 -->
<!-- Title: ptrs_per_block Pages: 1 -->
<!--zoomable 411 -->

<svg id="main" version="1.1" xmlns="http://www.w3.org/2000/svg" xmlns:xlink="http://www.w3.org/1999/xlink" xml:space="preserve" onload="init(evt)">
<style type="text/css"><![CDATA[
.node, .edge {opacity: 0.7;}
.node.selected, .edge.selected {opacity: 1;}
.edge:hover path { stroke: red; }
.edge:hover polygon { stroke: red; fill: red; }
]]></style>

<defs>
  <circle id="rim" cx="0" cy="0" r="7"/>
  <circle id="rim2" cx="0" cy="0" r="3.5"/>
  <g id="zoomPlus">
    <use xlink:href="#rim" fill="#404040"><set attributeName="fill" to="#808080" begin="zoomplus.mouseover" end="zoomplus.mouseout"/></use>
    <path d="M-4,0h8M0,-4v8" fill="none" stroke="white" stroke-width="1.5" pointer-events="none"/>
  </g>
  <g id="zoomMin">
    <use xlink:href="#rim" fill="#404040"><set attributeName="fill" to="#808080" begin="zoomminus.mouseover" end="zoomminus.mouseout"/></use>
    <path d="M-4,0h8" fill="none" stroke="white" stroke-width="1.5" pointer-events="none"/>
  </g>
  <g id="arrowUp" transform="translate(30 24)">
    <use xlink:href="#rim"/>
    <path pointer-events="none" fill="none" stroke="white" stroke-width="1.5" d="M0,-3.0v7 M-2.5,-0.5L0,-3.0L2.5,-0.5"/>
  </g>
  <g id="arrowRight" transform="rotate(90) translate(36 -43)">
    <use xlink:href="#rim"/>
    <path pointer-events="none" fill="none" stroke="white" stroke-width="1.5" d="M0,-3.0v7 M-2.5,-0.5L0,-3.0L2.5,-0.5"/>
  </g>
  <g id="arrowDown" transform="rotate(180) translate(-30 -48)">
    <use xlink:href="#rim"/>
    <path pointer-events="none" fill="none" stroke="white" stroke-width="1.5" d="M0,-3.0v7 M-2.5,-0.5L0,-3.0L2.5,-0.5"/>
  </g>
  <g id="arrowLeft" transform="rotate(270) translate(-36 17)">
    <use xlink:href="#rim"/>
    <path pointer-events="none" fill="none" stroke="white" stroke-width="1.5" d="M0,-3.0v7 M-2.5,-0.5L0,-3.0L2.5,-0.5"/>
  </g>
  <g id="resetDef">
    <use xlink:href="#rim2" fill="#404040"><set attributeName="fill" to="#808080" begin="reset.mouseover" end="reset.mouseout"/></use>
  </g>
</defs>
<script type="application/ecmascript">
var viewWidth = 563;
var viewHeight = 411;
var sectionId = 'dynsection-15';
</script>
<script type="application/ecmascript" xlink:href="svg.min.js"/>
<svg id="graph" class="graph">
<g id="viewport">
<title>ptrs_per_block</title>
<!-- Node1 -->
<g id="Node000001" class="node">
<title>Node1</title>
<g id="a_Node000001"><a xlink:title="Number of u32 block&#45;pointer slots per indirect block.">
<polygon fill="#999999" stroke="#666666" points="555,-224 467,-224 467,-205 555,-205 555,-224"/>
<text text-anchor="middle" x="511" y="-212" font-family="Helvetica,sans-Serif" font-size="10.00">ptrs_per_block</text>
</a>
</g>
</g>
<!-- Node2 -->
<g id="Node000002" class="node">
<title>Node2</title>
<g id="a_Node000002"><a xlink:href="blockmap_8c.html#ab4eb8bfa2badf37a0c74bd07e5dc145c" target="_top" xlink:title="Reserve the block at file&#45;relative index file_block.">
<polygon fill="white" stroke="#666666" points="417,-366 325,-366 325,-347 417,-347 417,-366"/>
<text text-anchor="middle" x="371" y="-354" font-family="Helvetica,sans-Serif" font-size="10.00">alloc_file_block</text>
</a>
</g>
</g>
<!-- Node1&#45;&gt;Node2 -->
<g id="edge1_Node000001_Node000002" class="edge">
<title>Node1&#45;&gt;Node2</title>
<g id="a_edge1_Node000001_Node000002"><a xlink:title=" ">
<path fill="none" stroke="#63b8ff" d="M493.49,-231.49C464.36,-261.46 404.76,-322.79 381.55,-346.67"/>
<polygon fill="#63b8ff" stroke="#63b8ff" points="496.06,-233.87 500.51,-224.26 491.04,-228.99 496.06,-233.87"/>
</a>
</g>
</g>
<!-- Node16 -->
<g id="Node000016" class="node">
<title>Node16</title>
<g id="a_Node000016"><a xlink:href="blockmap_8c.html#ac1186d8d194bfb877678c89302286c51" target="_top" xlink:title="Recursively free an indirect&#45;block subtree.">
<polygon fill="white" stroke="#666666" points="431,-122 311,-122 311,-103 431,-103 431,-122"/>
<text text-anchor="middle" x="371" y="-110" font-family="Helvetica,sans-Serif" font-size="10.00">free_indirect_subtree</text>
</a>
</g>
</g>
<!-- Node1&#45;&gt;Node16 -->
<g id="edge6_Node000001_Node000016" class="edge">
<title>Node1&#45;&gt;Node16</title>
<g id="a_edge6_Node000001_Node000016"><a xlink:title=" ">
<path fill="none" stroke="#63b8ff" d="M488.8,-198.83C459.88,-177.46 408.93,-139.8 385.05,-122.14"/>
<polygon fill="#63b8ff" stroke="#63b8ff" points="486.9,-201.77 497.02,-204.9 491.06,-196.15 486.9,-201.77"/>
</a>
</g>
</g>
<!-- Node26 -->
<g id="Node000026" class="node">
<title>Node26</title>
<g id="a_Node000026"><a xlink:href="blockmap_8c.html#a1edf31213aa3aa87731e42641099f46d" target="_top" xlink:title="Resolve a file&#45;relative block index to an on&#45;disk block number.">
<polygon fill="white" stroke="#666666" points="416.5,-224 325.5,-224 325.5,-205 416.5,-205 416.5,-224"/>
<text text-anchor="middle" x="371" y="-212" font-family="Helvetica,sans-Serif" font-size="10.00">get_block_num</text>
</a>
</g>
</g>
<!-- Node1&#45;&gt;Node26 -->
<g id="edge13_Node000001_Node000026" class="edge">
<title>Node1&#45;&gt;Node26</title>
<g id="a_edge13_Node000001_Node000026"><a xlink:title=" ">
<path fill="none" stroke="#63b8ff" d="M456.36,-214.5C443.2,-214.5 429.25,-214.5 416.56,-214.5"/>
<polygon fill="#63b8ff" stroke="#63b8ff" points="456.71,-218 466.71,-214.5 456.71,-211 456.71,-218"/>
</a>
</g>
</g>
<!-- Node3 -->
<g id="Node000003" class="node">
<title>Node3</title>
<g id="a_Node000003"><a xlink:href="dir__entry_8c.html#adf2d350ae9f5dd9c50229f1a45937965" target="_top" xlink:title="Grow the directory by one block, seeded with the new entry.">
<polygon fill="white" stroke="#666666" points="275,-403 159,-403 159,-384 275,-384 275,-403"/>
<text text-anchor="middle" x="217" y="-391" font-family="Helvetica,sans-Serif" font-size="10.00">dir_grow_with_entry</text>
</a>
</g>
</g>
<!-- Node2&#45;&gt;Node3 -->
<g id="edge2_Node000002_Node000003" class="edge">
<title>Node2&#45;&gt;Node3</title>
<g id="a_edge2_Node000002_Node000003"><a xlink:title=" ">
<path fill="none" stroke="#63b8ff" d="M321.01,-368.43C300.39,-373.44 276.72,-379.21 257.28,-383.94"/>
<polygon fill="#63b8ff" stroke="#63b8ff" points="321.97,-371.79 330.86,-366.03 320.31,-364.99 321.97,-371.79"/>
</a>
</g>
</g>
<!-- Node11 -->
<g id="Node000011" class="node">
<title>Node11</title>
<g id="a_Node000011"><a xlink:href="file_8c.html#a8b7d4942e79d8b4e76b87688e3686e72" target="_top" xlink:title="Resolve file_block to an on&#45;disk block, allocating on hole.">
<polygon fill="white" stroke="#666666" points="271,-366 163,-366 163,-347 271,-347 271,-366"/>
<text text-anchor="middle" x="217" y="-354" font-family="Helvetica,sans-Serif" font-size="10.00">ensure_data_block</text>
</a>
</g>
</g>
<!-- Node2&#45;&gt;Node11 -->
<g id="edge4_Node000002_Node000011" class="edge">
<title>Node2&#45;&gt;Node11</title>
<g id="a_edge4_Node000002_Node000011"><a xlink:title=" ">
<path fill="none" stroke="#63b8ff" d="M314.66,-356.5C300.43,-356.5 285.16,-356.5 271.05,-356.5"/>
<polygon fill="#63b8ff" stroke="#63b8ff" points="314.81,-360 324.81,-356.5 314.81,-353 314.81,-360"/>
</a>
</g>
</g>
<!-- Node4 -->
<g id="Node000004" class="node">
<title>Node4</title>
<g id="a_Node000004"><a xlink:href="dir__entry_8c.html#a4f4dc40dd4d7fa626fb34219002c1637" target="_top" xlink:title="Add a directory entry.">
<polygon fill="#fff0f0" stroke="red" points="103,-403 20,-403 20,-384 103,-384 103,-403"/>
<text text-anchor="middle" x="61.5" y="-391" font-family="Helvetica,sans-Serif" font-size="10.00">dir_add_entry</text>
</a>
</g>
</g>
<!-- Node3&#45;&gt;Node4 -->
<g id="edge3_Node000003_Node000004" class="edge">
<title>Node3&#45;&gt;Node4</title>
<g id="a_edge3_Node000003_Node000004"><a xlink:title=" ">
<path fill="none" stroke="#63b8ff" d="M148.79,-393.5C133.33,-393.5 117.35,-393.5 103.41,-393.5"/>
<polygon fill="#63b8ff" stroke="#63b8ff" points="148.84,-397 158.84,-393.5 148.84,-390 148.84,-397"/>
</a>
</g>
</g>
<!-- Node12 -->
<g id="Node000012" class="node">
<title>Node12</title>
<g id="a_Node000012"><a xlink:href="file_8c.html#ae37d4828b0eb47da6755a484e7876462" target="_top" xlink:title="One iteration of the write loop: place one chunk into the file.">
<polygon fill="#fff0f0" stroke="red" points="111,-366 12,-366 12,-347 111,-347 111,-366"/>
<text text-anchor="middle" x="61.5" y="-354" font-family="Helvetica,sans-Serif" font-size="10.00">write_one_chunk</text>
</a>
</g>
</g>
<!-- Node11&#45;&gt;Node12 -->
<g id="edge5_Node000011_Node000012" class="edge">
<title>Node11&#45;&gt;Node12</title>
<g id="a_edge5_Node000011_Node000012"><a xlink:title=" ">
<path fill="none" stroke="#63b8ff" d="M152.74,-356.5C138.81,-356.5 124.27,-356.5 111.03,-356.5"/>
<polygon fill="#63b8ff" stroke="#63b8ff" points="152.74,-360 162.74,-356.5 152.74,-353 152.74,-360"/>
</a>
</g>
</g>
<!-- Node16&#45;&gt;Node16 -->
<g id="edge7_Node000016_Node000016" class="edge">
<title>Node16&#45;&gt;Node16</title>
<g id="a_edge7_Node000016_Node000016"><a xlink:title=" ">
<path fill="none" stroke="#63b8ff" d="M397.04,-131.19C395.62,-136.2 386.94,-140 371,-140 346.12,-140 338.92,-130.73 349.42,-122.08"/>
<polygon fill="#63b8ff" stroke="#63b8ff" points="400.12,-129.52 392.58,-122.08 393.84,-132.6 400.12,-129.52"/>
</a>
</g>
</g>
<!-- Node17 -->
<g id="Node000017" class="node">
<title>Node17</title>
<g id="a_Node000017"><a xlink:href="blockmap_8c.html#a14a27d30b184dac4588f28bfa35d7fe5" target="_top" xlink:title="Free every block referenced by inode and reset its counters.">
<polygon fill="white" stroke="#666666" points="269.5,-56 164.5,-56 164.5,-37 269.5,-37 269.5,-56"/>
<text text-anchor="middle" x="217" y="-44" font-family="Helvetica,sans-Serif" font-size="10.00">free_inode_blocks</text>
</a>
</g>
</g>
<!-- Node16&#45;&gt;Node17 -->
<g id="edge8_Node000016_Node000017" class="edge">
<title>Node16&#45;&gt;Node17</title>
<g id="a_edge8_Node000016_Node000017"><a xlink:title=" ">
<path fill="none" stroke="#63b8ff" d="M343.61,-98.22C324.79,-88.34 298.73,-75.27 275,-65.5 266.8,-62.12 257.76,-58.9 249.35,-56.09"/>
<polygon fill="#63b8ff" stroke="#63b8ff" points="342,-101.33 352.48,-102.92 345.28,-95.14 342,-101.33"/>
</a>
</g>
</g>
<!-- Node18 -->
<g id="Node000018" class="node">
<title>Node18</title>
<g id="a_Node000018"><a xlink:href="file_8c.html#ab3496119d1da698296609134293d2a0a" target="_top" xlink:title="Close an ext2 file handle.">
<polygon fill="#fff0f0" stroke="red" points="96,-19 27,-19 27,0 96,0 96,-19"/>
<text text-anchor="middle" x="61.5" y="-7" font-family="Helvetica,sans-Serif" font-size="10.00">ext2_close</text>
</a>
</g>
</g>
<!-- Node17&#45;&gt;Node18 -->
<g id="edge9_Node000017_Node000018" class="edge">
<title>Node17&#45;&gt;Node18</title>
<g id="a_edge9_Node000017_Node000018"><a xlink:title=" ">
<path fill="none" stroke="#63b8ff" d="M166.54,-34.58C143.55,-29.04 116.79,-22.59 96.17,-17.62"/>
<polygon fill="#63b8ff" stroke="#63b8ff" points="165.93,-38.03 176.47,-36.97 167.57,-31.23 165.93,-38.03"/>
</a>
</g>
</g>
<!-- Node20 -->
<g id="Node000020" class="node">
<title>Node20</title>
<g id="a_Node000020"><a xlink:href="dir_8c.html#aa4c996b297c8e722153eb3b32cd065ca" target="_top" xlink:title="Remove an empty directory from an ext2 volume.">
<polygon fill="#fff0f0" stroke="red" points="96.5,-130 26.5,-130 26.5,-111 96.5,-111 96.5,-130"/>
<text text-anchor="middle" x="61.5" y="-118" font-family="Helvetica,sans-Serif" font-size="10.00">ext2_rmdir</text>
</a>
</g>
</g>
<!-- Node17&#45;&gt;Node20 -->
<g id="edge10_Node000017_Node000020" class="edge">
<title>Node17&#45;&gt;Node20</title>
<g id="a_edge10_Node000017_Node000020"><a xlink:title=" ">
<path fill="none" stroke="#63b8ff" d="M169.15,-60.04C165.62,-61.68 162.19,-63.5 159,-65.5 139.57,-77.7 142.63,-90.62 123,-102.5 115.03,-107.32 105.68,-110.93 96.75,-113.59"/>
<polygon fill="#63b8ff" stroke="#63b8ff" points="170.76,-63.16 178.65,-56.09 168.07,-56.7 170.76,-63.16"/>
</a>
</g>
</g>
<!-- Node22 -->
<g id="Node000022" class="node">
<title>Node22</title>
<g id="a_Node000022"><a xlink:href="file_8c.html#ab7a3809fc66df5e495777427652c80b3" target="_top" xlink:title="Truncate an ext2 file to length bytes.">
<polygon fill="#fff0f0" stroke="red" points="103.5,-56 19.5,-56 19.5,-37 103.5,-37 103.5,-56"/>
<text text-anchor="middle" x="61.5" y="-44" font-family="Helvetica,sans-Serif" font-size="10.00">ext2_truncate</text>
</a>
</g>
</g>
<!-- Node17&#45;&gt;Node22 -->
<g id="edge11_Node000017_Node000022" class="edge">
<title>Node17&#45;&gt;Node22</title>
<g id="a_edge11_Node000017_Node000022"><a xlink:title=" ">
<path fill="none" stroke="#63b8ff" d="M154.12,-46.5C137.26,-46.5 119.4,-46.5 103.97,-46.5"/>
<polygon fill="#63b8ff" stroke="#63b8ff" points="154.46,-50 164.46,-46.5 154.46,-43 154.46,-50"/>
</a>
</g>
</g>
<!-- Node24 -->
<g id="Node000024" class="node">
<title>Node24</title>
<g id="a_Node000024"><a xlink:href="dir_8c.html#ab2db24d7e702d63816085153ecf3eef7" target="_top" xlink:title="Remove a file from an ext2 volume.">
<polygon fill="#fff0f0" stroke="red" points="98.5,-93 24.5,-93 24.5,-74 98.5,-74 98.5,-93"/>
<text text-anchor="middle" x="61.5" y="-81" font-family="Helvetica,sans-Serif" font-size="10.00">ext2_unlink</text>
</a>
</g>
</g>
<!-- Node17&#45;&gt;Node24 -->
<g id="edge12_Node000017_Node000024" class="edge">
<title>Node17&#45;&gt;Node24</title>
<g id="a_edge12_Node000017_Node000024"><a xlink:title=" ">
<path fill="none" stroke="#63b8ff" d="M166.61,-58.41C144.54,-63.73 119,-69.88 98.74,-74.76"/>
<polygon fill="#63b8ff" stroke="#63b8ff" points="167.57,-61.77 176.47,-56.03 165.93,-54.97 167.57,-61.77"/>
</a>
</g>
</g>
<!-- Node26&#45;&gt;Node11 -->
<g id="edge26_Node000026_Node000011" class="edge">
<title>Node26&#45;&gt;Node11</title>
<g id="a_edge26_Node000026_Node000011"><a xlink:title=" ">
<path fill="none" stroke="#63b8ff" d="M360.32,-233.15C345.48,-259.99 314.6,-309.38 275,-337.5 269.56,-341.37 263.27,-344.49 256.91,-346.99"/>
<polygon fill="#63b8ff" stroke="#63b8ff" points="363.56,-234.52 365.21,-224.06 357.39,-231.21 363.56,-234.52"/>
</a>
</g>
</g>
<!-- Node27 -->
<g id="Node000027" class="node">
<title>Node27</title>
<g id="a_Node000027"><a xlink:href="file_8c.html#a845ca06242d90d0b72a0f50c2d615c95" target="_top" xlink:title="Count how many on&#45;disk blocks following base_block_num are contiguous to it for this inode.">
<polygon fill="white" stroke="#666666" points="269,-167 165,-167 165,-148 269,-148 269,-167"/>
<text text-anchor="middle" x="217" y="-155" font-family="Helvetica,sans-Serif" font-size="10.00">detect_run_length</text>
</a>
</g>
</g>
<!-- Node26&#45;&gt;Node27 -->
<g id="edge14_Node000026_Node000027" class="edge">
<title>Node26&#45;&gt;Node27</title>
<g id="a_edge14_Node000026_Node000027"><a xlink:title=" ">
<path fill="none" stroke="#63b8ff" d="M335.16,-201.43C307.22,-190.96 268.65,-176.49 243.52,-167.07"/>
<polygon fill="#63b8ff" stroke="#63b8ff" points="333.97,-204.73 344.56,-204.96 336.42,-198.17 333.97,-204.73"/>
</a>
</g>
</g>
<!-- Node28 -->
<g id="Node000028" class="node">
<title>Node28</title>
<g id="a_Node000028"><a xlink:href="file_8c.html#aa4ace95cb1d031a3141636122511c8fc" target="_top" xlink:title="One iteration of the read loop: pick the right path for one block and copy as much as fits.">
<polygon fill="#fff0f0" stroke="red" points="115.5,-186 7.5,-186 7.5,-167 115.5,-167 115.5,-186"/>
<text text-anchor="middle" x="61.5" y="-174" font-family="Helvetica,sans-Serif" font-size="10.00">read_one_iteration</text>
</a>
</g>
</g>
<!-- Node26&#45;&gt;Node28 -->
<g id="edge29_Node000026_Node000028" class="edge">
<title>Node26&#45;&gt;Node28</title>
<g id="a_edge29_Node000026_Node000028"><a xlink:title=" ">
<path fill="none" stroke="#63b8ff" d="M315.12,-207.72C258.66,-200.74 171.3,-189.95 115.53,-183.05"/>
<polygon fill="#63b8ff" stroke="#63b8ff" points="314.93,-211.22 325.29,-208.97 315.79,-204.27 314.93,-211.22"/>
</a>
</g>
</g>
<!-- Node32 -->
<g id="Node000032" class="node">
<title>Node32</title>
<g id="a_Node000032"><a xlink:href="dir__entry_8c.html#a44847a1e74b0df6de11296fd8980308e" target="_top" xlink:title="Find a directory entry by name.">
<polygon fill="white" stroke="#666666" points="258.5,-280 175.5,-280 175.5,-261 258.5,-261 258.5,-280"/>
<text text-anchor="middle" x="217" y="-268" font-family="Helvetica,sans-Serif" font-size="10.00">dir_find_entry</text>
</a>
</g>
</g>
<!-- Node26&#45;&gt;Node32 -->
<g id="edge16_Node000026_Node000032" class="edge">
<title>Node26&#45;&gt;Node32</title>
<g id="a_edge16_Node000026_Node000032"><a xlink:title=" ">
<path fill="none" stroke="#63b8ff" d="M338.19,-227.91C319.85,-235.48 296.27,-244.9 275,-252.5 266.89,-255.4 258.05,-258.31 249.8,-260.92"/>
<polygon fill="#63b8ff" stroke="#63b8ff" points="339.64,-231.1 347.53,-224.04 336.95,-224.64 339.64,-231.1"/>
</a>
</g>
</g>
<!-- Node44 -->
<g id="Node000044" class="node">
<title>Node44</title>
<g id="a_Node000044"><a xlink:href="dir__entry_8c.html#a846f948811faccd55e96a7bcf1eb8747" target="_top" xlink:title="Check if a directory is empty.">
<polygon fill="white" stroke="#666666" points="257,-130 177,-130 177,-111 257,-111 257,-130"/>
<text text-anchor="middle" x="217" y="-118" font-family="Helvetica,sans-Serif" font-size="10.00">dir_is_empty</text>
</a>
</g>
</g>
<!-- Node26&#45;&gt;Node44 -->
<g id="edge19_Node000026_Node000044" class="edge">
<title>Node26&#45;&gt;Node44</title>
<g id="a_edge19_Node000026_Node000044"><a xlink:title=" ">
<path fill="none" stroke="#63b8ff" d="M352.86,-197.91C334.78,-181.19 304.83,-155.6 275,-139.5 268.21,-135.83 260.58,-132.7 253.17,-130.09"/>
<polygon fill="#63b8ff" stroke="#63b8ff" points="350.61,-200.6 360.29,-204.91 355.41,-195.5 350.61,-200.6"/>
</a>
</g>
</g>
<!-- Node45 -->
<g id="Node000045" class="node">
<title>Node45</title>
<g id="a_Node000045"><a xlink:href="dir__entry_8c.html#af34fc009f5ec9683665f000e226a64bd" target="_top" xlink:title="Remove a directory entry.">
<polygon fill="white" stroke="#666666" points="268.5,-93 165.5,-93 165.5,-74 268.5,-74 268.5,-93"/>
<text text-anchor="middle" x="217" y="-81" font-family="Helvetica,sans-Serif" font-size="10.00">dir_remove_entry</text>
</a>
</g>
</g>
<!-- Node26&#45;&gt;Node45 -->
<g id="edge21_Node000026_Node000045" class="edge">
<title>Node26&#45;&gt;Node45</title>
<g id="a_edge21_Node000026_Node000045"><a xlink:title=" ">
<path fill="none" stroke="#63b8ff" d="M353.68,-197.32C341.6,-184.41 324.91,-166.17 311,-149.5 294.14,-129.3 296.42,-117.78 275,-102.5 269.65,-98.68 263.48,-95.6 257.22,-93.11"/>
<polygon fill="#63b8ff" stroke="#63b8ff" points="351.13,-199.72 360.54,-204.6 356.23,-194.92 351.13,-199.72"/>
</a>
</g>
</g>
<!-- Node46 -->
<g id="Node000046" class="node">
<title>Node46</title>
<g id="a_Node000046"><a xlink:href="dir__entry_8c.html#a636acc589597366c76316781d88c4505" target="_top" xlink:title="Try to splice the new entry into any existing block&#39;s slack.">
<polygon fill="white" stroke="#666666" points="269.5,-328.5 164.5,-328.5 164.5,-298.5 269.5,-298.5 269.5,-328.5"/>
<text text-anchor="start" x="172.5" y="-316.5" font-family="Helvetica,sans-Serif" font-size="10.00">dir_try_insert_into</text>
<text text-anchor="middle" x="217" y="-305.5" font-family="Helvetica,sans-Serif" font-size="10.00">_existing</text>
</a>
</g>
</g>
<!-- Node26&#45;&gt;Node46 -->
<g id="edge24_Node000026_Node000046" class="edge">
<title>Node26&#45;&gt;Node46</title>
<g id="a_edge24_Node000026_Node000046"><a xlink:title=" ">
<path fill="none" stroke="#63b8ff" d="M352.3,-230.89C333.98,-247.25 304.03,-272.36 275,-289.5 269.55,-292.72 263.58,-295.73 257.62,-298.46"/>
<polygon fill="#63b8ff" stroke="#63b8ff" points="354.79,-233.35 359.86,-224.05 350.09,-228.16 354.79,-233.35"/>
</a>
</g>
</g>
<!-- Node47 -->
<g id="Node000047" class="node">
<title>Node47</title>
<g id="a_Node000047"><a xlink:href="dir_8c.html#ababeb4e8c776d2b2c367e0f49234c2f9" target="_top" xlink:title="Read the entry at index from an open directory.">
<polygon fill="white" stroke="#666666" points="256,-243 178,-243 178,-224 256,-224 256,-243"/>
<text text-anchor="middle" x="217" y="-231" font-family="Helvetica,sans-Serif" font-size="10.00">ext2_readdir</text>
</a>
</g>
</g>
<!-- Node26&#45;&gt;Node47 -->
<g id="edge27_Node000026_Node000047" class="edge">
<title>Node26&#45;&gt;Node47</title>
<g id="a_edge27_Node000026_Node000047"><a xlink:title=" ">
<path fill="none" stroke="#63b8ff" d="M315.18,-221.35C295.57,-223.8 273.92,-226.51 256.04,-228.74"/>
<polygon fill="#63b8ff" stroke="#63b8ff" points="315.73,-224.81 325.22,-220.1 314.86,-217.87 315.73,-224.81"/>
</a>
</g>
</g>
<!-- Node27&#45;&gt;Node28 -->
<g id="edge15_Node000027_Node000028" class="edge">
<title>Node27&#45;&gt;Node28</title>
<g id="a_edge15_Node000027_Node000028"><a xlink:title=" ">
<path fill="none" stroke="#63b8ff" d="M154.71,-165.09C141.82,-166.68 128.32,-168.35 115.75,-169.91"/>
<polygon fill="#63b8ff" stroke="#63b8ff" points="155.39,-168.53 164.89,-163.83 154.53,-161.58 155.39,-168.53"/>
</a>
</g>
</g>
<!-- Node33 -->
<g id="Node000033" class="node">
<title>Node33</title>
<g id="a_Node000033"><a xlink:href="path_8c.html#a26da330aa71fa2bf5d5c8c70862c4030" target="_top" xlink:title="Read the target of the symlink at path into buf.">
<polygon fill="#fff0f0" stroke="red" points="103,-280 20,-280 20,-261 103,-261 103,-280"/>
<text text-anchor="middle" x="61.5" y="-268" font-family="Helvetica,sans-Serif" font-size="10.00">ext2_readlink</text>
</a>
</g>
</g>
<!-- Node32&#45;&gt;Node33 -->
<g id="edge17_Node000032_Node000033" class="edge">
<title>Node32&#45;&gt;Node33</title>
<g id="a_edge17_Node000032_Node000033"><a xlink:title=" ">
<path fill="none" stroke="#63b8ff" d="M165.03,-270.5C144.92,-270.5 122.13,-270.5 103.16,-270.5"/>
<polygon fill="#63b8ff" stroke="#63b8ff" points="165.27,-274 175.27,-270.5 165.27,-267 165.27,-274"/>
</a>
</g>
</g>
<!-- Node35 -->
<g id="Node000035" class="node">
<title>Node35</title>
<g id="a_Node000035"><a xlink:href="path_8c.html#a668589c43a9199cc39eff8bb62e9143b" target="_top" xlink:title="Look up component inside current_inode and advance the cursor to the resolved inode.">
<polygon fill="#fff0f0" stroke="red" points="123,-317 0,-317 0,-298 123,-298 123,-317"/>
<text text-anchor="middle" x="61.5" y="-305" font-family="Helvetica,sans-Serif" font-size="10.00">walk_one_component</text>
</a>
</g>
</g>
<!-- Node32&#45;&gt;Node35 -->
<g id="edge18_Node000032_Node000035" class="edge">
<title>Node32&#45;&gt;Node35</title>
<g id="a_edge18_Node000032_Node000035"><a xlink:title=" ">
<path fill="none" stroke="#63b8ff" d="M166.53,-282.43C145.7,-287.44 121.8,-293.21 102.16,-297.94"/>
<polygon fill="#63b8ff" stroke="#63b8ff" points="167.57,-285.77 176.47,-280.03 165.93,-278.97 167.57,-285.77"/>
</a>
</g>
</g>
<!-- Node44&#45;&gt;Node20 -->
<g id="edge20_Node000044_Node000020" class="edge">
<title>Node44&#45;&gt;Node20</title>
<g id="a_edge20_Node000044_Node000020"><a xlink:title=" ">
<path fill="none" stroke="#63b8ff" d="M166.66,-120.5C143.8,-120.5 117.2,-120.5 96.6,-120.5"/>
<polygon fill="#63b8ff" stroke="#63b8ff" points="166.87,-124 176.87,-120.5 166.87,-117 166.87,-124"/>
</a>
</g>
</g>
<!-- Node45&#45;&gt;Node20 -->
<g id="edge22_Node000045_Node000020" class="edge">
<title>Node45&#45;&gt;Node20</title>
<g id="a_edge22_Node000045_Node000020"><a xlink:title=" ">
<path fill="none" stroke="#63b8ff" d="M166.61,-95.4C143.79,-100.91 117.25,-107.3 96.68,-112.26"/>
<polygon fill="#63b8ff" stroke="#63b8ff" points="167.57,-98.77 176.47,-93.03 165.93,-91.97 167.57,-98.77"/>
</a>
</g>
</g>
<!-- Node45&#45;&gt;Node24 -->
<g id="edge23_Node000045_Node000024" class="edge">
<title>Node45&#45;&gt;Node24</title>
<g id="a_edge23_Node000045_Node000024"><a xlink:title=" ">
<path fill="none" stroke="#63b8ff" d="M155.14,-83.5C135.98,-83.5 115.43,-83.5 98.56,-83.5"/>
<polygon fill="#63b8ff" stroke="#63b8ff" points="155.31,-87 165.31,-83.5 155.31,-80 155.31,-87"/>
</a>
</g>
</g>
<!-- Node46&#45;&gt;Node4 -->
<g id="edge25_Node000046_Node000004" class="edge">
<title>Node46&#45;&gt;Node4</title>
<g id="a_edge25_Node000046_Node000004"><a xlink:title=" ">
<path fill="none" stroke="#63b8ff" d="M167.39,-333.23C164.49,-334.9 161.66,-336.65 159,-338.5 140.14,-351.57 142.63,-363.62 123,-375.5 116.91,-379.19 110.01,-382.16 103.1,-384.55"/>
<polygon fill="#63b8ff" stroke="#63b8ff" points="169.09,-336.29 176.3,-328.53 165.82,-330.11 169.09,-336.29"/>
</a>
</g>
</g>
<!-- Node48 -->
<g id="Node000048" class="node">
<title>Node48</title>
<g id="a_Node000048"><a xlink:href="ops_8c.html#a8b01b0f12e74e9ca626d34d91d6f9e65" target="_top" xlink:title="fs_ops_t.readdir shim — copies one entry&#39;s name + stat.">
<polygon fill="white" stroke="#666666" points="112,-243 11,-243 11,-224 112,-224 112,-243"/>
<text text-anchor="middle" x="61.5" y="-231" font-family="Helvetica,sans-Serif" font-size="10.00">ext2_ops_readdir</text>
</a>
</g>
</g>
<!-- Node47&#45;&gt;Node48 -->
<g id="edge28_Node000047_Node000048" class="edge">
<title>Node47&#45;&gt;Node48</title>
<g id="a_edge28_Node000047_Node000048"><a xlink:title=" ">
<path fill="none" stroke="#63b8ff" d="M167.58,-233.5C149.94,-233.5 129.98,-233.5 112.23,-233.5"/>
<polygon fill="#63b8ff" stroke="#63b8ff" points="167.66,-237 177.66,-233.5 167.66,-230 167.66,-237"/>
</a>
</g>
</g>
</g>
</svg>

<g id="navigator" transform="translate(0 0)" fill="#404254">
  <rect fill="#f2f5e9" fill-opacity="0.5" stroke="#606060" stroke-width=".5" x="0" y="0" width="60" height="60"/>
  <use id="zoomplus" xlink:href="#zoomPlus" x="17" y="9" onmousedown="handleZoom(evt,'in')"/>
  <use id="zoomminus" xlink:href="#zoomMin" x="42" y="9" onmousedown="handleZoom(evt,'out')"/>
  <use id="reset" xlink:href="#resetDef" x="30" y="36" onmousedown="handleReset()"/>
   <use id="arrowup" xlink:href="#arrowUp" x="0" y="0" onmousedown="handlePan(0,-1)"/>
  <use id="arrowright" xlink:href="#arrowRight" x="0" y="0" onmousedown="handlePan(1,0)"/>
  <use id="arrowdown" xlink:href="#arrowDown" x="0" y="0" onmousedown="handlePan(0,1)"/>
  <use id="arrowleft" xlink:href="#arrowLeft" x="0" y="0" onmousedown="handlePan(-1,0)"/>
</g>
<svg viewBox="0 0 15 15" width="100%" height="30px" preserveAspectRatio="xMaxYMin meet">
 <g id="arrow_out" transform="scale(0.3 0.3)">
  <a xlink:href="blockmap_8c_ae0cee49141d18668ec4dd1734d0a3e45_icgraph_org.svg" target="_base">
   <rect id="button" ry="5" rx="5" y="6" x="6" height="38" width="38"
        fill="#f2f5e9" fill-opacity="0.5" stroke="#606060" stroke-width="1.0"/>
   <path id="arrow"
     d="M 11.500037,31.436501 C 11.940474,20.09759 22.043105,11.32322 32.158766,21.979434 L 37.068811,17.246167 C 37.068811,17.246167 37.088388,32 37.088388,32 L 22.160133,31.978069 C 22.160133,31.978069 26.997745,27.140456 26.997745,27.140456 C 18.528582,18.264221 13.291696,25.230495 11.500037,31.436501 z"
     style="fill:#404040;"/>
  </a>
 </g>
</svg>

<style type='text/css'>
<![CDATA[
[data-mouse-over-selected='false'] { opacity: 0.7; }
[data-mouse-over-selected='true']  { opacity: 1.0; }
]]>
</style>
<script type="application/ecmascript"><![CDATA[
document.addEventListener('DOMContentLoaded', (event) => {
  highlightEdges();
  highlightAdjacentNodes();
});
]]></script>
</svg>
