<?xml version="1.0" encoding="UTF-8" standalone="no"?>
<!DOCTYPE svg PUBLIC "-//W3C//DTD SVG 1.1//EN"
 "http://www.w3.org/Graphics/SVG/1.1/DTD/svg11.dtd">
<!-- Generated by graphviz version 2.43.0 (0)
 -->
<!-- Title: fb_clear_rectangle Pages: 1 -->
<svg width="845pt" height="247pt"
 viewBox="0.00 0.00 845.00 247.00" xmlns="http://www.w3.org/2000/svg" xmlns:xlink="http://www.w3.org/1999/xlink">
<g id="graph0" class="graph" transform="scale(1 1) rotate(0) translate(4 243)">
<title>fb_clear_rectangle</title>
<!-- Node1 -->
<g id="Node000001" class="node">
<title>Node1</title>
<g id="a_Node000001"><a xlink:title="Fill rows [y0, y1) with ctx.bg, fast&#45;path on 32 bpp.">
<polygon fill="#999999" stroke="#666666" points="837,-185 730,-185 730,-166 837,-166 837,-185"/>
<text text-anchor="middle" x="783.5" y="-173" font-family="Helvetica,sans-Serif" font-size="10.00">fb_clear_rectangle</text>
</a>
</g>
</g>
<!-- Node2 -->
<g id="Node000002" class="node">
<title>Node2</title>
<g id="a_Node000002"><a xlink:href="console_8c.html#aa458c825fb8701dc71639422d2a03385" target="_top" xlink:title="Clear the console screen.">
<polygon fill="white" stroke="#666666" points="608.5,-239 525.5,-239 525.5,-220 608.5,-220 608.5,-239"/>
<text text-anchor="middle" x="567" y="-227" font-family="Helvetica,sans-Serif" font-size="10.00">console_clear</text>
</a>
</g>
</g>
<!-- Node1&#45;&gt;Node2 -->
<g id="edge1_Node000001_Node000002" class="edge">
<title>Node1&#45;&gt;Node2</title>
<g id="a_edge1_Node000001_Node000002"><a xlink:title=" ">
<path fill="none" stroke="#63b8ff" d="M734.61,-187.55C695.75,-197.34 641.71,-210.94 605.84,-219.97"/>
<polygon fill="#63b8ff" stroke="#63b8ff" points="735.8,-190.87 744.65,-185.03 734.09,-184.08 735.8,-190.87"/>
</a>
</g>
</g>
<!-- Node5 -->
<g id="Node000005" class="node">
<title>Node5</title>
<g id="a_Node000005"><a xlink:href="console_8c.html#ac2a70eb4d61b269e4257b88e53f9d6f7" target="_top" xlink:title="Shift the framebuffer up by one cell row and clear the bottom row.">
<polygon fill="white" stroke="#666666" points="694,-166 651,-166 651,-147 694,-147 694,-166"/>
<text text-anchor="middle" x="672.5" y="-154" font-family="Helvetica,sans-Serif" font-size="10.00">scroll</text>
</a>
</g>
</g>
<!-- Node1&#45;&gt;Node5 -->
<g id="edge4_Node000001_Node000005" class="edge">
<title>Node1&#45;&gt;Node5</title>
<g id="a_edge4_Node000001_Node000005"><a xlink:title=" ">
<path fill="none" stroke="#63b8ff" d="M719.79,-164.57C710.52,-162.95 701.58,-161.39 694.07,-160.09"/>
<polygon fill="#63b8ff" stroke="#63b8ff" points="719.46,-168.06 729.92,-166.33 720.67,-161.17 719.46,-168.06"/>
</a>
</g>
</g>
<!-- Node3 -->
<g id="Node000003" class="node">
<title>Node3</title>
<g id="a_Node000003"><a xlink:href="src_2kernel_2main_8c.html#adeb869107f7d13d18c40424087d0da85" target="_top" xlink:title="Initialize early boot subsystems.">
<polygon fill="white" stroke="#666666" points="145,-200 83,-200 83,-181 145,-181 145,-200"/>
<text text-anchor="middle" x="114" y="-188" font-family="Helvetica,sans-Serif" font-size="10.00">init_early</text>
</a>
</g>
</g>
<!-- Node2&#45;&gt;Node3 -->
<g id="edge2_Node000002_Node000003" class="edge">
<title>Node2&#45;&gt;Node3</title>
<g id="a_edge2_Node000002_Node000003"><a xlink:title=" ">
<path fill="none" stroke="#63b8ff" d="M515.01,-225.09C420.49,-216.92 220.82,-199.65 145.03,-193.1"/>
<polygon fill="#63b8ff" stroke="#63b8ff" points="514.92,-228.6 525.18,-225.97 515.52,-221.62 514.92,-228.6"/>
</a>
</g>
</g>
<!-- Node4 -->
<g id="Node000004" class="node">
<title>Node4</title>
<g id="a_Node000004"><a xlink:href="src_2kernel_2main_8c.html#a406c20548822065e144564476378f8a1" target="_top" xlink:title="Kernel main entry point.">
<polygon fill="white" stroke="#666666" points="47,-162 0,-162 0,-143 47,-143 47,-162"/>
<text text-anchor="middle" x="23.5" y="-150" font-family="Helvetica,sans-Serif" font-size="10.00">kmain</text>
</a>
</g>
</g>
<!-- Node3&#45;&gt;Node4 -->
<g id="edge3_Node000003_Node000004" class="edge">
<title>Node3&#45;&gt;Node4</title>
<g id="a_edge3_Node000003_Node000004"><a xlink:title=" ">
<path fill="none" stroke="#63b8ff" d="M81.42,-176.94C69.98,-172.03 57.31,-166.59 46.83,-162.09"/>
<polygon fill="#63b8ff" stroke="#63b8ff" points="80.1,-180.18 90.67,-180.91 82.86,-173.75 80.1,-180.18"/>
</a>
</g>
</g>
<!-- Node6 -->
<g id="Node000006" class="node">
<title>Node6</title>
<g id="a_Node000006"><a xlink:href="console_8c.html#ac156aa97dae8b45e5aea8f6534d38946" target="_top" xlink:title="Write a single character to the console.">
<polygon fill="white" stroke="#666666" points="615,-109 519,-109 519,-90 615,-90 615,-109"/>
<text text-anchor="middle" x="567" y="-97" font-family="Helvetica,sans-Serif" font-size="10.00">console_putchar</text>
</a>
</g>
</g>
<!-- Node5&#45;&gt;Node6 -->
<g id="edge5_Node000005_Node000006" class="edge">
<title>Node5&#45;&gt;Node6</title>
<g id="a_edge5_Node000005_Node000006"><a xlink:title=" ">
<path fill="none" stroke="#63b8ff" d="M645,-141.91C626.23,-131.57 601.59,-118 585.3,-109.03"/>
<polygon fill="#63b8ff" stroke="#63b8ff" points="643.49,-145.07 653.94,-146.83 646.87,-138.94 643.49,-145.07"/>
</a>
</g>
</g>
<!-- Node7 -->
<g id="Node000007" class="node">
<title>Node7</title>
<g id="a_Node000007"><a xlink:href="console_8c.html#a84d730ed3d7296809059cb503c36d415" target="_top" xlink:title="Write a null&#45;terminated string to the console.">
<polygon fill="#fff0f0" stroke="red" points="483,-171 401,-171 401,-152 483,-152 483,-171"/>
<text text-anchor="middle" x="442" y="-159" font-family="Helvetica,sans-Serif" font-size="10.00">console_print</text>
</a>
</g>
</g>
<!-- Node6&#45;&gt;Node7 -->
<g id="edge6_Node000006_Node000007" class="edge">
<title>Node6&#45;&gt;Node7</title>
<g id="a_edge6_Node000006_Node000007"><a xlink:title=" ">
<path fill="none" stroke="#63b8ff" d="M538.05,-113.59C514.86,-125.28 482.52,-141.58 462.17,-151.84"/>
<polygon fill="#63b8ff" stroke="#63b8ff" points="539.7,-116.68 547.05,-109.05 536.55,-110.43 539.7,-116.68"/>
</a>
</g>
</g>
<!-- Node10 -->
<g id="Node000010" class="node">
<title>Node10</title>
<g id="a_Node000010"><a xlink:href="console_8c.html#a47df046791fa999ff0b4c7bd98345708" target="_top" xlink:title="Formatted console output (printf&#45;style).">
<polygon fill="#fff0f0" stroke="red" points="267,-133 181,-133 181,-114 267,-114 267,-133"/>
<text text-anchor="middle" x="224" y="-121" font-family="Helvetica,sans-Serif" font-size="10.00">console_printf</text>
</a>
</g>
</g>
<!-- Node6&#45;&gt;Node10 -->
<g id="edge13_Node000006_Node000010" class="edge">
<title>Node6&#45;&gt;Node10</title>
<g id="a_edge13_Node000006_Node000010"><a xlink:title=" ">
<path fill="none" stroke="#63b8ff" d="M508.43,-96.97C454.97,-95.48 373.27,-95.39 303,-104.5 287.8,-106.47 271.26,-110.26 257.34,-113.93"/>
<polygon fill="#63b8ff" stroke="#63b8ff" points="508.63,-100.48 518.74,-97.29 508.85,-93.48 508.63,-100.48"/>
</a>
</g>
</g>
<!-- Node139 -->
<g id="Node000139" class="node">
<title>Node139</title>
<g id="a_Node000139"><a xlink:href="console_8c.html#af7d9a756757c6f314b35dd045ee7da75" target="_top" xlink:title="Print an unsigned 64&#45;bit value as 0x&#45;prefixed 16&#45;digit hex.">
<polygon fill="white" stroke="#666666" points="365,-133 303,-133 303,-114 365,-114 365,-133"/>
<text text-anchor="middle" x="334" y="-121" font-family="Helvetica,sans-Serif" font-size="10.00">print_hex</text>
</a>
</g>
</g>
<!-- Node6&#45;&gt;Node139 -->
<g id="edge14_Node000006_Node000139" class="edge">
<title>Node6&#45;&gt;Node139</title>
<g id="a_edge14_Node000006_Node000139"><a xlink:title=" ">
<path fill="none" stroke="#63b8ff" d="M508.95,-105.43C463.41,-110.16 401.43,-116.6 365.07,-120.38"/>
<polygon fill="#63b8ff" stroke="#63b8ff" points="509.39,-108.9 518.98,-104.39 508.67,-101.94 509.39,-108.9"/>
</a>
</g>
</g>
<!-- Node152 -->
<g id="Node000152" class="node">
<title>Node152</title>
<g id="a_Node000152"><a xlink:href="console_8c.html#adbd2807fced4cf063269c95e8302395c" target="_top" xlink:title="Print a signed decimal integer.">
<polygon fill="white" stroke="#666666" points="362.5,-57 305.5,-57 305.5,-38 362.5,-38 362.5,-57"/>
<text text-anchor="middle" x="334" y="-45" font-family="Helvetica,sans-Serif" font-size="10.00">print_int</text>
</a>
</g>
</g>
<!-- Node6&#45;&gt;Node152 -->
<g id="edge15_Node000006_Node000152" class="edge">
<title>Node6&#45;&gt;Node152</title>
<g id="a_edge15_Node000006_Node000152"><a xlink:title=" ">
<path fill="none" stroke="#63b8ff" d="M531.52,-86.45C516.74,-81.23 499.19,-75.51 483,-71.5 441.57,-61.23 392.48,-54.27 362.55,-50.59"/>
<polygon fill="#63b8ff" stroke="#63b8ff" points="530.66,-89.86 541.26,-89.96 533.04,-83.28 530.66,-89.86"/>
</a>
</g>
</g>
<!-- Node153 -->
<g id="Node000153" class="node">
<title>Node153</title>
<g id="a_Node000153"><a xlink:href="console_8c.html#a3b2edafdfe0a05ed0b8a08bf175c5857" target="_top" xlink:title="Print an unsigned 64&#45;bit decimal integer.">
<polygon fill="white" stroke="#666666" points="473.5,-19 410.5,-19 410.5,0 473.5,0 473.5,-19"/>
<text text-anchor="middle" x="442" y="-7" font-family="Helvetica,sans-Serif" font-size="10.00">print_uint</text>
</a>
</g>
</g>
<!-- Node6&#45;&gt;Node153 -->
<g id="edge17_Node000006_Node000153" class="edge">
<title>Node6&#45;&gt;Node153</title>
<g id="a_edge17_Node000006_Node000153"><a xlink:title=" ">
<path fill="none" stroke="#63b8ff" d="M547.01,-83.22C530.53,-69.38 505.81,-49.31 483,-33.5 475.68,-28.43 467.26,-23.28 460.05,-19.06"/>
<polygon fill="#63b8ff" stroke="#63b8ff" points="544.92,-86.04 554.82,-89.83 549.45,-80.69 544.92,-86.04"/>
</a>
</g>
</g>
<!-- Node7&#45;&gt;Node3 -->
<g id="edge10_Node000007_Node000003" class="edge">
<title>Node7&#45;&gt;Node3</title>
<g id="a_edge10_Node000007_Node000003"><a xlink:title=" ">
<path fill="none" stroke="#63b8ff" d="M390.55,-165.99C321.86,-172.1 201.07,-182.84 145.07,-187.83"/>
<polygon fill="#63b8ff" stroke="#63b8ff" points="391.05,-169.46 400.7,-165.09 390.43,-162.48 391.05,-169.46"/>
</a>
</g>
</g>
<!-- Node7&#45;&gt;Node10 -->
<g id="edge7_Node000007_Node000010" class="edge">
<title>Node7&#45;&gt;Node10</title>
<g id="a_edge7_Node000007_Node000010"><a xlink:title=" ">
<path fill="none" stroke="#63b8ff" d="M390.87,-155.85C364.59,-152.57 331.94,-148 303,-142.5 289.17,-139.87 274.11,-136.36 260.95,-133.07"/>
<polygon fill="#63b8ff" stroke="#63b8ff" points="390.62,-159.34 400.97,-157.08 391.47,-152.4 390.62,-159.34"/>
</a>
</g>
</g>
<!-- Node7&#45;&gt;Node139 -->
<g id="edge11_Node000007_Node000139" class="edge">
<title>Node7&#45;&gt;Node139</title>
<g id="a_edge11_Node000007_Node000139"><a xlink:title=" ">
<path fill="none" stroke="#63b8ff" d="M404.82,-148.53C390.69,-143.47 374.79,-137.77 361.74,-133.09"/>
<polygon fill="#63b8ff" stroke="#63b8ff" points="403.66,-151.83 414.25,-151.91 406.02,-145.24 403.66,-151.83"/>
</a>
</g>
</g>
<!-- Node10&#45;&gt;Node3 -->
<g id="edge8_Node000010_Node000003" class="edge">
<title>Node10&#45;&gt;Node3</title>
<g id="a_edge8_Node000010_Node000003"><a xlink:title=" ">
<path fill="none" stroke="#63b8ff" d="M198.88,-138.46C177.96,-151.44 148.32,-169.83 130.45,-180.92"/>
<polygon fill="#63b8ff" stroke="#63b8ff" points="200.87,-141.35 207.53,-133.1 197.18,-135.4 200.87,-141.35"/>
</a>
</g>
</g>
<!-- Node10&#45;&gt;Node4 -->
<g id="edge9_Node000010_Node000004" class="edge">
<title>Node10&#45;&gt;Node4</title>
<g id="a_edge9_Node000010_Node000004"><a xlink:title=" ">
<path fill="none" stroke="#63b8ff" d="M170.99,-131.1C130.77,-136.97 77.05,-144.82 47.11,-149.2"/>
<polygon fill="#63b8ff" stroke="#63b8ff" points="171.51,-134.56 180.9,-129.65 170.5,-127.63 171.51,-134.56"/>
</a>
</g>
</g>
<!-- Node139&#45;&gt;Node10 -->
<g id="edge12_Node000139_Node000010" class="edge">
<title>Node139&#45;&gt;Node10</title>
<g id="a_edge12_Node000139_Node000010"><a xlink:title=" ">
<path fill="none" stroke="#63b8ff" d="M292.64,-123.5C284.28,-123.5 275.45,-123.5 267.03,-123.5"/>
<polygon fill="#63b8ff" stroke="#63b8ff" points="292.92,-127 302.92,-123.5 292.92,-120 292.92,-127"/>
</a>
</g>
</g>
<!-- Node152&#45;&gt;Node10 -->
<g id="edge16_Node000152_Node000010" class="edge">
<title>Node152&#45;&gt;Node10</title>
<g id="a_edge16_Node000152_Node000010"><a xlink:title=" ">
<path fill="none" stroke="#63b8ff" d="M311.03,-62.96C289.31,-78.25 256.77,-101.14 238.57,-113.95"/>
<polygon fill="#63b8ff" stroke="#63b8ff" points="313.16,-65.74 319.32,-57.13 309.13,-60.02 313.16,-65.74"/>
</a>
</g>
</g>
<!-- Node153&#45;&gt;Node10 -->
<g id="edge18_Node000153_Node000010" class="edge">
<title>Node153&#45;&gt;Node10</title>
<g id="a_edge18_Node000153_Node000010"><a xlink:title=" ">
<path fill="none" stroke="#63b8ff" d="M400.32,-7.48C371.45,-7.79 332.7,-11.88 303,-28.5 266.31,-49.03 239.9,-94.22 229.67,-113.96"/>
<polygon fill="#63b8ff" stroke="#63b8ff" points="400.46,-10.98 410.47,-7.52 400.49,-3.98 400.46,-10.98"/>
</a>
</g>
</g>
</g>
</svg>
