<?xml version="1.0" encoding="UTF-8" standalone="no"?>
<!DOCTYPE svg PUBLIC "-//W3C//DTD SVG 1.1//EN"
 "http://www.w3.org/Graphics/SVG/1.1/DTD/svg11.dtd">
<!-- Generated by graphviz version 2.43.0 (0)
 -->
<!-- Title: diag_expected_after Pages: 1 -->
<!--zoomable 321 -->

<svg id="main" version="1.1" xmlns="http://www.w3.org/2000/svg" xmlns:xlink="http://www.w3.org/1999/xlink" xml:space="preserve" onload="init(evt)">
<style type="text/css"><![CDATA[
.node, .edge {opacity: 0.7;}
.node.selected, .edge.selected {opacity: 1;}
.edge:hover path { stroke: red; }
.edge:hover polygon { stroke: red; fill: red; }
]]></style>

<defs>
  <circle id="rim" cx="0" cy="0" r="7"/>
  <circle id="rim2" cx="0" cy="0" r="3.5"/>
  <g id="zoomPlus">
    <use xlink:href="#rim" fill="#404040"><set attributeName="fill" to="#808080" begin="zoomplus.mouseover" end="zoomplus.mouseout"/></use>
    <path d="M-4,0h8M0,-4v8" fill="none" stroke="white" stroke-width="1.5" pointer-events="none"/>
  </g>
  <g id="zoomMin">
    <use xlink:href="#rim" fill="#404040"><set attributeName="fill" to="#808080" begin="zoomminus.mouseover" end="zoomminus.mouseout"/></use>
    <path d="M-4,0h8" fill="none" stroke="white" stroke-width="1.5" pointer-events="none"/>
  </g>
  <g id="arrowUp" transform="translate(30 24)">
    <use xlink:href="#rim"/>
    <path pointer-events="none" fill="none" stroke="white" stroke-width="1.5" d="M0,-3.0v7 M-2.5,-0.5L0,-3.0L2.5,-0.5"/>
  </g>
  <g id="arrowRight" transform="rotate(90) translate(36 -43)">
    <use xlink:href="#rim"/>
    <path pointer-events="none" fill="none" stroke="white" stroke-width="1.5" d="M0,-3.0v7 M-2.5,-0.5L0,-3.0L2.5,-0.5"/>
  </g>
  <g id="arrowDown" transform="rotate(180) translate(-30 -48)">
    <use xlink:href="#rim"/>
    <path pointer-events="none" fill="none" stroke="white" stroke-width="1.5" d="M0,-3.0v7 M-2.5,-0.5L0,-3.0L2.5,-0.5"/>
  </g>
  <g id="arrowLeft" transform="rotate(270) translate(-36 17)">
    <use xlink:href="#rim"/>
    <path pointer-events="none" fill="none" stroke="white" stroke-width="1.5" d="M0,-3.0v7 M-2.5,-0.5L0,-3.0L2.5,-0.5"/>
  </g>
  <g id="resetDef">
    <use xlink:href="#rim2" fill="#404040"><set attributeName="fill" to="#808080" begin="reset.mouseover" end="reset.mouseout"/></use>
  </g>
</defs>
<script type="application/ecmascript">
var viewWidth = 856;
var viewHeight = 321;
var sectionId = 'dynsection-2';
</script>
<script type="application/ecmascript" xlink:href="svg.min.js"/>
<svg id="graph" class="graph">
<g id="viewport">
<title>diag_expected_after</title>
<!-- Node1 -->
<g id="Node000001" class="node">
<title>Node1</title>
<g id="a_Node000001"><a xlink:title=" ">
<polygon fill="#999999" stroke="#666666" points="848,-142.5 732,-142.5 732,-123.5 848,-123.5 848,-142.5"/>
<text text-anchor="middle" x="790" y="-130.5" font-family="Helvetica,sans-Serif" font-size="10.00">diag_expected_after</text>
</a>
</g>
</g>
<!-- Node2 -->
<g id="Node000002" class="node">
<title>Node2</title>
<g id="a_Node000002"><a xlink:href="core_2vega_2parse_8c.html#a24f34aac8be89baba9f81f4669552b8f" target="_top" xlink:title=" ">
<polygon fill="white" stroke="#666666" points="696,-142.5 614,-142.5 614,-123.5 696,-123.5 696,-142.5"/>
<text text-anchor="middle" x="655" y="-130.5" font-family="Helvetica,sans-Serif" font-size="10.00">parse_and_or</text>
</a>
</g>
</g>
<!-- Node1&#45;&gt;Node2 -->
<g id="edge1_Node000001_Node000002" class="edge">
<title>Node1&#45;&gt;Node2</title>
<g id="a_edge1_Node000001_Node000002"><a xlink:title=" ">
<path fill="none" stroke="#63b8ff" d="M721.66,-133C712.98,-133 704.33,-133 696.28,-133"/>
<polygon fill="#63b8ff" stroke="#63b8ff" points="721.82,-136.5 731.82,-133 721.82,-129.5 721.82,-136.5"/>
</a>
</g>
</g>
<!-- Node3 -->
<g id="Node000003" class="node">
<title>Node3</title>
<g id="a_Node000003"><a xlink:href="core_2vega_2parse_8c.html#a56e786533d4f52b9b9c4013b71cb224a" target="_top" xlink:title=" ">
<polygon fill="white" stroke="#666666" points="293.5,-217.5 237.5,-217.5 237.5,-198.5 293.5,-198.5 293.5,-217.5"/>
<text text-anchor="middle" x="265.5" y="-205.5" font-family="Helvetica,sans-Serif" font-size="10.00">parse_if</text>
</a>
</g>
</g>
<!-- Node1&#45;&gt;Node3 -->
<g id="edge16_Node000001_Node000003" class="edge">
<title>Node1&#45;&gt;Node3</title>
<g id="a_edge16_Node000001_Node000003"><a xlink:title=" ">
<path fill="none" stroke="#63b8ff" d="M754.88,-146.15C693.72,-168.76 560.9,-213.61 444,-224 397.52,-228.13 385.39,-229.06 339,-224 323.88,-222.35 307.29,-218.82 293.81,-215.5"/>
<polygon fill="#63b8ff" stroke="#63b8ff" points="756.27,-149.36 764.41,-142.58 753.82,-142.81 756.27,-149.36"/>
</a>
</g>
</g>
<!-- Node5 -->
<g id="Node000005" class="node">
<title>Node5</title>
<g id="a_Node000005"><a xlink:href="core_2vega_2parse_8c.html#aec2969ee30e6e008c5dbd817c66770ad" target="_top" xlink:title=" ">
<polygon fill="white" stroke="#666666" points="88,-85.5 0,-85.5 0,-66.5 88,-66.5 88,-85.5"/>
<text text-anchor="middle" x="44" y="-73.5" font-family="Helvetica,sans-Serif" font-size="10.00">parse_pipeline</text>
</a>
</g>
</g>
<!-- Node1&#45;&gt;Node5 -->
<g id="edge17_Node000001_Node000005" class="edge">
<title>Node1&#45;&gt;Node5</title>
<g id="a_edge17_Node000001_Node000005"><a xlink:title=" ">
<path fill="none" stroke="#63b8ff" d="M771.63,-116.58C732.1,-81.01 630.99,0 530,0 530,0 530,0 264.5,0 184.25,0 96.13,-45.92 60.86,-66.37"/>
<polygon fill="#63b8ff" stroke="#63b8ff" points="769.37,-119.26 779.11,-123.43 774.1,-114.1 769.37,-119.26"/>
</a>
</g>
</g>
<!-- Node10 -->
<g id="Node000010" class="node">
<title>Node10</title>
<g id="a_Node000010"><a xlink:href="core_2vega_2parse_8c.html#acd97c7ea67e9c6549e462a92ba006cb6" target="_top" xlink:title=" ">
<polygon fill="white" stroke="#666666" points="303,-142.5 228,-142.5 228,-123.5 303,-123.5 303,-142.5"/>
<text text-anchor="middle" x="265.5" y="-130.5" font-family="Helvetica,sans-Serif" font-size="10.00">parse_while</text>
</a>
</g>
</g>
<!-- Node1&#45;&gt;Node10 -->
<g id="edge18_Node000001_Node000010" class="edge">
<title>Node1&#45;&gt;Node10</title>
<g id="a_edge18_Node000001_Node000010"><a xlink:title=" ">
<path fill="none" stroke="#63b8ff" d="M741.07,-121.29C726.68,-118.29 710.78,-115.49 696,-114 551.01,-99.34 377.34,-118.09 303.09,-127.82"/>
<polygon fill="#63b8ff" stroke="#63b8ff" points="740.74,-124.8 751.26,-123.49 742.22,-117.96 740.74,-124.8"/>
</a>
</g>
</g>
<!-- Node32 -->
<g id="Node000032" class="node">
<title>Node32</title>
<g id="a_Node000032"><a xlink:href="core_2vega_2parse_8c.html#af11d1e381b4ab40b77eb1a695e0b1eab" target="_top" xlink:title=" ">
<polygon fill="white" stroke="#666666" points="578,-312.5 480,-312.5 480,-293.5 578,-293.5 578,-312.5"/>
<text text-anchor="middle" x="529" y="-300.5" font-family="Helvetica,sans-Serif" font-size="10.00">parse_command</text>
</a>
</g>
</g>
<!-- Node1&#45;&gt;Node32 -->
<g id="edge14_Node000001_Node000032" class="edge">
<title>Node1&#45;&gt;Node32</title>
<g id="a_edge14_Node000001_Node000032"><a xlink:title=" ">
<path fill="none" stroke="#63b8ff" d="M782.8,-152.06C771.3,-184.13 743.4,-248.38 696,-279 661.02,-301.6 613.33,-306.44 578.03,-306.31"/>
<polygon fill="#63b8ff" stroke="#63b8ff" points="786.15,-153.1 786.08,-142.51 779.52,-150.83 786.15,-153.1"/>
</a>
</g>
</g>
<!-- Node2&#45;&gt;Node3 -->
<g id="edge2_Node000002_Node000003" class="edge">
<title>Node2&#45;&gt;Node3</title>
<g id="a_edge2_Node000002_Node000003"><a xlink:title=" ">
<path fill="none" stroke="#63b8ff" d="M627.34,-147.47C613,-154.87 594.84,-163.64 578,-170 520.2,-191.84 505.2,-198.53 444,-207 391.19,-214.31 328.7,-212.2 293.72,-210.06"/>
<polygon fill="#63b8ff" stroke="#63b8ff" points="629.37,-150.36 636.59,-142.61 626.11,-144.16 629.37,-150.36"/>
</a>
</g>
</g>
<!-- Node6 -->
<g id="Node000006" class="node">
<title>Node6</title>
<g id="a_Node000006"><a xlink:href="core_2vega_2parse_8c.html#a39c2363ce6301b51c1dc201986050d62" target="_top" xlink:title=" ">
<polygon fill="white" stroke="#666666" points="561,-161.5 497,-161.5 497,-142.5 561,-142.5 561,-161.5"/>
<text text-anchor="middle" x="529" y="-149.5" font-family="Helvetica,sans-Serif" font-size="10.00">parse_list</text>
</a>
</g>
</g>
<!-- Node2&#45;&gt;Node6 -->
<g id="edge7_Node000002_Node000006" class="edge">
<title>Node2&#45;&gt;Node6</title>
<g id="a_edge7_Node000002_Node000006"><a xlink:title=" ">
<path fill="none" stroke="#63b8ff" d="M603.47,-140.74C589.09,-142.95 573.87,-145.28 561.02,-147.25"/>
<polygon fill="#63b8ff" stroke="#63b8ff" points="604.39,-144.14 613.74,-139.17 603.33,-137.22 604.39,-144.14"/>
</a>
</g>
</g>
<!-- Node2&#45;&gt;Node10 -->
<g id="edge13_Node000002_Node000010" class="edge">
<title>Node2&#45;&gt;Node10</title>
<g id="a_edge13_Node000002_Node000010"><a xlink:title=" ">
<path fill="none" stroke="#63b8ff" d="M603.79,-133C524.68,-133 372.88,-133 303.16,-133"/>
<polygon fill="#63b8ff" stroke="#63b8ff" points="603.99,-136.5 613.99,-133 603.99,-129.5 603.99,-136.5"/>
</a>
</g>
</g>
<!-- Node3&#45;&gt;Node3 -->
<g id="edge3_Node000003_Node000003" class="edge">
<title>Node3&#45;&gt;Node3</title>
<g id="a_edge3_Node000003_Node000003"><a xlink:title=" ">
<path fill="none" stroke="#63b8ff" d="M285.13,-227.05C283.82,-231.88 277.27,-235.5 265.5,-235.5 246.66,-235.5 241.21,-226.23 249.16,-217.58"/>
<polygon fill="#63b8ff" stroke="#63b8ff" points="288.43,-225.88 281.84,-217.58 281.81,-228.18 288.43,-225.88"/>
</a>
</g>
</g>
<!-- Node4 -->
<g id="Node000004" class="node">
<title>Node4</title>
<g id="a_Node000004"><a xlink:href="core_2vega_2parse_8c.html#a7ab921730b4c53cdbc22ae1072900c6d" target="_top" xlink:title=" ">
<polygon fill="white" stroke="#666666" points="192,-142.5 124,-142.5 124,-123.5 192,-123.5 192,-142.5"/>
<text text-anchor="middle" x="158" y="-130.5" font-family="Helvetica,sans-Serif" font-size="10.00">parse_unit</text>
</a>
</g>
</g>
<!-- Node3&#45;&gt;Node4 -->
<g id="edge4_Node000003_Node000004" class="edge">
<title>Node3&#45;&gt;Node4</title>
<g id="a_edge4_Node000003_Node000004"><a xlink:title=" ">
<path fill="none" stroke="#63b8ff" d="M242.33,-192.24C221.21,-177.22 190.08,-155.1 172.46,-142.57"/>
<polygon fill="#63b8ff" stroke="#63b8ff" points="240.53,-195.25 250.71,-198.2 244.59,-189.55 240.53,-195.25"/>
</a>
</g>
</g>
<!-- Node4&#45;&gt;Node5 -->
<g id="edge5_Node000004_Node000005" class="edge">
<title>Node4&#45;&gt;Node5</title>
<g id="a_edge5_Node000004_Node000005"><a xlink:title=" ">
<path fill="none" stroke="#63b8ff" d="M129.14,-118.82C108.77,-108.45 81.68,-94.67 63.81,-85.57"/>
<polygon fill="#63b8ff" stroke="#63b8ff" points="127.75,-122.04 138.25,-123.46 130.93,-115.8 127.75,-122.04"/>
</a>
</g>
</g>
<!-- Node5&#45;&gt;Node2 -->
<g id="edge6_Node000005_Node000002" class="edge">
<title>Node5&#45;&gt;Node2</title>
<g id="a_edge6_Node000005_Node000002"><a xlink:title=" ">
<path fill="none" stroke="#63b8ff" d="M98.59,-76C143.04,-76 207.88,-76 264.5,-76 392.5,-76 392.5,-76 392.5,-76 436.53,-76 558.66,-107.23 619.14,-123.46"/>
<polygon fill="#63b8ff" stroke="#63b8ff" points="98.31,-72.5 88.31,-76 98.31,-79.5 98.31,-72.5"/>
</a>
</g>
</g>
<!-- Node7 -->
<g id="Node000007" class="node">
<title>Node7</title>
<g id="a_Node000007"><a xlink:href="core_2vega_2parse_8c.html#a68174f6d7228992098025e21a088e734" target="_top" xlink:title=" ">
<polygon fill="#fff0f0" stroke="red" points="444,-198.5 339,-198.5 339,-179.5 444,-179.5 444,-198.5"/>
<text text-anchor="middle" x="391.5" y="-186.5" font-family="Helvetica,sans-Serif" font-size="10.00">parse_brace_body</text>
</a>
</g>
</g>
<!-- Node6&#45;&gt;Node7 -->
<g id="edge8_Node000006_Node000007" class="edge">
<title>Node6&#45;&gt;Node7</title>
<g id="a_edge8_Node000006_Node000007"><a xlink:title=" ">
<path fill="none" stroke="#63b8ff" d="M487.08,-163.17C468.16,-168.34 445.91,-174.42 427.74,-179.38"/>
<polygon fill="#63b8ff" stroke="#63b8ff" points="488.19,-166.5 496.91,-160.49 486.34,-159.75 488.19,-166.5"/>
</a>
</g>
</g>
<!-- Node11 -->
<g id="Node000011" class="node">
<title>Node11</title>
<g id="a_Node000011"><a xlink:href="core_2vega_2parse_8c.html#a37fb9f6bddc87aa3381e31f183663b88" target="_top" xlink:title="Parse line into an AST.">
<polygon fill="#fff0f0" stroke="red" points="428,-161.5 355,-161.5 355,-142.5 428,-142.5 428,-161.5"/>
<text text-anchor="middle" x="391.5" y="-149.5" font-family="Helvetica,sans-Serif" font-size="10.00">vega_parse</text>
</a>
</g>
</g>
<!-- Node6&#45;&gt;Node11 -->
<g id="edge12_Node000006_Node000011" class="edge">
<title>Node6&#45;&gt;Node11</title>
<g id="a_edge12_Node000006_Node000011"><a xlink:title=" ">
<path fill="none" stroke="#63b8ff" d="M486.9,-152C468.18,-152 446.24,-152 428.23,-152"/>
<polygon fill="#63b8ff" stroke="#63b8ff" points="486.91,-155.5 496.91,-152 486.91,-148.5 486.91,-155.5"/>
</a>
</g>
</g>
<!-- Node7&#45;&gt;Node3 -->
<g id="edge9_Node000007_Node000003" class="edge">
<title>Node7&#45;&gt;Node3</title>
<g id="a_edge9_Node000007_Node000003"><a xlink:title=" ">
<path fill="none" stroke="#63b8ff" d="M329.05,-198.42C316.61,-200.32 304.13,-202.23 293.63,-203.84"/>
<polygon fill="#63b8ff" stroke="#63b8ff" points="329.64,-201.87 338.99,-196.89 328.58,-194.95 329.64,-201.87"/>
</a>
</g>
</g>
<!-- Node7&#45;&gt;Node10 -->
<g id="edge10_Node000007_Node000010" class="edge">
<title>Node7&#45;&gt;Node10</title>
<g id="a_edge10_Node000007_Node000010"><a xlink:title=" ">
<path fill="none" stroke="#63b8ff" d="M353.06,-175.78C348.3,-173.93 343.51,-171.97 339,-170 319.71,-161.56 298.32,-150.41 283.8,-142.56"/>
<polygon fill="#63b8ff" stroke="#63b8ff" points="352.14,-179.17 362.73,-179.44 354.62,-172.63 352.14,-179.17"/>
</a>
</g>
</g>
<!-- Node10&#45;&gt;Node4 -->
<g id="edge11_Node000010_Node000004" class="edge">
<title>Node10&#45;&gt;Node4</title>
<g id="a_edge11_Node000010_Node000004"><a xlink:title=" ">
<path fill="none" stroke="#63b8ff" d="M217.84,-133C209.13,-133 200.2,-133 192.01,-133"/>
<polygon fill="#63b8ff" stroke="#63b8ff" points="217.9,-136.5 227.9,-133 217.9,-129.5 217.9,-136.5"/>
</a>
</g>
</g>
<!-- Node32&#45;&gt;Node4 -->
<g id="edge15_Node000032_Node000004" class="edge">
<title>Node32&#45;&gt;Node4</title>
<g id="a_edge15_Node000032_Node000004"><a xlink:title=" ">
<path fill="none" stroke="#63b8ff" d="M469.62,-306.28C404.13,-306.88 297.95,-298.3 228,-244 192.15,-216.17 170.2,-164.08 162.31,-142.62"/>
<polygon fill="#63b8ff" stroke="#63b8ff" points="469.83,-309.77 479.77,-306.1 469.71,-302.77 469.83,-309.77"/>
</a>
</g>
</g>
</g>
</svg>

<g id="navigator" transform="translate(0 0)" fill="#404254">
  <rect fill="#f2f5e9" fill-opacity="0.5" stroke="#606060" stroke-width=".5" x="0" y="0" width="60" height="60"/>
  <use id="zoomplus" xlink:href="#zoomPlus" x="17" y="9" onmousedown="handleZoom(evt,'in')"/>
  <use id="zoomminus" xlink:href="#zoomMin" x="42" y="9" onmousedown="handleZoom(evt,'out')"/>
  <use id="reset" xlink:href="#resetDef" x="30" y="36" onmousedown="handleReset()"/>
   <use id="arrowup" xlink:href="#arrowUp" x="0" y="0" onmousedown="handlePan(0,-1)"/>
  <use id="arrowright" xlink:href="#arrowRight" x="0" y="0" onmousedown="handlePan(1,0)"/>
  <use id="arrowdown" xlink:href="#arrowDown" x="0" y="0" onmousedown="handlePan(0,1)"/>
  <use id="arrowleft" xlink:href="#arrowLeft" x="0" y="0" onmousedown="handlePan(-1,0)"/>
</g>
<svg viewBox="0 0 15 15" width="100%" height="30px" preserveAspectRatio="xMaxYMin meet">
 <g id="arrow_out" transform="scale(0.3 0.3)">
  <a xlink:href="core_2vega_2parse_8c_aff2f216010f09e97a4d1831e7638d7cc_icgraph_org.svg" target="_base">
   <rect id="button" ry="5" rx="5" y="6" x="6" height="38" width="38"
        fill="#f2f5e9" fill-opacity="0.5" stroke="#606060" stroke-width="1.0"/>
   <path id="arrow"
     d="M 11.500037,31.436501 C 11.940474,20.09759 22.043105,11.32322 32.158766,21.979434 L 37.068811,17.246167 C 37.068811,17.246167 37.088388,32 37.088388,32 L 22.160133,31.978069 C 22.160133,31.978069 26.997745,27.140456 26.997745,27.140456 C 18.528582,18.264221 13.291696,25.230495 11.500037,31.436501 z"
     style="fill:#404040;"/>
  </a>
 </g>
</svg>

<style type='text/css'>
<![CDATA[
[data-mouse-over-selected='false'] { opacity: 0.7; }
[data-mouse-over-selected='true']  { opacity: 1.0; }
]]>
</style>
<script type="application/ecmascript"><![CDATA[
document.addEventListener('DOMContentLoaded', (event) => {
  highlightEdges();
  highlightAdjacentNodes();
});
]]></script>
</svg>
