<?xml version="1.0" encoding="UTF-8" standalone="no"?>
<!DOCTYPE svg PUBLIC "-//W3C//DTD SVG 1.1//EN"
 "http://www.w3.org/Graphics/SVG/1.1/DTD/svg11.dtd">
<!-- Generated by graphviz version 2.43.0 (0)
 -->
<!-- Title: mkdir_seed_first_block Pages: 1 -->
<svg width="566pt" height="279pt"
 viewBox="0.00 0.00 566.00 279.00" xmlns="http://www.w3.org/2000/svg" xmlns:xlink="http://www.w3.org/1999/xlink">
<g id="graph0" class="graph" transform="scale(1 1) rotate(0) translate(4 275)">
<title>mkdir_seed_first_block</title>
<!-- Node1 -->
<g id="Node000001" class="node">
<title>Node1</title>
<g id="a_Node000001"><a xlink:title="Allocate the first data block, seed it with ./.., persist it, and wire it into inode.">
<polygon fill="#999999" stroke="#666666" points="129,-114 0,-114 0,-95 129,-95 129,-114"/>
<text text-anchor="middle" x="64.5" y="-102" font-family="Helvetica,sans-Serif" font-size="10.00">mkdir_seed_first_block</text>
</a>
</g>
</g>
<!-- Node2 -->
<g id="Node000002" class="node">
<title>Node2</title>
<g id="a_Node000002"><a xlink:href="alloc_8c.html#ad132e225f76cc34a8971d2fcd30e55b8" target="_top" xlink:title="Allocate a free block, preferring preferred_group.">
<polygon fill="white" stroke="#666666" points="249.5,-171 178.5,-171 178.5,-152 249.5,-152 249.5,-171"/>
<text text-anchor="middle" x="214" y="-159" font-family="Helvetica,sans-Serif" font-size="10.00">alloc_block</text>
</a>
</g>
</g>
<!-- Node1&#45;&gt;Node2 -->
<g id="edge1_Node000001_Node000002" class="edge">
<title>Node1&#45;&gt;Node2</title>
<g id="a_edge1_Node000001_Node000002"><a xlink:title=" ">
<path fill="none" stroke="#63b8ff" d="M90.19,-114.04C114.44,-123.41 151.64,-137.79 178.74,-148.26"/>
<polygon fill="#63b8ff" stroke="#63b8ff" points="177.64,-151.59 188.23,-151.93 180.17,-145.06 177.64,-151.59"/>
</a>
</g>
</g>
<!-- Node6 -->
<g id="Node000006" class="node">
<title>Node6</title>
<g id="a_Node000006"><a xlink:href="heap_8c.html#a069f85a5001d71bc44d8be6532a4e432" target="_top" xlink:title="Free previously allocated memory.">
<polygon fill="#fff0f0" stroke="red" points="527,-234 485,-234 485,-215 527,-215 527,-234"/>
<text text-anchor="middle" x="506" y="-222" font-family="Helvetica,sans-Serif" font-size="10.00">kfree</text>
</a>
</g>
</g>
<!-- Node1&#45;&gt;Node6 -->
<g id="edge15_Node000001_Node000006" class="edge">
<title>Node1&#45;&gt;Node6</title>
<g id="a_edge15_Node000001_Node000006"><a xlink:title=" ">
<path fill="none" stroke="#63b8ff" d="M74.57,-114.18C90.88,-130.89 127.01,-164.86 165,-180.5 272.48,-224.74 413.82,-227.09 474.83,-225.72"/>
<polygon fill="#63b8ff" stroke="#63b8ff" points="475.02,-229.21 484.92,-225.44 474.83,-222.21 475.02,-229.21"/>
</a>
</g>
</g>
<!-- Node20 -->
<g id="Node000020" class="node">
<title>Node20</title>
<g id="a_Node000020"><a xlink:href="heap_8c.html#ad228097e37d00d3d57eae3f5f44bc9eb" target="_top" xlink:title="Allocate memory from kernel heap.">
<polygon fill="#fff0f0" stroke="red" points="534,-123 478,-123 478,-104 534,-104 534,-123"/>
<text text-anchor="middle" x="506" y="-111" font-family="Helvetica,sans-Serif" font-size="10.00">kmalloc</text>
</a>
</g>
</g>
<!-- Node1&#45;&gt;Node20 -->
<g id="edge16_Node000001_Node000020" class="edge">
<title>Node1&#45;&gt;Node20</title>
<g id="a_edge16_Node000001_Node000020"><a xlink:title=" ">
<path fill="none" stroke="#63b8ff" d="M129.19,-107.3C141.09,-107.76 153.42,-108.18 165,-108.5 274.9,-111.52 404.83,-112.79 467.49,-113.26"/>
<polygon fill="#63b8ff" stroke="#63b8ff" points="467.65,-116.76 477.67,-113.33 467.7,-109.76 467.65,-116.76"/>
</a>
</g>
</g>
<!-- Node37 -->
<g id="Node000037" class="node">
<title>Node37</title>
<g id="a_Node000037"><a xlink:href="super_8c.html#a2369a1747e05d7ea520926662b2c7fce" target="_top" xlink:title="Companion of vol_read_block for writes.">
<polygon fill="#fff0f0" stroke="red" points="552.5,-49 459.5,-49 459.5,-30 552.5,-30 552.5,-49"/>
<text text-anchor="middle" x="506" y="-37" font-family="Helvetica,sans-Serif" font-size="10.00">vol_write_block</text>
</a>
</g>
</g>
<!-- Node1&#45;&gt;Node37 -->
<g id="edge19_Node000001_Node000037" class="edge">
<title>Node1&#45;&gt;Node37</title>
<g id="a_edge19_Node000001_Node000037"><a xlink:title=" ">
<path fill="none" stroke="#63b8ff" d="M120.48,-94.97C134.95,-92.5 150.56,-89.87 165,-87.5 224.49,-77.76 239.33,-75.08 299,-66.5 349.69,-59.21 407.51,-51.7 448.96,-46.46"/>
<polygon fill="#63b8ff" stroke="#63b8ff" points="449.65,-49.9 459.14,-45.18 448.78,-42.95 449.65,-49.9"/>
</a>
</g>
</g>
<!-- Node39 -->
<g id="Node000039" class="node">
<title>Node39</title>
<g id="a_Node000039"><a xlink:href="alloc_8c.html#a8cee33622c2b8dee0188a576295a4e74" target="_top" xlink:title="Mark block as free in its owning group&#39;s bitmap.">
<polygon fill="white" stroke="#666666" points="392.5,-95 324.5,-95 324.5,-76 392.5,-76 392.5,-95"/>
<text text-anchor="middle" x="358.5" y="-83" font-family="Helvetica,sans-Serif" font-size="10.00">free_block</text>
</a>
</g>
</g>
<!-- Node1&#45;&gt;Node39 -->
<g id="edge9_Node000001_Node000039" class="edge">
<title>Node1&#45;&gt;Node39</title>
<g id="a_edge9_Node000001_Node000039"><a xlink:title=" ">
<path fill="none" stroke="#63b8ff" d="M129.22,-100.35C185.19,-96.71 265.11,-91.51 314.03,-88.33"/>
<polygon fill="#63b8ff" stroke="#63b8ff" points="314.52,-91.8 324.27,-87.66 314.07,-84.82 314.52,-91.8"/>
</a>
</g>
</g>
<!-- Node41 -->
<g id="Node000041" class="node">
<title>Node41</title>
<g id="a_Node000041"><a xlink:href="dir_8c.html#ac8168e91870d7204651f2225f36f612e" target="_top" xlink:title="Populate block_buf with the . and .. dirents.">
<polygon fill="white" stroke="#666666" points="263,-19 165,-19 165,0 263,0 263,-19"/>
<text text-anchor="middle" x="214" y="-7" font-family="Helvetica,sans-Serif" font-size="10.00">seed_dot_dotdot</text>
</a>
</g>
</g>
<!-- Node1&#45;&gt;Node41 -->
<g id="edge17_Node000001_Node000041" class="edge">
<title>Node1&#45;&gt;Node41</title>
<g id="a_edge17_Node000001_Node000041"><a xlink:title=" ">
<path fill="none" stroke="#63b8ff" d="M77.64,-94.89C95.98,-80.6 132.09,-53.3 165,-33.5 170.66,-30.1 176.86,-26.74 182.88,-23.66"/>
<polygon fill="#63b8ff" stroke="#63b8ff" points="184.67,-26.68 192.07,-19.09 181.55,-20.41 184.67,-26.68"/>
</a>
</g>
</g>
<!-- Node3 -->
<g id="Node000003" class="node">
<title>Node3</title>
<g id="a_Node000003"><a xlink:href="alloc_8c.html#a10b951f10689e7635a7c2695c6e1b795" target="_top" xlink:title="Try to allocate one block inside group.">
<polygon fill="white" stroke="#666666" points="418,-171 299,-171 299,-152 418,-152 418,-171"/>
<text text-anchor="middle" x="358.5" y="-159" font-family="Helvetica,sans-Serif" font-size="10.00">alloc_block_in_group</text>
</a>
</g>
</g>
<!-- Node2&#45;&gt;Node3 -->
<g id="edge2_Node000002_Node000003" class="edge">
<title>Node2&#45;&gt;Node3</title>
<g id="a_edge2_Node000002_Node000003"><a xlink:title=" ">
<path fill="none" stroke="#63b8ff" d="M249.86,-161.5C261.61,-161.5 275.17,-161.5 288.62,-161.5"/>
<polygon fill="#63b8ff" stroke="#63b8ff" points="288.85,-165 298.85,-161.5 288.85,-158 288.85,-165"/>
</a>
</g>
</g>
<!-- Node4 -->
<g id="Node000004" class="node">
<title>Node4</title>
<g id="a_Node000004"><a xlink:href="alloc_8c.html#a2d0514ac6e7fe9a08bb405700cedef38" target="_top" xlink:title="Locate the first clear bit in a bitmap.">
<polygon fill="white" stroke="#666666" points="558,-197 454,-197 454,-178 558,-178 558,-197"/>
<text text-anchor="middle" x="506" y="-185" font-family="Helvetica,sans-Serif" font-size="10.00">bitmap_find_clear</text>
</a>
</g>
</g>
<!-- Node3&#45;&gt;Node4 -->
<g id="edge3_Node000003_Node000004" class="edge">
<title>Node3&#45;&gt;Node4</title>
<g id="a_edge3_Node000003_Node000004"><a xlink:title=" ">
<path fill="none" stroke="#63b8ff" d="M412.85,-171.03C422.83,-172.82 433.33,-174.69 443.53,-176.52"/>
<polygon fill="#63b8ff" stroke="#63b8ff" points="443.13,-180 453.59,-178.31 444.37,-173.11 443.13,-180"/>
</a>
</g>
</g>
<!-- Node5 -->
<g id="Node000005" class="node">
<title>Node5</title>
<g id="a_Node000005"><a xlink:href="alloc_8c.html#a92112ad41af262ed304b3f6385d01899" target="_top" xlink:title="Set bit bit in the bitmap rooted at bitmap.">
<polygon fill="white" stroke="#666666" points="541.5,-271 470.5,-271 470.5,-252 541.5,-252 541.5,-271"/>
<text text-anchor="middle" x="506" y="-259" font-family="Helvetica,sans-Serif" font-size="10.00">bitmap_set</text>
</a>
</g>
</g>
<!-- Node3&#45;&gt;Node5 -->
<g id="edge4_Node000003_Node000005" class="edge">
<title>Node3&#45;&gt;Node5</title>
<g id="a_edge4_Node000003_Node000005"><a xlink:title=" ">
<path fill="none" stroke="#63b8ff" d="M368.24,-171.17C383.92,-188 418.52,-222.85 454,-243.5 456.8,-245.13 459.77,-246.65 462.82,-248.05"/>
<polygon fill="#63b8ff" stroke="#63b8ff" points="461.51,-251.3 472.08,-251.93 464.21,-244.84 461.51,-251.3"/>
</a>
</g>
</g>
<!-- Node3&#45;&gt;Node6 -->
<g id="edge5_Node000003_Node000006" class="edge">
<title>Node3&#45;&gt;Node6</title>
<g id="a_edge5_Node000003_Node000006"><a xlink:title=" ">
<path fill="none" stroke="#63b8ff" d="M378.06,-171.05C396.93,-180.59 427.13,-195.4 454,-206.5 460.76,-209.29 468.14,-212.06 475.12,-214.55"/>
<polygon fill="#63b8ff" stroke="#63b8ff" points="474.36,-217.99 484.96,-217.97 476.66,-211.38 474.36,-217.99"/>
</a>
</g>
</g>
<!-- Node3&#45;&gt;Node20 -->
<g id="edge6_Node000003_Node000020" class="edge">
<title>Node3&#45;&gt;Node20</title>
<g id="a_edge6_Node000003_Node000020"><a xlink:title=" ">
<path fill="none" stroke="#63b8ff" d="M388.59,-151.9C411.48,-144.35 443.52,-133.78 468.19,-125.64"/>
<polygon fill="#63b8ff" stroke="#63b8ff" points="469.52,-128.89 477.92,-122.43 467.33,-122.24 469.52,-128.89"/>
</a>
</g>
</g>
<!-- Node35 -->
<g id="Node000035" class="node">
<title>Node35</title>
<g id="a_Node000035"><a xlink:href="super_8c.html#a0af99b5a1720e9044d8a83f3cbe66d97" target="_top" xlink:title="Read one filesystem block (vol&#45;relative) into buf.">
<polygon fill="#fff0f0" stroke="red" points="551,-160 461,-160 461,-141 551,-141 551,-160"/>
<text text-anchor="middle" x="506" y="-148" font-family="Helvetica,sans-Serif" font-size="10.00">vol_read_block</text>
</a>
</g>
</g>
<!-- Node3&#45;&gt;Node35 -->
<g id="edge7_Node000003_Node000035" class="edge">
<title>Node3&#45;&gt;Node35</title>
<g id="a_edge7_Node000003_Node000035"><a xlink:title=" ">
<path fill="none" stroke="#63b8ff" d="M418.26,-157.06C429.02,-156.24 440.2,-155.4 450.82,-154.6"/>
<polygon fill="#63b8ff" stroke="#63b8ff" points="451.09,-158.09 460.79,-153.84 450.56,-151.11 451.09,-158.09"/>
</a>
</g>
</g>
<!-- Node3&#45;&gt;Node37 -->
<g id="edge8_Node000003_Node000037" class="edge">
<title>Node3&#45;&gt;Node37</title>
<g id="a_edge8_Node000003_Node000037"><a xlink:title=" ">
<path fill="none" stroke="#63b8ff" d="M370.31,-151.85C382.41,-140.84 402.37,-122.1 418,-104.5 435.47,-84.82 432.71,-72.96 454,-57.5 455.88,-56.13 457.88,-54.86 459.95,-53.68"/>
<polygon fill="#63b8ff" stroke="#63b8ff" points="461.93,-56.6 469.37,-49.06 458.85,-50.32 461.93,-56.6"/>
</a>
</g>
</g>
<!-- Node39&#45;&gt;Node6 -->
<g id="edge11_Node000039_Node000006" class="edge">
<title>Node39&#45;&gt;Node6</title>
<g id="a_edge11_Node000039_Node000006"><a xlink:title=" ">
<path fill="none" stroke="#63b8ff" d="M371.2,-95.38C383.73,-106.32 403.72,-124.89 418,-143.5 437.63,-169.09 429.24,-185.84 454,-206.5 460.12,-211.6 467.78,-215.3 475.29,-217.96"/>
<polygon fill="#63b8ff" stroke="#63b8ff" points="474.35,-221.34 484.94,-220.9 476.39,-214.64 474.35,-221.34"/>
</a>
</g>
</g>
<!-- Node39&#45;&gt;Node20 -->
<g id="edge12_Node000039_Node000020" class="edge">
<title>Node39&#45;&gt;Node20</title>
<g id="a_edge12_Node000039_Node000020"><a xlink:title=" ">
<path fill="none" stroke="#63b8ff" d="M392.52,-91.85C415.01,-96.18 444.82,-101.92 468.1,-106.4"/>
<polygon fill="#63b8ff" stroke="#63b8ff" points="467.48,-109.84 477.96,-108.3 468.8,-102.97 467.48,-109.84"/>
</a>
</g>
</g>
<!-- Node39&#45;&gt;Node35 -->
<g id="edge13_Node000039_Node000035" class="edge">
<title>Node39&#45;&gt;Node35</title>
<g id="a_edge13_Node000039_Node000035"><a xlink:title=" ">
<path fill="none" stroke="#63b8ff" d="M377.31,-95.18C396.08,-105.18 426.66,-120.93 454,-132.5 457.94,-134.17 462.09,-135.81 466.26,-137.39"/>
<polygon fill="#63b8ff" stroke="#63b8ff" points="465.31,-140.77 475.91,-140.92 467.72,-134.2 465.31,-140.77"/>
</a>
</g>
</g>
<!-- Node39&#45;&gt;Node37 -->
<g id="edge14_Node000039_Node000037" class="edge">
<title>Node39&#45;&gt;Node37</title>
<g id="a_edge14_Node000039_Node000037"><a xlink:title=" ">
<path fill="none" stroke="#63b8ff" d="M389.65,-75.97C411.5,-69.06 441.26,-59.65 465.09,-52.12"/>
<polygon fill="#63b8ff" stroke="#63b8ff" points="466.41,-55.37 474.89,-49.02 464.3,-48.7 466.41,-55.37"/>
</a>
</g>
</g>
<!-- Node40 -->
<g id="Node000040" class="node">
<title>Node40</title>
<g id="a_Node000040"><a xlink:href="alloc_8c.html#aaf32cc8e8581249543bad140a3d2998a" target="_top" xlink:title="Clear bit bit in the bitmap rooted at bitmap.">
<polygon fill="white" stroke="#666666" points="546,-86 466,-86 466,-67 546,-67 546,-86"/>
<text text-anchor="middle" x="506" y="-74" font-family="Helvetica,sans-Serif" font-size="10.00">bitmap_clear</text>
</a>
</g>
</g>
<!-- Node39&#45;&gt;Node40 -->
<g id="edge10_Node000039_Node000040" class="edge">
<title>Node39&#45;&gt;Node40</title>
<g id="a_edge10_Node000039_Node000040"><a xlink:title=" ">
<path fill="none" stroke="#63b8ff" d="M392.52,-83.46C411.25,-82.3 435.06,-80.83 455.94,-79.53"/>
<polygon fill="#63b8ff" stroke="#63b8ff" points="456.15,-83.03 465.92,-78.92 455.72,-76.04 456.15,-83.03"/>
</a>
</g>
</g>
<!-- Node30 -->
<g id="Node000030" class="node">
<title>Node30</title>
<g id="a_Node000030"><a xlink:href="kstdlib_8c.html#af89a730289a9a2436276d147a8fa5ff1" target="_top" xlink:title="Zero&#45;fill a memory region.">
<polygon fill="white" stroke="#666666" points="380.5,-19 336.5,-19 336.5,0 380.5,0 380.5,-19"/>
<text text-anchor="middle" x="358.5" y="-7" font-family="Helvetica,sans-Serif" font-size="10.00">kzero</text>
</a>
</g>
</g>
<!-- Node41&#45;&gt;Node30 -->
<g id="edge18_Node000041_Node000030" class="edge">
<title>Node41&#45;&gt;Node30</title>
<g id="a_edge18_Node000041_Node000030"><a xlink:title=" ">
<path fill="none" stroke="#63b8ff" d="M263.24,-9.5C284.03,-9.5 307.75,-9.5 326.19,-9.5"/>
<polygon fill="#63b8ff" stroke="#63b8ff" points="326.38,-13 336.38,-9.5 326.38,-6 326.38,-13"/>
</a>
</g>
</g>
</g>
</svg>
