<?xml version="1.0" encoding="UTF-8" standalone="no"?>
<!DOCTYPE svg PUBLIC "-//W3C//DTD SVG 1.1//EN"
 "http://www.w3.org/Graphics/SVG/1.1/DTD/svg11.dtd">
<!-- Generated by graphviz version 2.43.0 (0)
 -->
<!-- Title: commit_cell_at Pages: 1 -->
<svg width="442pt" height="92pt"
 viewBox="0.00 0.00 442.00 92.00" xmlns="http://www.w3.org/2000/svg" xmlns:xlink="http://www.w3.org/1999/xlink">

<svg id="main" version="1.1" xmlns="http://www.w3.org/2000/svg" xmlns:xlink="http://www.w3.org/1999/xlink" xml:space="preserve" onload="init(evt)">
<style type="text/css"><![CDATA[
.node, .edge {opacity: 0.7;}
.node.selected, .edge.selected {opacity: 1;}
.edge:hover path { stroke: red; }
.edge:hover polygon { stroke: red; fill: red; }
]]></style>
<script type="application/ecmascript" xlink:href="svg.min.js"/>
<svg id="graph" class="graph">
<g id="graph0" class="graph" transform="scale(1 1) rotate(0) translate(4 88)">
<title>commit_cell_at</title>
<!-- Node1 -->
<g id="Node000001" class="node">
<title>Node1</title>
<g id="a_Node000001"><a xlink:title="Commit cp with the live SGR state into c and either mark dirty (batch mode) or blit immediately.">
<polygon fill="#999999" stroke="#666666" points="434,-47 342,-47 342,-28 434,-28 434,-47"/>
<text text-anchor="middle" x="388" y="-35" font-family="Helvetica,sans-Serif" font-size="10.00">commit_cell_at</text>
</a>
</g>
</g>
<!-- Node2 -->
<g id="Node000002" class="node">
<title>Node2</title>
<g id="a_Node000002"><a xlink:href="flush_8c.html#a44a71e48febb7915140c21fe215037ec" target="_top" xlink:title="Emit one codepoint at the cell cursor and advance, wrapping or scrolling as needed.">
<polygon fill="white" stroke="#666666" points="306,-47 207,-47 207,-28 306,-28 306,-47"/>
<text text-anchor="middle" x="256.5" y="-35" font-family="Helvetica,sans-Serif" font-size="10.00">put_cp_at_cursor</text>
</a>
</g>
</g>
<!-- Node1&#45;&gt;Node2 -->
<g id="edge1_Node000001_Node000002" class="edge">
<title>Node1&#45;&gt;Node2</title>
<g id="a_edge1_Node000001_Node000002"><a xlink:title=" ">
<path fill="none" stroke="#63b8ff" d="M331.53,-37.5C323.06,-37.5 314.38,-37.5 306.07,-37.5"/>
<polygon fill="#63b8ff" stroke="#63b8ff" points="331.71,-41 341.71,-37.5 331.71,-34 331.71,-41"/>
</a>
</g>
</g>
<!-- Node3 -->
<g id="Node000003" class="node">
<title>Node3</title>
<g id="a_Node000003"><a xlink:href="csi_8c.html#a7db7ffbb34457f15e761ac21391d95f5" target="_top" xlink:title="CSI b (REP) — repeat the last emitted codepoint Pn times.">
<polygon fill="white" stroke="#666666" points="171,-84 104,-84 104,-65 171,-65 171,-84"/>
<text text-anchor="middle" x="137.5" y="-72" font-family="Helvetica,sans-Serif" font-size="10.00">csi_repeat</text>
</a>
</g>
</g>
<!-- Node2&#45;&gt;Node3 -->
<g id="edge2_Node000002_Node000003" class="edge">
<title>Node2&#45;&gt;Node3</title>
<g id="a_edge2_Node000002_Node000003"><a xlink:title=" ">
<path fill="none" stroke="#63b8ff" d="M215.65,-50.1C200.37,-54.93 183.2,-60.37 168.93,-64.88"/>
<polygon fill="#63b8ff" stroke="#63b8ff" points="216.89,-53.38 225.37,-47.03 214.78,-46.71 216.89,-53.38"/>
</a>
</g>
</g>
<!-- Node15 -->
<g id="Node000015" class="node">
<title>Node15</title>
<g id="a_Node000015"><a xlink:href="ansi_8c.html#ae17d9b8bddeae69976a74a6dc8e2202d" target="_top" xlink:title="Emit a single ASCII byte to the cursor, applying DEC ACS translation when the G0 set is the special&#45;g...">
<polygon fill="white" stroke="#666666" points="171,-47 104,-47 104,-28 171,-28 171,-47"/>
<text text-anchor="middle" x="137.5" y="-35" font-family="Helvetica,sans-Serif" font-size="10.00">emit_ascii</text>
</a>
</g>
</g>
<!-- Node2&#45;&gt;Node15 -->
<g id="edge4_Node000002_Node000015" class="edge">
<title>Node2&#45;&gt;Node15</title>
<g id="a_edge4_Node000002_Node000015"><a xlink:title=" ">
<path fill="none" stroke="#63b8ff" d="M196.64,-37.5C187.86,-37.5 179.09,-37.5 171.13,-37.5"/>
<polygon fill="#63b8ff" stroke="#63b8ff" points="196.9,-41 206.9,-37.5 196.9,-34 196.9,-41"/>
</a>
</g>
</g>
<!-- Node16 -->
<g id="Node000016" class="node">
<title>Node16</title>
<g id="a_Node000016"><a xlink:href="ansi_8c.html#a95caeb62a209e7d835114c4b18ef080b" target="_top" xlink:title="Stream one byte through the UTF&#45;8 decoder; emit a codepoint when a sequence completes.">
<polygon fill="#fff0f0" stroke="red" points="65.5,-19 2.5,-19 2.5,0 65.5,0 65.5,-19"/>
<text text-anchor="middle" x="34" y="-7" font-family="Helvetica,sans-Serif" font-size="10.00">feed_utf8</text>
</a>
</g>
</g>
<!-- Node2&#45;&gt;Node16 -->
<g id="edge7_Node000002_Node000016" class="edge">
<title>Node2&#45;&gt;Node16</title>
<g id="a_edge7_Node000002_Node000016"><a xlink:title=" ">
<path fill="none" stroke="#63b8ff" d="M208.73,-25.63C196.52,-22.9 183.32,-20.28 171,-18.5 135.05,-13.3 93.32,-11.1 65.66,-10.17"/>
<polygon fill="#63b8ff" stroke="#63b8ff" points="208.18,-29.09 218.71,-27.92 209.75,-22.27 208.18,-29.09"/>
</a>
</g>
</g>
<!-- Node4 -->
<g id="Node000004" class="node">
<title>Node4</title>
<g id="a_Node000004"><a xlink:href="csi_8c.html#a13481ca709daa8398739bba14a24f240" target="_top" xlink:title="Final&#45;byte dispatcher for the assembled CSI sequence.">
<polygon fill="#fff0f0" stroke="red" points="68,-84 0,-84 0,-65 68,-65 68,-84"/>
<text text-anchor="middle" x="34" y="-72" font-family="Helvetica,sans-Serif" font-size="10.00">handle_csi</text>
</a>
</g>
</g>
<!-- Node3&#45;&gt;Node4 -->
<g id="edge3_Node000003_Node000004" class="edge">
<title>Node3&#45;&gt;Node4</title>
<g id="a_edge3_Node000003_Node000004"><a xlink:title=" ">
<path fill="none" stroke="#63b8ff" d="M93.69,-74.5C85.21,-74.5 76.42,-74.5 68.31,-74.5"/>
<polygon fill="#63b8ff" stroke="#63b8ff" points="93.83,-78 103.83,-74.5 93.83,-71 93.83,-78"/>
</a>
</g>
</g>
<!-- Node15&#45;&gt;Node16 -->
<g id="edge5_Node000015_Node000016" class="edge">
<title>Node15&#45;&gt;Node16</title>
<g id="a_edge5_Node000015_Node000016"><a xlink:title=" ">
<path fill="none" stroke="#63b8ff" d="M94.06,-25.79C84.49,-23.15 74.51,-20.4 65.54,-17.93"/>
<polygon fill="#63b8ff" stroke="#63b8ff" points="93.26,-29.2 103.83,-28.49 95.12,-22.45 93.26,-29.2"/>
</a>
</g>
</g>
<!-- Node16&#45;&gt;Node16 -->
<g id="edge6_Node000016_Node000016" class="edge">
<title>Node16&#45;&gt;Node16</title>
<g id="a_edge6_Node000016_Node000016"><a xlink:title=" ">
<path fill="none" stroke="#63b8ff" d="M52.78,-28.91C51.31,-33.56 45.05,-37 34,-37 15.87,-37 10.63,-27.73 18.28,-19.08"/>
<polygon fill="#63b8ff" stroke="#63b8ff" points="56.04,-27.59 49.72,-19.08 49.35,-29.67 56.04,-27.59"/>
</a>
</g>
</g>
</g>
</svg>
</svg>

<style type='text/css'>
<![CDATA[
[data-mouse-over-selected='false'] { opacity: 0.7; }
[data-mouse-over-selected='true']  { opacity: 1.0; }
]]>
</style>
<script type="application/ecmascript"><![CDATA[
document.addEventListener('DOMContentLoaded', (event) => {
  highlightEdges();
  highlightAdjacentNodes();
});
]]></script>
</svg>
