<?xml version="1.0" encoding="UTF-8" standalone="no"?>
<!DOCTYPE svg PUBLIC "-//W3C//DTD SVG 1.1//EN"
 "http://www.w3.org/Graphics/SVG/1.1/DTD/svg11.dtd">
<!-- Generated by graphviz version 2.43.0 (0)
 -->
<!-- Title: free_entry Pages: 1 -->
<svg width="542pt" height="103pt"
 viewBox="0.00 0.00 542.00 103.00" xmlns="http://www.w3.org/2000/svg" xmlns:xlink="http://www.w3.org/1999/xlink">
<g id="graph0" class="graph" transform="scale(1 1) rotate(0) translate(4 99)">
<title>free_entry</title>
<!-- Node1 -->
<g id="Node000001" class="node">
<title>Node1</title>
<g id="a_Node000001"><a xlink:title=" ">
<polygon fill="#999999" stroke="#666666" points="534,-57 467,-57 467,-38 534,-38 534,-57"/>
<text text-anchor="middle" x="500.5" y="-45" font-family="Helvetica,sans-Serif" font-size="10.00">free_entry</text>
</a>
</g>
</g>
<!-- Node2 -->
<g id="Node000002" class="node">
<title>Node2</title>
<g id="a_Node000002"><a xlink:href="fntab_8c.html#a1df92697cea4c74361d14515422c10ac" target="_top" xlink:title="Insert or replace a function. Takes ownership of name, arg_names (and each string therein) and body.">
<polygon fill="white" stroke="#666666" points="431,-57 369,-57 369,-38 431,-38 431,-57"/>
<text text-anchor="middle" x="400" y="-45" font-family="Helvetica,sans-Serif" font-size="10.00">fntab_set</text>
</a>
</g>
</g>
<!-- Node1&#45;&gt;Node2 -->
<g id="edge1_Node000001_Node000002" class="edge">
<title>Node1&#45;&gt;Node2</title>
<g id="a_edge1_Node000001_Node000002"><a xlink:title=" ">
<path fill="none" stroke="#63b8ff" d="M456.97,-47.5C448.28,-47.5 439.31,-47.5 431.16,-47.5"/>
<polygon fill="#63b8ff" stroke="#63b8ff" points="456.97,-51 466.97,-47.5 456.97,-44 456.97,-51"/>
</a>
</g>
</g>
<!-- Node3 -->
<g id="Node000003" class="node">
<title>Node3</title>
<g id="a_Node000003"><a xlink:href="exec_8c.html#a6f0734bc8531e4020187d8ba193a167c" target="_top" xlink:title="Execute node and return its exit status (0 on success, non&#45;zero on failure, 127 if a command was not ...">
<polygon fill="white" stroke="#666666" points="333,-57 265,-57 265,-38 333,-38 333,-57"/>
<text text-anchor="middle" x="299" y="-45" font-family="Helvetica,sans-Serif" font-size="10.00">vega_exec</text>
</a>
</g>
</g>
<!-- Node2&#45;&gt;Node3 -->
<g id="edge2_Node000002_Node000003" class="edge">
<title>Node2&#45;&gt;Node3</title>
<g id="a_edge2_Node000002_Node000003"><a xlink:title=" ">
<path fill="none" stroke="#63b8ff" d="M358.67,-47.5C350.19,-47.5 341.34,-47.5 333.16,-47.5"/>
<polygon fill="#63b8ff" stroke="#63b8ff" points="358.76,-51 368.76,-47.5 358.76,-44 358.76,-51"/>
</a>
</g>
</g>
<!-- Node3&#45;&gt;Node3 -->
<g id="edge6_Node000003_Node000003" class="edge">
<title>Node3&#45;&gt;Node3</title>
<g id="a_edge6_Node000003_Node000003"><a xlink:title=" ">
<path fill="none" stroke="#63b8ff" d="M317.42,-66.91C315.97,-71.56 309.83,-75 299,-75 281.23,-75 276.09,-65.73 283.59,-57.08"/>
<polygon fill="#63b8ff" stroke="#63b8ff" points="320.68,-65.62 314.41,-57.08 313.99,-67.67 320.68,-65.62"/>
</a>
</g>
</g>
<!-- Node4 -->
<g id="Node000004" class="node">
<title>Node4</title>
<g id="a_Node000004"><a xlink:href="exec_8c.html#af380c909e0c9b94aa47bb10f1e682d9f" target="_top" xlink:title=" ">
<polygon fill="#fff0f0" stroke="red" points="229,-95 150,-95 150,-76 229,-76 229,-95"/>
<text text-anchor="middle" x="189.5" y="-83" font-family="Helvetica,sans-Serif" font-size="10.00">call_function</text>
</a>
</g>
</g>
<!-- Node3&#45;&gt;Node4 -->
<g id="edge3_Node000003_Node000004" class="edge">
<title>Node3&#45;&gt;Node4</title>
<g id="a_edge3_Node000003_Node000004"><a xlink:title=" ">
<path fill="none" stroke="#63b8ff" d="M261.3,-60.47C246.98,-65.53 230.86,-71.23 217.62,-75.91"/>
<polygon fill="#63b8ff" stroke="#63b8ff" points="262.61,-63.72 270.87,-57.09 260.28,-57.12 262.61,-63.72"/>
</a>
</g>
</g>
<!-- Node7 -->
<g id="Node000007" class="node">
<title>Node7</title>
<g id="a_Node000007"><a xlink:href="exec_8c.html#ad8c357e186435f9520d738f6271e9cf9" target="_top" xlink:title=" ">
<polygon fill="#fff0f0" stroke="red" points="114,-76 0,-76 0,-57 114,-57 114,-76"/>
<text text-anchor="middle" x="57" y="-64" font-family="Helvetica,sans-Serif" font-size="10.00">exec_stage_in_child</text>
</a>
</g>
</g>
<!-- Node3&#45;&gt;Node7 -->
<g id="edge5_Node000003_Node000007" class="edge">
<title>Node3&#45;&gt;Node7</title>
<g id="a_edge5_Node000003_Node000007"><a xlink:title=" ">
<path fill="none" stroke="#63b8ff" d="M254.82,-50.92C215.51,-54.03 157.21,-58.65 114.26,-62.05"/>
<polygon fill="#63b8ff" stroke="#63b8ff" points="255.19,-54.4 264.88,-50.12 254.64,-47.42 255.19,-54.4"/>
</a>
</g>
</g>
<!-- Node9 -->
<g id="Node000009" class="node">
<title>Node9</title>
<g id="a_Node000009"><a xlink:href="vega_8c.html#a95d9a07c640e9123954c98285e304307" target="_top" xlink:title="Parse and execute one line of vega input.">
<polygon fill="#fff0f0" stroke="red" points="220.5,-19 158.5,-19 158.5,0 220.5,0 220.5,-19"/>
<text text-anchor="middle" x="189.5" y="-7" font-family="Helvetica,sans-Serif" font-size="10.00">vega_run</text>
</a>
</g>
</g>
<!-- Node3&#45;&gt;Node9 -->
<g id="edge7_Node000003_Node000009" class="edge">
<title>Node3&#45;&gt;Node9</title>
<g id="a_edge7_Node000003_Node000009"><a xlink:title=" ">
<path fill="none" stroke="#63b8ff" d="M261.3,-34.53C246.98,-29.47 230.86,-23.77 217.62,-19.09"/>
<polygon fill="#63b8ff" stroke="#63b8ff" points="260.28,-37.88 270.87,-37.91 262.61,-31.28 260.28,-37.88"/>
</a>
</g>
</g>
<!-- Node4&#45;&gt;Node7 -->
<g id="edge4_Node000004_Node000007" class="edge">
<title>Node4&#45;&gt;Node7</title>
<g id="a_edge4_Node000004_Node000007"><a xlink:title=" ">
<path fill="none" stroke="#63b8ff" d="M139.79,-78.41C131.47,-77.2 122.77,-75.93 114.28,-74.69"/>
<polygon fill="#63b8ff" stroke="#63b8ff" points="139.3,-81.87 149.7,-79.85 140.31,-74.95 139.3,-81.87"/>
</a>
</g>
</g>
</g>
</svg>
