<?xml version="1.0" encoding="UTF-8" standalone="no"?>
<!DOCTYPE svg PUBLIC "-//W3C//DTD SVG 1.1//EN"
 "http://www.w3.org/Graphics/SVG/1.1/DTD/svg11.dtd">
<!-- Generated by graphviz version 2.43.0 (0)
 -->
<!-- Title: gr__errf Pages: 1 -->
<svg width="493pt" height="253pt"
 viewBox="0.00 0.00 493.00 253.00" xmlns="http://www.w3.org/2000/svg" xmlns:xlink="http://www.w3.org/1999/xlink">

<svg id="main" version="1.1" xmlns="http://www.w3.org/2000/svg" xmlns:xlink="http://www.w3.org/1999/xlink" xml:space="preserve" onload="init(evt)">
<style type="text/css"><![CDATA[
.node, .edge {opacity: 0.7;}
.node.selected, .edge.selected {opacity: 1;}
.edge:hover path { stroke: red; }
.edge:hover polygon { stroke: red; fill: red; }
]]></style>
<script type="application/ecmascript" xlink:href="svg.min.js"/>
<svg id="graph" class="graph">
<g id="graph0" class="graph" transform="scale(1 1) rotate(0) translate(4 249)">
<title>gr__errf</title>
<!-- Node1 -->
<g id="Node000001" class="node">
<title>Node1</title>
<g id="a_Node000001"><a xlink:title="Write a formatted diagnostic to buf or fallback stream. Truncates with &quot;...&quot; when buf is too small; f...">
<polygon fill="#999999" stroke="#666666" points="485,-131 431,-131 431,-112 485,-112 485,-131"/>
<text text-anchor="middle" x="458" y="-119" font-family="Helvetica,sans-Serif" font-size="10.00">gr__errf</text>
</a>
</g>
</g>
<!-- Node2 -->
<g id="Node000002" class="node">
<title>Node2</title>
<g id="a_Node000002"><a xlink:href="grendizer_8c.html#aa797faea2bca5a766903925a39cb8257" target="_top" xlink:title="Increment the accumulating counter storage.">
<polygon fill="white" stroke="#666666" points="268,-245 172,-245 172,-226 268,-226 268,-245"/>
<text text-anchor="middle" x="220" y="-233" font-family="Helvetica,sans-Serif" font-size="10.00">gr__apply_count</text>
</a>
</g>
</g>
<!-- Node1&#45;&gt;Node2 -->
<g id="edge1_Node000001_Node000002" class="edge">
<title>Node1&#45;&gt;Node2</title>
<g id="a_edge1_Node000001_Node000002"><a xlink:title=" ">
<path fill="none" stroke="#63b8ff" d="M449.61,-140.32C440.27,-161.41 422.07,-194.82 395,-211.5 356.84,-235.02 305.13,-239.44 268.02,-238.94"/>
<polygon fill="#63b8ff" stroke="#63b8ff" points="452.84,-141.66 453.48,-131.09 446.39,-138.96 452.84,-141.66"/>
</a>
</g>
</g>
<!-- Node3 -->
<g id="Node000003" class="node">
<title>Node3</title>
<g id="a_Node000003"><a xlink:href="grendizer_8c.html#a856ce27279fc9ff59cc800cb6b638444" target="_top" xlink:title="Parse command&#45;line arguments according to spec.">
<polygon fill="white" stroke="#666666" points="136,-188 77,-188 77,-169 136,-169 136,-188"/>
<text text-anchor="middle" x="106.5" y="-176" font-family="Helvetica,sans-Serif" font-size="10.00">gr_parse</text>
</a>
</g>
</g>
<!-- Node1&#45;&gt;Node3 -->
<g id="edge14_Node000001_Node000003" class="edge">
<title>Node1&#45;&gt;Node3</title>
<g id="a_edge14_Node000001_Node000003"><a xlink:title=" ">
<path fill="none" stroke="#63b8ff" d="M433.59,-136.68C422.32,-143.37 408.38,-150.76 395,-155.5 304.85,-187.43 189.18,-184.52 136.26,-180.98"/>
<polygon fill="#63b8ff" stroke="#63b8ff" points="435.66,-139.52 442.35,-131.31 432,-133.55 435.66,-139.52"/>
</a>
</g>
</g>
<!-- Node5 -->
<g id="Node000005" class="node">
<title>Node5</title>
<g id="a_Node000005"><a xlink:href="grendizer_8c.html#ad77dd2a004746af8d162015d09c07540" target="_top" xlink:title="Set the boolean flag storage to 1.">
<polygon fill="white" stroke="#666666" points="263.5,-169 176.5,-169 176.5,-150 263.5,-150 263.5,-169"/>
<text text-anchor="middle" x="220" y="-157" font-family="Helvetica,sans-Serif" font-size="10.00">gr__apply_flag</text>
</a>
</g>
</g>
<!-- Node1&#45;&gt;Node5 -->
<g id="edge4_Node000001_Node000005" class="edge">
<title>Node1&#45;&gt;Node5</title>
<g id="a_edge4_Node000001_Node000005"><a xlink:title=" ">
<path fill="none" stroke="#63b8ff" d="M420.88,-130.2C412.41,-132.09 403.41,-133.97 395,-135.5 350.44,-143.59 299.03,-150.37 263.71,-154.64"/>
<polygon fill="#63b8ff" stroke="#63b8ff" points="421.88,-133.56 430.85,-127.92 420.33,-126.74 421.88,-133.56"/>
</a>
</g>
</g>
<!-- Node6 -->
<g id="Node000006" class="node">
<title>Node6</title>
<g id="a_Node000006"><a xlink:href="grendizer_8c.html#a7cd7ff450550ead6f6dea5d440874db8" target="_top" xlink:title="Dispatch value parsing to the correct typed handler for o.">
<polygon fill="white" stroke="#666666" points="268,-93 172,-93 172,-74 268,-74 268,-93"/>
<text text-anchor="middle" x="220" y="-81" font-family="Helvetica,sans-Serif" font-size="10.00">gr__apply_value</text>
</a>
</g>
</g>
<!-- Node1&#45;&gt;Node6 -->
<g id="edge6_Node000001_Node000006" class="edge">
<title>Node1&#45;&gt;Node6</title>
<g id="a_edge6_Node000001_Node000006"><a xlink:title=" ">
<path fill="none" stroke="#63b8ff" d="M420.54,-118.02C389.45,-114.81 343.62,-109.48 304,-102.5 289.15,-99.89 272.96,-96.34 258.85,-93.02"/>
<polygon fill="#63b8ff" stroke="#63b8ff" points="420.59,-121.55 430.89,-119.07 421.29,-114.58 420.59,-121.55"/>
</a>
</g>
</g>
<!-- Node7 -->
<g id="Node000007" class="node">
<title>Node7</title>
<g id="a_Node000007"><a xlink:href="grendizer_8c.html#a0eae8d348350684f2fa1b77435cd0c0e" target="_top" xlink:title="Parse a floating&#45;point value from text into out. Hand&#45;rolled to avoid a strtod dependency in freestan...">
<polygon fill="white" stroke="#666666" points="395,-93 304,-93 304,-74 395,-74 395,-93"/>
<text text-anchor="middle" x="349.5" y="-81" font-family="Helvetica,sans-Serif" font-size="10.00">gr__parse_float</text>
</a>
</g>
</g>
<!-- Node1&#45;&gt;Node7 -->
<g id="edge8_Node000001_Node000007" class="edge">
<title>Node1&#45;&gt;Node7</title>
<g id="a_edge8_Node000001_Node000007"><a xlink:title=" ">
<path fill="none" stroke="#63b8ff" d="M421.37,-108.79C407.02,-103.67 390.73,-97.86 377.4,-93.1"/>
<polygon fill="#63b8ff" stroke="#63b8ff" points="420.35,-112.14 430.95,-112.2 422.7,-105.55 420.35,-112.14"/>
</a>
</g>
</g>
<!-- Node8 -->
<g id="Node000008" class="node">
<title>Node8</title>
<g id="a_Node000008"><a xlink:href="grendizer_8c.html#a91c2a6ae03cea75ee7262316b3c395f2" target="_top" xlink:title="Parse a signed decimal integer from text into out.">
<polygon fill="white" stroke="#666666" points="390.5,-56 308.5,-56 308.5,-37 390.5,-37 390.5,-56"/>
<text text-anchor="middle" x="349.5" y="-44" font-family="Helvetica,sans-Serif" font-size="10.00">gr__parse_int</text>
</a>
</g>
</g>
<!-- Node1&#45;&gt;Node8 -->
<g id="edge10_Node000001_Node000008" class="edge">
<title>Node1&#45;&gt;Node8</title>
<g id="a_edge10_Node000001_Node000008"><a xlink:title=" ">
<path fill="none" stroke="#63b8ff" d="M441.16,-104.45C429.31,-92.41 412.24,-76.53 395,-65.5 389.48,-61.97 383.19,-58.83 377.12,-56.16"/>
<polygon fill="#63b8ff" stroke="#63b8ff" points="438.69,-106.93 448.14,-111.71 443.74,-102.08 438.69,-106.93"/>
</a>
</g>
</g>
<!-- Node9 -->
<g id="Node000009" class="node">
<title>Node9</title>
<g id="a_Node000009"><a xlink:href="grendizer_8c.html#a8e70c9e2b4b39959c3a210f3aae769ce" target="_top" xlink:title="Parse an unsigned decimal integer from text into out.">
<polygon fill="white" stroke="#666666" points="393.5,-19 305.5,-19 305.5,0 393.5,0 393.5,-19"/>
<text text-anchor="middle" x="349.5" y="-7" font-family="Helvetica,sans-Serif" font-size="10.00">gr__parse_uint</text>
</a>
</g>
</g>
<!-- Node1&#45;&gt;Node9 -->
<g id="edge12_Node000001_Node000009" class="edge">
<title>Node1&#45;&gt;Node9</title>
<g id="a_edge12_Node000001_Node000009"><a xlink:title=" ">
<path fill="none" stroke="#63b8ff" d="M448.84,-102.71C438.89,-81.77 420.22,-48.15 395,-27.5 391,-24.23 386.33,-21.48 381.55,-19.2"/>
<polygon fill="#63b8ff" stroke="#63b8ff" points="445.68,-104.21 453.02,-111.86 452.05,-101.31 445.68,-104.21"/>
</a>
</g>
</g>
<!-- Node2&#45;&gt;Node3 -->
<g id="edge2_Node000002_Node000003" class="edge">
<title>Node2&#45;&gt;Node3</title>
<g id="a_edge2_Node000002_Node000003"><a xlink:title=" ">
<path fill="none" stroke="#63b8ff" d="M191.31,-221.37C184.97,-218.12 178.25,-214.69 172,-211.5 156.54,-203.6 139.01,-194.63 126.13,-188.03"/>
<polygon fill="#63b8ff" stroke="#63b8ff" points="189.75,-224.5 200.24,-225.93 192.93,-218.26 189.75,-224.5"/>
</a>
</g>
</g>
<!-- Node4 -->
<g id="Node000004" class="node">
<title>Node4</title>
<g id="a_Node000004"><a xlink:href="user_2apps_2vega_2main_8c.html#a0ddf1224851353fc92bfbff6f499fa97" target="_top" xlink:title=" ">
<polygon fill="white" stroke="#666666" points="41,-188 0,-188 0,-169 41,-169 41,-188"/>
<text text-anchor="middle" x="20.5" y="-176" font-family="Helvetica,sans-Serif" font-size="10.00">main</text>
</a>
</g>
</g>
<!-- Node3&#45;&gt;Node4 -->
<g id="edge3_Node000003_Node000004" class="edge">
<title>Node3&#45;&gt;Node4</title>
<g id="a_edge3_Node000003_Node000004"><a xlink:title=" ">
<path fill="none" stroke="#63b8ff" d="M66.48,-178.5C57.72,-178.5 48.78,-178.5 41.21,-178.5"/>
<polygon fill="#63b8ff" stroke="#63b8ff" points="66.59,-182 76.59,-178.5 66.59,-175 66.59,-182"/>
</a>
</g>
</g>
<!-- Node5&#45;&gt;Node3 -->
<g id="edge5_Node000005_Node000003" class="edge">
<title>Node5&#45;&gt;Node3</title>
<g id="a_edge5_Node000005_Node000003"><a xlink:title=" ">
<path fill="none" stroke="#63b8ff" d="M166.34,-168.47C155.96,-170.24 145.43,-172.04 136.2,-173.61"/>
<polygon fill="#63b8ff" stroke="#63b8ff" points="166.94,-171.92 176.21,-166.79 165.76,-165.02 166.94,-171.92"/>
</a>
</g>
</g>
<!-- Node6&#45;&gt;Node3 -->
<g id="edge7_Node000006_Node000003" class="edge">
<title>Node6&#45;&gt;Node3</title>
<g id="a_edge7_Node000006_Node000003"><a xlink:title=" ">
<path fill="none" stroke="#63b8ff" d="M199.63,-100.01C176.26,-119.92 137.76,-152.72 118.78,-168.89"/>
<polygon fill="#63b8ff" stroke="#63b8ff" points="202.15,-102.46 207.49,-93.31 197.61,-97.13 202.15,-102.46"/>
</a>
</g>
</g>
<!-- Node7&#45;&gt;Node6 -->
<g id="edge9_Node000007_Node000006" class="edge">
<title>Node7&#45;&gt;Node6</title>
<g id="a_edge9_Node000007_Node000006"><a xlink:title=" ">
<path fill="none" stroke="#63b8ff" d="M293.75,-83.5C285.31,-83.5 276.65,-83.5 268.39,-83.5"/>
<polygon fill="#63b8ff" stroke="#63b8ff" points="293.91,-87 303.91,-83.5 293.91,-80 293.91,-87"/>
</a>
</g>
</g>
<!-- Node8&#45;&gt;Node6 -->
<g id="edge11_Node000008_Node000006" class="edge">
<title>Node8&#45;&gt;Node6</title>
<g id="a_edge11_Node000008_Node000006"><a xlink:title=" ">
<path fill="none" stroke="#63b8ff" d="M306.02,-58.83C289.14,-63.73 270,-69.28 254.17,-73.88"/>
<polygon fill="#63b8ff" stroke="#63b8ff" points="307.04,-62.18 315.67,-56.03 305.09,-55.45 307.04,-62.18"/>
</a>
</g>
</g>
<!-- Node9&#45;&gt;Node6 -->
<g id="edge13_Node000009_Node000006" class="edge">
<title>Node9&#45;&gt;Node6</title>
<g id="a_edge13_Node000009_Node000006"><a xlink:title=" ">
<path fill="none" stroke="#63b8ff" d="M312.97,-23.08C309.9,-24.49 306.87,-25.97 304,-27.5 277.61,-41.54 249.21,-62 233.42,-73.9"/>
<polygon fill="#63b8ff" stroke="#63b8ff" points="314.42,-26.27 322.2,-19.08 311.63,-19.85 314.42,-26.27"/>
</a>
</g>
</g>
</g>
</svg>
</svg>

<style type='text/css'>
<![CDATA[
[data-mouse-over-selected='false'] { opacity: 0.7; }
[data-mouse-over-selected='true']  { opacity: 1.0; }
]]>
</style>
<script type="application/ecmascript"><![CDATA[
document.addEventListener('DOMContentLoaded', (event) => {
  highlightEdges();
  highlightAdjacentNodes();
});
]]></script>
</svg>
