<?xml version="1.0" encoding="UTF-8" standalone="no"?>
<!DOCTYPE svg PUBLIC "-//W3C//DTD SVG 1.1//EN"
 "http://www.w3.org/Graphics/SVG/1.1/DTD/svg11.dtd">
<!-- Generated by graphviz version 2.43.0 (0)
 -->
<!-- Title: io_wait Pages: 1 -->
<!--zoomable 138 -->

<svg id="main" version="1.1" xmlns="http://www.w3.org/2000/svg" xmlns:xlink="http://www.w3.org/1999/xlink" xml:space="preserve" onload="init(evt)">
<style type="text/css"><![CDATA[
.node, .edge {opacity: 0.7;}
.node.selected, .edge.selected {opacity: 1;}
.edge:hover path { stroke: red; }
.edge:hover polygon { stroke: red; fill: red; }
]]></style>

<defs>
  <circle id="rim" cx="0" cy="0" r="7"/>
  <circle id="rim2" cx="0" cy="0" r="3.5"/>
  <g id="zoomPlus">
    <use xlink:href="#rim" fill="#404040"><set attributeName="fill" to="#808080" begin="zoomplus.mouseover" end="zoomplus.mouseout"/></use>
    <path d="M-4,0h8M0,-4v8" fill="none" stroke="white" stroke-width="1.5" pointer-events="none"/>
  </g>
  <g id="zoomMin">
    <use xlink:href="#rim" fill="#404040"><set attributeName="fill" to="#808080" begin="zoomminus.mouseover" end="zoomminus.mouseout"/></use>
    <path d="M-4,0h8" fill="none" stroke="white" stroke-width="1.5" pointer-events="none"/>
  </g>
  <g id="arrowUp" transform="translate(30 24)">
    <use xlink:href="#rim"/>
    <path pointer-events="none" fill="none" stroke="white" stroke-width="1.5" d="M0,-3.0v7 M-2.5,-0.5L0,-3.0L2.5,-0.5"/>
  </g>
  <g id="arrowRight" transform="rotate(90) translate(36 -43)">
    <use xlink:href="#rim"/>
    <path pointer-events="none" fill="none" stroke="white" stroke-width="1.5" d="M0,-3.0v7 M-2.5,-0.5L0,-3.0L2.5,-0.5"/>
  </g>
  <g id="arrowDown" transform="rotate(180) translate(-30 -48)">
    <use xlink:href="#rim"/>
    <path pointer-events="none" fill="none" stroke="white" stroke-width="1.5" d="M0,-3.0v7 M-2.5,-0.5L0,-3.0L2.5,-0.5"/>
  </g>
  <g id="arrowLeft" transform="rotate(270) translate(-36 17)">
    <use xlink:href="#rim"/>
    <path pointer-events="none" fill="none" stroke="white" stroke-width="1.5" d="M0,-3.0v7 M-2.5,-0.5L0,-3.0L2.5,-0.5"/>
  </g>
  <g id="resetDef">
    <use xlink:href="#rim2" fill="#404040"><set attributeName="fill" to="#808080" begin="reset.mouseover" end="reset.mouseout"/></use>
  </g>
</defs>
<script type="application/ecmascript">
var viewWidth = 583;
var viewHeight = 138;
var sectionId = 'dynsection-6';
</script>
<script type="application/ecmascript" xlink:href="svg.min.js"/>
<svg id="graph" class="graph">
<g id="viewport">
<title>io_wait</title>
<!-- Node1 -->
<g id="Node000001" class="node">
<title>Node1</title>
<g id="a_Node000001"><a xlink:title="Short I/O delay (write to port 0x80).">
<polygon fill="#999999" stroke="#666666" points="575,-83 523,-83 523,-64 575,-64 575,-83"/>
<text text-anchor="middle" x="549" y="-71" font-family="Helvetica,sans-Serif" font-size="10.00">io_wait</text>
</a>
</g>
</g>
<!-- Node2 -->
<g id="Node000002" class="node">
<title>Node2</title>
<g id="a_Node000002"><a xlink:href="pic_8c.html#afc70164c232cee70941b16e3f2ca029a" target="_top" xlink:title="Initialize and remap the 8259 PIC.">
<polygon fill="white" stroke="#666666" points="453.5,-125 401.5,-125 401.5,-106 453.5,-106 453.5,-125"/>
<text text-anchor="middle" x="427.5" y="-113" font-family="Helvetica,sans-Serif" font-size="10.00">pic_init</text>
</a>
</g>
</g>
<!-- Node1&#45;&gt;Node2 -->
<g id="edge1_Node000001_Node000002" class="edge">
<title>Node1&#45;&gt;Node2</title>
<g id="a_edge1_Node000001_Node000002"><a xlink:title=" ">
<path fill="none" stroke="#63b8ff" d="M513.38,-85.67C494.23,-92.4 470.88,-100.61 453.52,-106.71"/>
<polygon fill="#63b8ff" stroke="#63b8ff" points="514.68,-88.92 522.95,-82.3 512.35,-82.32 514.68,-88.92"/>
</a>
</g>
</g>
<!-- Node4 -->
<g id="Node000004" class="node">
<title>Node4</title>
<g id="a_Node000004"><a xlink:href="mouse__ps2_8c.html#a2c86d21aafe1ed28adf9fb89f6019dc5" target="_top" xlink:title="Spin until the input buffer is free.">
<polygon fill="white" stroke="#666666" points="487,-83 368,-83 368,-64 487,-64 487,-83"/>
<text text-anchor="middle" x="427.5" y="-71" font-family="Helvetica,sans-Serif" font-size="10.00">ps2_wait_input_clear</text>
</a>
</g>
</g>
<!-- Node1&#45;&gt;Node4 -->
<g id="edge3_Node000001_Node000004" class="edge">
<title>Node1&#45;&gt;Node4</title>
<g id="a_edge3_Node000001_Node000004"><a xlink:title=" ">
<path fill="none" stroke="#63b8ff" d="M512.9,-73.5C504.9,-73.5 496.19,-73.5 487.49,-73.5"/>
<polygon fill="#63b8ff" stroke="#63b8ff" points="512.95,-77 522.95,-73.5 512.95,-70 512.95,-77"/>
</a>
</g>
</g>
<!-- Node10 -->
<g id="Node000010" class="node">
<title>Node10</title>
<g id="a_Node000010"><a xlink:href="mouse__ps2_8c.html#a16aef608030c66970d3ac07b5762eff6" target="_top" xlink:title="Spin until a byte is available to read.">
<polygon fill="white" stroke="#666666" points="486.5,-37 368.5,-37 368.5,-18 486.5,-18 486.5,-37"/>
<text text-anchor="middle" x="427.5" y="-25" font-family="Helvetica,sans-Serif" font-size="10.00">ps2_wait_output_full</text>
</a>
</g>
</g>
<!-- Node1&#45;&gt;Node10 -->
<g id="edge11_Node000001_Node000010" class="edge">
<title>Node1&#45;&gt;Node10</title>
<g id="a_edge11_Node000001_Node000010"><a xlink:title=" ">
<path fill="none" stroke="#63b8ff" d="M513.87,-60.36C494.52,-52.92 470.77,-43.77 453.23,-37.02"/>
<polygon fill="#63b8ff" stroke="#63b8ff" points="512.65,-63.64 523.24,-63.97 515.16,-57.11 512.65,-63.64"/>
</a>
</g>
</g>
<!-- Node3 -->
<g id="Node000003" class="node">
<title>Node3</title>
<g id="a_Node000003"><a xlink:href="src_2kernel_2main_8c.html#a9cf4a417b66a038c3dd1e074be9fde2e" target="_top" xlink:title="Initialize interrupt controllers and drivers.">
<polygon fill="white" stroke="#666666" points="329,-130 244,-130 244,-111 329,-111 329,-130"/>
<text text-anchor="middle" x="286.5" y="-118" font-family="Helvetica,sans-Serif" font-size="10.00">init_interrupts</text>
</a>
</g>
</g>
<!-- Node2&#45;&gt;Node3 -->
<g id="edge2_Node000002_Node000003" class="edge">
<title>Node2&#45;&gt;Node3</title>
<g id="a_edge2_Node000002_Node000003"><a xlink:title=" ">
<path fill="none" stroke="#63b8ff" d="M391.33,-116.76C372.41,-117.45 348.95,-118.29 329.12,-119"/>
<polygon fill="#63b8ff" stroke="#63b8ff" points="391.46,-120.26 401.33,-116.41 391.21,-113.27 391.46,-120.26"/>
</a>
</g>
</g>
<!-- Node5 -->
<g id="Node000005" class="node">
<title>Node5</title>
<g id="a_Node000005"><a xlink:href="mouse__ps2_8c.html#a16ddfad4f1a5feb09d3b53f7893b703f" target="_top" xlink:title="Send a command byte to the controller (port 0x64).">
<polygon fill="white" stroke="#666666" points="316.5,-93 256.5,-93 256.5,-74 316.5,-74 316.5,-93"/>
<text text-anchor="middle" x="286.5" y="-81" font-family="Helvetica,sans-Serif" font-size="10.00">ps2_cmd</text>
</a>
</g>
</g>
<!-- Node4&#45;&gt;Node5 -->
<g id="edge4_Node000004_Node000005" class="edge">
<title>Node4&#45;&gt;Node5</title>
<g id="a_edge4_Node000004_Node000005"><a xlink:title=" ">
<path fill="none" stroke="#63b8ff" d="M357.95,-78.43C343.44,-79.48 328.88,-80.52 316.79,-81.39"/>
<polygon fill="#63b8ff" stroke="#63b8ff" points="358.23,-81.92 367.95,-77.71 357.73,-74.94 358.23,-81.92"/>
</a>
</g>
</g>
<!-- Node9 -->
<g id="Node000009" class="node">
<title>Node9</title>
<g id="a_Node000009"><a xlink:href="mouse__ps2_8c.html#a67fb73771a785ab88414bf6622c194c3" target="_top" xlink:title="Send a data byte to the controller (port 0x60).">
<polygon fill="white" stroke="#666666" points="332,-56 241,-56 241,-37 332,-37 332,-56"/>
<text text-anchor="middle" x="286.5" y="-44" font-family="Helvetica,sans-Serif" font-size="10.00">ps2_write_data</text>
</a>
</g>
</g>
<!-- Node4&#45;&gt;Node9 -->
<g id="edge8_Node000004_Node000009" class="edge">
<title>Node4&#45;&gt;Node9</title>
<g id="a_edge8_Node000004_Node000009"><a xlink:title=" ">
<path fill="none" stroke="#63b8ff" d="M367.33,-62.01C355.62,-59.73 343.5,-57.38 332.35,-55.21"/>
<polygon fill="#63b8ff" stroke="#63b8ff" points="367.01,-65.51 377.49,-63.98 368.34,-58.64 367.01,-65.51"/>
</a>
</g>
</g>
<!-- Node6 -->
<g id="Node000006" class="node">
<title>Node6</title>
<g id="a_Node000006"><a xlink:href="mouse__ps2_8c.html#a24c01f5f20bd1823b7ba8ea033d68acc" target="_top" xlink:title="Send a command to the mouse via the AUX port.">
<polygon fill="white" stroke="#666666" points="205,-75 129,-75 129,-56 205,-56 205,-75"/>
<text text-anchor="middle" x="167" y="-63" font-family="Helvetica,sans-Serif" font-size="10.00">mouse_cmd</text>
</a>
</g>
</g>
<!-- Node5&#45;&gt;Node6 -->
<g id="edge5_Node000005_Node000006" class="edge">
<title>Node5&#45;&gt;Node6</title>
<g id="a_edge5_Node000005_Node000006"><a xlink:title=" ">
<path fill="none" stroke="#63b8ff" d="M246.21,-77.48C232.96,-75.45 218.23,-73.19 205.15,-71.19"/>
<polygon fill="#63b8ff" stroke="#63b8ff" points="246.04,-81 256.46,-79.05 247.1,-74.08 246.04,-81"/>
</a>
</g>
</g>
<!-- Node7 -->
<g id="Node000007" class="node">
<title>Node7</title>
<g id="a_Node000007"><a xlink:href="mouse__ps2_8c.html#aae1fe78162e3f9185c9c26d7deffa668" target="_top" xlink:title="Enable the AUX port, configure IRQs/clocks, start data reporting.">
<polygon fill="#fff0f0" stroke="red" points="93,-56 0,-56 0,-37 93,-37 93,-56"/>
<text text-anchor="middle" x="46.5" y="-44" font-family="Helvetica,sans-Serif" font-size="10.00">mouse_ps2_init</text>
</a>
</g>
</g>
<!-- Node5&#45;&gt;Node7 -->
<g id="edge7_Node000005_Node000007" class="edge">
<title>Node5&#45;&gt;Node7</title>
<g id="a_edge7_Node000005_Node000007"><a xlink:title=" ">
<path fill="none" stroke="#63b8ff" d="M245.98,-88.57C214.02,-91.52 168.09,-93.16 129,-84.5 104.46,-79.06 78.55,-65.43 62.7,-56.07"/>
<polygon fill="#63b8ff" stroke="#63b8ff" points="246.65,-92.02 256.25,-87.53 245.95,-85.06 246.65,-92.02"/>
</a>
</g>
</g>
<!-- Node6&#45;&gt;Node7 -->
<g id="edge6_Node000006_Node000007" class="edge">
<title>Node6&#45;&gt;Node7</title>
<g id="a_edge6_Node000006_Node000007"><a xlink:title=" ">
<path fill="none" stroke="#63b8ff" d="M118.8,-57.93C110.39,-56.58 101.65,-55.18 93.29,-53.84"/>
<polygon fill="#63b8ff" stroke="#63b8ff" points="118.4,-61.41 128.83,-59.54 119.51,-54.5 118.4,-61.41"/>
</a>
</g>
</g>
<!-- Node9&#45;&gt;Node6 -->
<g id="edge9_Node000009_Node000006" class="edge">
<title>Node9&#45;&gt;Node6</title>
<g id="a_edge9_Node000009_Node000006"><a xlink:title=" ">
<path fill="none" stroke="#63b8ff" d="M230.75,-55.35C222.16,-56.74 213.45,-58.15 205.37,-59.46"/>
<polygon fill="#63b8ff" stroke="#63b8ff" points="231.43,-58.79 240.74,-53.74 230.31,-51.88 231.43,-58.79"/>
</a>
</g>
</g>
<!-- Node9&#45;&gt;Node7 -->
<g id="edge10_Node000009_Node000007" class="edge">
<title>Node9&#45;&gt;Node7</title>
<g id="a_edge10_Node000009_Node000007"><a xlink:title=" ">
<path fill="none" stroke="#63b8ff" d="M230.5,-46.5C188.89,-46.5 132.44,-46.5 93.28,-46.5"/>
<polygon fill="#63b8ff" stroke="#63b8ff" points="230.73,-50 240.73,-46.5 230.73,-43 230.73,-50"/>
</a>
</g>
</g>
<!-- Node11 -->
<g id="Node000011" class="node">
<title>Node11</title>
<g id="a_Node000011"><a xlink:href="mouse__ps2_8c.html#ad166364dae9026806e72b787a51fc2f7" target="_top" xlink:title="Read one byte from the controller.">
<polygon fill="white" stroke="#666666" points="330.5,-19 242.5,-19 242.5,0 330.5,0 330.5,-19"/>
<text text-anchor="middle" x="286.5" y="-7" font-family="Helvetica,sans-Serif" font-size="10.00">ps2_read_data</text>
</a>
</g>
</g>
<!-- Node10&#45;&gt;Node11 -->
<g id="edge12_Node000010_Node000011" class="edge">
<title>Node10&#45;&gt;Node11</title>
<g id="a_edge12_Node000010_Node000011"><a xlink:title=" ">
<path fill="none" stroke="#63b8ff" d="M358.2,-18.66C348.8,-17.44 339.38,-16.22 330.61,-15.08"/>
<polygon fill="#63b8ff" stroke="#63b8ff" points="357.99,-22.16 368.36,-19.97 358.89,-15.22 357.99,-22.16"/>
</a>
</g>
</g>
<!-- Node11&#45;&gt;Node6 -->
<g id="edge13_Node000011_Node000006" class="edge">
<title>Node11&#45;&gt;Node6</title>
<g id="a_edge13_Node000011_Node000006"><a xlink:title=" ">
<path fill="none" stroke="#63b8ff" d="M250.93,-23.1C247.56,-24.54 244.2,-26.02 241,-27.5 221.54,-36.48 199.82,-47.98 185.17,-55.97"/>
<polygon fill="#63b8ff" stroke="#63b8ff" points="252.48,-26.25 260.37,-19.18 249.8,-19.79 252.48,-26.25"/>
</a>
</g>
</g>
<!-- Node11&#45;&gt;Node7 -->
<g id="edge14_Node000011_Node000007" class="edge">
<title>Node11&#45;&gt;Node7</title>
<g id="a_edge14_Node000011_Node000007"><a xlink:title=" ">
<path fill="none" stroke="#63b8ff" d="M232.4,-17.76C190.57,-24.26 132.88,-33.23 93.12,-39.41"/>
<polygon fill="#63b8ff" stroke="#63b8ff" points="233.06,-21.2 242.4,-16.2 231.98,-14.28 233.06,-21.2"/>
</a>
</g>
</g>
</g>
</svg>

<g id="navigator" transform="translate(0 0)" fill="#404254">
  <rect fill="#f2f5e9" fill-opacity="0.5" stroke="#606060" stroke-width=".5" x="0" y="0" width="60" height="60"/>
  <use id="zoomplus" xlink:href="#zoomPlus" x="17" y="9" onmousedown="handleZoom(evt,'in')"/>
  <use id="zoomminus" xlink:href="#zoomMin" x="42" y="9" onmousedown="handleZoom(evt,'out')"/>
  <use id="reset" xlink:href="#resetDef" x="30" y="36" onmousedown="handleReset()"/>
   <use id="arrowup" xlink:href="#arrowUp" x="0" y="0" onmousedown="handlePan(0,-1)"/>
  <use id="arrowright" xlink:href="#arrowRight" x="0" y="0" onmousedown="handlePan(1,0)"/>
  <use id="arrowdown" xlink:href="#arrowDown" x="0" y="0" onmousedown="handlePan(0,1)"/>
  <use id="arrowleft" xlink:href="#arrowLeft" x="0" y="0" onmousedown="handlePan(-1,0)"/>
</g>
<svg viewBox="0 0 15 15" width="100%" height="30px" preserveAspectRatio="xMaxYMin meet">
 <g id="arrow_out" transform="scale(0.3 0.3)">
  <a xlink:href="io_8h_a488d1b3600792ee3aac5be4b7e0be16b_icgraph_org.svg" target="_base">
   <rect id="button" ry="5" rx="5" y="6" x="6" height="38" width="38"
        fill="#f2f5e9" fill-opacity="0.5" stroke="#606060" stroke-width="1.0"/>
   <path id="arrow"
     d="M 11.500037,31.436501 C 11.940474,20.09759 22.043105,11.32322 32.158766,21.979434 L 37.068811,17.246167 C 37.068811,17.246167 37.088388,32 37.088388,32 L 22.160133,31.978069 C 22.160133,31.978069 26.997745,27.140456 26.997745,27.140456 C 18.528582,18.264221 13.291696,25.230495 11.500037,31.436501 z"
     style="fill:#404040;"/>
  </a>
 </g>
</svg>

<style type='text/css'>
<![CDATA[
[data-mouse-over-selected='false'] { opacity: 0.7; }
[data-mouse-over-selected='true']  { opacity: 1.0; }
]]>
</style>
<script type="application/ecmascript"><![CDATA[
document.addEventListener('DOMContentLoaded', (event) => {
  highlightEdges();
  highlightAdjacentNodes();
});
]]></script>
</svg>
