<?xml version="1.0" encoding="UTF-8" standalone="no"?>
<!DOCTYPE svg PUBLIC "-//W3C//DTD SVG 1.1//EN"
 "http://www.w3.org/Graphics/SVG/1.1/DTD/svg11.dtd">
<!-- Generated by graphviz version 2.43.0 (0)
 -->
<!-- Title: ring_full Pages: 1 -->
<svg width="464pt" height="27pt"
 viewBox="0.00 0.00 464.00 27.00" xmlns="http://www.w3.org/2000/svg" xmlns:xlink="http://www.w3.org/1999/xlink">
<g id="graph0" class="graph" transform="scale(1 1) rotate(0) translate(4 23)">
<title>ring_full</title>
<!-- Node1 -->
<g id="Node000001" class="node">
<title>Node1</title>
<g id="a_Node000001"><a xlink:title=" ">
<polygon fill="#999999" stroke="#666666" points="456,-19 400,-19 400,0 456,0 456,-19"/>
<text text-anchor="middle" x="428" y="-7" font-family="Helvetica,sans-Serif" font-size="10.00">ring_full</text>
</a>
</g>
</g>
<!-- Node2 -->
<g id="Node000002" class="node">
<title>Node2</title>
<g id="a_Node000002"><a xlink:href="mouse_8c.html#a7549de64e1ca943611685af5f4907fd9" target="_top" xlink:title="Post one movement/button report into the broker.">
<polygon fill="white" stroke="#666666" points="364,-19 255,-19 255,0 364,0 364,-19"/>
<text text-anchor="middle" x="309.5" y="-7" font-family="Helvetica,sans-Serif" font-size="10.00">mouse_post_event</text>
</a>
</g>
</g>
<!-- Node1&#45;&gt;Node2 -->
<g id="edge1_Node000001_Node000002" class="edge">
<title>Node1&#45;&gt;Node2</title>
<g id="a_edge1_Node000001_Node000002"><a xlink:title=" ">
<path fill="none" stroke="#63b8ff" d="M389.79,-9.5C381.71,-9.5 373.02,-9.5 364.44,-9.5"/>
<polygon fill="#63b8ff" stroke="#63b8ff" points="389.98,-13 399.98,-9.5 389.98,-6 389.98,-13"/>
</a>
</g>
</g>
<!-- Node3 -->
<g id="Node000003" class="node">
<title>Node3</title>
<g id="a_Node000003"><a xlink:href="mouse__ps2_8c.html#a059fb6ffb95c8c6a22097d748a2aa357" target="_top" xlink:title="IRQ 12 handler: accumulate one mouse packet byte, post on completion.">
<polygon fill="white" stroke="#666666" points="219,-19 129,-19 129,0 219,0 219,-19"/>
<text text-anchor="middle" x="174" y="-7" font-family="Helvetica,sans-Serif" font-size="10.00">mouse_ps2_irq</text>
</a>
</g>
</g>
<!-- Node2&#45;&gt;Node3 -->
<g id="edge2_Node000002_Node000003" class="edge">
<title>Node2&#45;&gt;Node3</title>
<g id="a_edge2_Node000002_Node000003"><a xlink:title=" ">
<path fill="none" stroke="#63b8ff" d="M244.83,-9.5C236.13,-9.5 227.37,-9.5 219.12,-9.5"/>
<polygon fill="#63b8ff" stroke="#63b8ff" points="244.97,-13 254.97,-9.5 244.97,-6 244.97,-13"/>
</a>
</g>
</g>
<!-- Node4 -->
<g id="Node000004" class="node">
<title>Node4</title>
<g id="a_Node000004"><a xlink:href="mouse__ps2_8c.html#aae1fe78162e3f9185c9c26d7deffa668" target="_top" xlink:title="Enable the AUX port, configure IRQs/clocks, start data reporting.">
<polygon fill="#fff0f0" stroke="red" points="93,-19 0,-19 0,0 93,0 93,-19"/>
<text text-anchor="middle" x="46.5" y="-7" font-family="Helvetica,sans-Serif" font-size="10.00">mouse_ps2_init</text>
</a>
</g>
</g>
<!-- Node3&#45;&gt;Node4 -->
<g id="edge3_Node000003_Node000004" class="edge">
<title>Node3&#45;&gt;Node4</title>
<g id="a_edge3_Node000003_Node000004"><a xlink:title=" ">
<path fill="none" stroke="#63b8ff" d="M118.53,-9.5C110.03,-9.5 101.32,-9.5 93.04,-9.5"/>
<polygon fill="#63b8ff" stroke="#63b8ff" points="118.75,-13 128.75,-9.5 118.75,-6 118.75,-13"/>
</a>
</g>
</g>
</g>
</svg>
