<?xml version="1.0" encoding="UTF-8" standalone="no"?>
<!DOCTYPE svg PUBLIC "-//W3C//DTD SVG 1.1//EN"
 "http://www.w3.org/Graphics/SVG/1.1/DTD/svg11.dtd">
<!-- Generated by graphviz version 2.43.0 (0)
 -->
<!-- Title: sys_rt_sigprocmask Pages: 1 -->
<svg width="272pt" height="64pt"
 viewBox="0.00 0.00 272.00 64.00" xmlns="http://www.w3.org/2000/svg" xmlns:xlink="http://www.w3.org/1999/xlink">
<g id="graph0" class="graph" transform="scale(1 1) rotate(0) translate(4 60)">
<title>sys_rt_sigprocmask</title>
<!-- Node1 -->
<g id="Node000001" class="node">
<title>Node1</title>
<g id="a_Node000001"><a xlink:title="Examine and change the blocked signal mask.">
<polygon fill="#999999" stroke="#666666" points="113,-37 0,-37 0,-18 113,-18 113,-37"/>
<text text-anchor="middle" x="56.5" y="-25" font-family="Helvetica,sans-Serif" font-size="10.00">sys_rt_sigprocmask</text>
</a>
</g>
</g>
<!-- Node2 -->
<g id="Node000002" class="node">
<title>Node2</title>
<g id="a_Node000002"><a xlink:href="proc_8c.html#ad849c5156bdc5fb8229a60a9fc0157ac" target="_top" xlink:title="Get the currently running process.">
<polygon fill="white" stroke="#666666" points="245,-56 168,-56 168,-37 245,-37 245,-56"/>
<text text-anchor="middle" x="206.5" y="-44" font-family="Helvetica,sans-Serif" font-size="10.00">proc_current</text>
</a>
</g>
</g>
<!-- Node1&#45;&gt;Node2 -->
<g id="edge1_Node000001_Node000002" class="edge">
<title>Node1&#45;&gt;Node2</title>
<g id="a_edge1_Node000001_Node000002"><a xlink:title=" ">
<path fill="none" stroke="#63b8ff" d="M113.03,-34.63C127.68,-36.51 143.37,-38.52 157.58,-40.35"/>
<polygon fill="#63b8ff" stroke="#63b8ff" points="157.27,-43.84 167.63,-41.64 158.16,-36.89 157.27,-43.84"/>
</a>
</g>
</g>
<!-- Node3 -->
<g id="Node000003" class="node">
<title>Node3</title>
<g id="a_Node000003"><a xlink:href="vmm_8c.html#a4f6a03fb7bcaf9d0f016d7d16297ec39" target="_top" xlink:title="Check if a memory range is entirely in user space.">
<polygon fill="white" stroke="#666666" points="264,-19 149,-19 149,0 264,0 264,-19"/>
<text text-anchor="middle" x="206.5" y="-7" font-family="Helvetica,sans-Serif" font-size="10.00">vmm_is_user_range</text>
</a>
</g>
</g>
<!-- Node1&#45;&gt;Node3 -->
<g id="edge2_Node000001_Node000003" class="edge">
<title>Node1&#45;&gt;Node3</title>
<g id="a_edge2_Node000001_Node000003"><a xlink:title=" ">
<path fill="none" stroke="#63b8ff" d="M113.03,-20.75C121.4,-19.73 130.11,-18.67 138.69,-17.63"/>
<polygon fill="#63b8ff" stroke="#63b8ff" points="139.17,-21.09 148.67,-16.41 138.32,-14.14 139.17,-21.09"/>
</a>
</g>
</g>
</g>
</svg>
