<?xml version="1.0" encoding="UTF-8" standalone="no"?>
<!DOCTYPE svg PUBLIC "-//W3C//DTD SVG 1.1//EN"
 "http://www.w3.org/Graphics/SVG/1.1/DTD/svg11.dtd">
<!-- Generated by graphviz version 2.43.0 (0)
 -->
<!-- Title: sys_tgkill Pages: 1 -->
<svg width="363pt" height="46pt"
 viewBox="0.00 0.00 363.00 46.00" xmlns="http://www.w3.org/2000/svg" xmlns:xlink="http://www.w3.org/1999/xlink">
<g id="graph0" class="graph" transform="scale(1 1) rotate(0) translate(4 42)">
<title>sys_tgkill</title>
<!-- Node1 -->
<g id="Node000001" class="node">
<title>Node1</title>
<g id="a_Node000001"><a xlink:title=" ">
<polygon fill="#999999" stroke="#666666" points="63,-38 0,-38 0,-19 63,-19 63,-38"/>
<text text-anchor="middle" x="31.5" y="-26" font-family="Helvetica,sans-Serif" font-size="10.00">sys_tgkill</text>
</a>
</g>
</g>
<!-- Node2 -->
<g id="Node000002" class="node">
<title>Node2</title>
<g id="a_Node000002"><a xlink:href="signal_8c.html#ab603823f7de6c07aa5558dbcfe5558aa" target="_top" xlink:title="Send a signal to a process.">
<polygon fill="white" stroke="#666666" points="152,-38 99,-38 99,-19 152,-19 152,-38"/>
<text text-anchor="middle" x="125.5" y="-26" font-family="Helvetica,sans-Serif" font-size="10.00">sys_kill</text>
</a>
</g>
</g>
<!-- Node1&#45;&gt;Node2 -->
<g id="edge1_Node000001_Node000002" class="edge">
<title>Node1&#45;&gt;Node2</title>
<g id="a_edge1_Node000001_Node000002"><a xlink:title=" ">
<path fill="none" stroke="#63b8ff" d="M63.13,-28.5C71.38,-28.5 80.38,-28.5 88.88,-28.5"/>
<polygon fill="#63b8ff" stroke="#63b8ff" points="88.91,-32 98.91,-28.5 88.91,-25 88.91,-32"/>
</a>
</g>
</g>
<!-- Node3 -->
<g id="Node000003" class="node">
<title>Node3</title>
<g id="a_Node000003"><a xlink:href="proc_8c.html#a83048efe1b9806dbf8041cf77680cae6" target="_top" xlink:title="Get process by PID.">
<polygon fill="white" stroke="#666666" points="355,-38 296,-38 296,-19 355,-19 355,-38"/>
<text text-anchor="middle" x="325.5" y="-26" font-family="Helvetica,sans-Serif" font-size="10.00">proc_get</text>
</a>
</g>
</g>
<!-- Node2&#45;&gt;Node3 -->
<g id="edge2_Node000002_Node000003" class="edge">
<title>Node2&#45;&gt;Node3</title>
<g id="a_edge2_Node000002_Node000003"><a xlink:title=" ">
<path fill="none" stroke="#63b8ff" d="M152.39,-28.5C186.35,-28.5 246.27,-28.5 285.68,-28.5"/>
<polygon fill="#63b8ff" stroke="#63b8ff" points="285.72,-32 295.72,-28.5 285.72,-25 285.72,-32"/>
</a>
</g>
</g>
<!-- Node4 -->
<g id="Node000004" class="node">
<title>Node4</title>
<g id="a_Node000004"><a xlink:href="signal_8c.html#a7074927000ae63eff0dbe4b580f4036e" target="_top" xlink:title="Mark a signal as pending for a process and wake it if blocked.">
<polygon fill="white" stroke="#666666" points="260,-19 188,-19 188,0 260,0 260,-19"/>
<text text-anchor="middle" x="224" y="-7" font-family="Helvetica,sans-Serif" font-size="10.00">proc_signal</text>
</a>
</g>
</g>
<!-- Node2&#45;&gt;Node4 -->
<g id="edge3_Node000002_Node000004" class="edge">
<title>Node2&#45;&gt;Node4</title>
<g id="a_edge3_Node000002_Node000004"><a xlink:title=" ">
<path fill="none" stroke="#63b8ff" d="M152.11,-23.46C160.06,-21.89 169.07,-20.12 177.94,-18.37"/>
<polygon fill="#63b8ff" stroke="#63b8ff" points="178.69,-21.79 187.83,-16.43 177.34,-14.92 178.69,-21.79"/>
</a>
</g>
</g>
<!-- Node4&#45;&gt;Node3 -->
<g id="edge4_Node000004_Node000003" class="edge">
<title>Node4&#45;&gt;Node3</title>
<g id="a_edge4_Node000004_Node000003"><a xlink:title=" ">
<path fill="none" stroke="#63b8ff" d="M260.08,-16.2C268.43,-17.79 277.39,-19.5 285.89,-21.13"/>
<polygon fill="#63b8ff" stroke="#63b8ff" points="285.49,-24.61 295.97,-23.05 286.8,-17.74 285.49,-24.61"/>
</a>
</g>
</g>
</g>
</svg>
