<?xml version="1.0" encoding="UTF-8" standalone="no"?>
<!DOCTYPE svg PUBLIC "-//W3C//DTD SVG 1.1//EN"
 "http://www.w3.org/Graphics/SVG/1.1/DTD/svg11.dtd">
<!-- Generated by graphviz version 2.43.0 (0)
 -->
<!-- Title: sys_unlink Pages: 1 -->
<!--zoomable 253 -->

<svg id="main" version="1.1" xmlns="http://www.w3.org/2000/svg" xmlns:xlink="http://www.w3.org/1999/xlink" xml:space="preserve" onload="init(evt)">
<style type="text/css"><![CDATA[
.node, .edge {opacity: 0.7;}
.node.selected, .edge.selected {opacity: 1;}
.edge:hover path { stroke: red; }
.edge:hover polygon { stroke: red; fill: red; }
]]></style>

<defs>
  <circle id="rim" cx="0" cy="0" r="7"/>
  <circle id="rim2" cx="0" cy="0" r="3.5"/>
  <g id="zoomPlus">
    <use xlink:href="#rim" fill="#404040"><set attributeName="fill" to="#808080" begin="zoomplus.mouseover" end="zoomplus.mouseout"/></use>
    <path d="M-4,0h8M0,-4v8" fill="none" stroke="white" stroke-width="1.5" pointer-events="none"/>
  </g>
  <g id="zoomMin">
    <use xlink:href="#rim" fill="#404040"><set attributeName="fill" to="#808080" begin="zoomminus.mouseover" end="zoomminus.mouseout"/></use>
    <path d="M-4,0h8" fill="none" stroke="white" stroke-width="1.5" pointer-events="none"/>
  </g>
  <g id="arrowUp" transform="translate(30 24)">
    <use xlink:href="#rim"/>
    <path pointer-events="none" fill="none" stroke="white" stroke-width="1.5" d="M0,-3.0v7 M-2.5,-0.5L0,-3.0L2.5,-0.5"/>
  </g>
  <g id="arrowRight" transform="rotate(90) translate(36 -43)">
    <use xlink:href="#rim"/>
    <path pointer-events="none" fill="none" stroke="white" stroke-width="1.5" d="M0,-3.0v7 M-2.5,-0.5L0,-3.0L2.5,-0.5"/>
  </g>
  <g id="arrowDown" transform="rotate(180) translate(-30 -48)">
    <use xlink:href="#rim"/>
    <path pointer-events="none" fill="none" stroke="white" stroke-width="1.5" d="M0,-3.0v7 M-2.5,-0.5L0,-3.0L2.5,-0.5"/>
  </g>
  <g id="arrowLeft" transform="rotate(270) translate(-36 17)">
    <use xlink:href="#rim"/>
    <path pointer-events="none" fill="none" stroke="white" stroke-width="1.5" d="M0,-3.0v7 M-2.5,-0.5L0,-3.0L2.5,-0.5"/>
  </g>
  <g id="resetDef">
    <use xlink:href="#rim2" fill="#404040"><set attributeName="fill" to="#808080" begin="reset.mouseover" end="reset.mouseout"/></use>
  </g>
</defs>
<script type="application/ecmascript">
var viewWidth = 586;
var viewHeight = 253;
var sectionId = 'dynsection-38';
</script>
<script type="application/ecmascript" xlink:href="svg.min.js"/>
<svg id="graph" class="graph">
<g id="viewport">
<title>sys_unlink</title>
<!-- Node1 -->
<g id="Node000001" class="node">
<title>Node1</title>
<g id="a_Node000001"><a xlink:title="Delete the file at pathname.">
<polygon fill="#999999" stroke="#666666" points="68,-226 0,-226 0,-207 68,-207 68,-226"/>
<text text-anchor="middle" x="34" y="-214" font-family="Helvetica,sans-Serif" font-size="10.00">sys_unlink</text>
</a>
</g>
</g>
<!-- Node2 -->
<g id="Node000002" class="node">
<title>Node2</title>
<g id="a_Node000002"><a xlink:href="sys__fs_8c.html#a2b62b386a750a6392a02d67953da3095" target="_top" xlink:title="Return true if ptr is a valid, non&#45;NULL user&#45;space pointer.">
<polygon fill="white" stroke="#666666" points="182,-245 104,-245 104,-226 182,-226 182,-245"/>
<text text-anchor="middle" x="143" y="-233" font-family="Helvetica,sans-Serif" font-size="10.00">user_cstr_ok</text>
</a>
</g>
</g>
<!-- Node1&#45;&gt;Node2 -->
<g id="edge1_Node000001_Node000002" class="edge">
<title>Node1&#45;&gt;Node2</title>
<g id="a_edge1_Node000001_Node000002"><a xlink:title=" ">
<path fill="none" stroke="#63b8ff" d="M68.27,-222.41C76.38,-223.85 85.22,-225.42 93.88,-226.95"/>
<polygon fill="#63b8ff" stroke="#63b8ff" points="93.43,-230.43 103.89,-228.73 94.66,-223.54 93.43,-230.43"/>
</a>
</g>
</g>
<!-- Node4 -->
<g id="Node000004" class="node">
<title>Node4</title>
<g id="a_Node000004"><a xlink:href="vfs_8c.html#ae501b60ae231b75a9b8efbf7cac10324" target="_top" xlink:title="Delete the file at path; fails if it is a directory.">
<polygon fill="white" stroke="#666666" points="176.5,-208 109.5,-208 109.5,-189 176.5,-189 176.5,-208"/>
<text text-anchor="middle" x="143" y="-196" font-family="Helvetica,sans-Serif" font-size="10.00">vfs_unlink</text>
</a>
</g>
</g>
<!-- Node1&#45;&gt;Node4 -->
<g id="edge3_Node000001_Node000004" class="edge">
<title>Node1&#45;&gt;Node4</title>
<g id="a_edge3_Node000001_Node000004"><a xlink:title=" ">
<path fill="none" stroke="#63b8ff" d="M68.27,-210.9C78.12,-209.25 89.03,-207.41 99.38,-205.67"/>
<polygon fill="#63b8ff" stroke="#63b8ff" points="100.2,-209.08 109.49,-203.97 99.04,-202.18 100.2,-209.08"/>
</a>
</g>
</g>
<!-- Node3 -->
<g id="Node000003" class="node">
<title>Node3</title>
<g id="a_Node000003"><a xlink:href="vmm_8c.html#ae8c1a22dcc48b0b427c8272d84b88ca0" target="_top" xlink:title="Check if a pointer is in user space.">
<polygon fill="white" stroke="#666666" points="324,-245 223,-245 223,-226 324,-226 324,-245"/>
<text text-anchor="middle" x="273.5" y="-233" font-family="Helvetica,sans-Serif" font-size="10.00">vmm_is_user_ptr</text>
</a>
</g>
</g>
<!-- Node2&#45;&gt;Node3 -->
<g id="edge2_Node000002_Node000003" class="edge">
<title>Node2&#45;&gt;Node3</title>
<g id="a_edge2_Node000002_Node000003"><a xlink:title=" ">
<path fill="none" stroke="#63b8ff" d="M182.21,-235.5C191.75,-235.5 202.22,-235.5 212.53,-235.5"/>
<polygon fill="#63b8ff" stroke="#63b8ff" points="212.76,-239 222.76,-235.5 212.76,-232 212.76,-239"/>
</a>
</g>
</g>
<!-- Node5 -->
<g id="Node000005" class="node">
<title>Node5</title>
<g id="a_Node000005"><a xlink:href="vfs_8c.html#aa3642862a395542eb9bd7c999dcf795f" target="_top" xlink:title="Find the mount whose target is the longest prefix of path.">
<polygon fill="white" stroke="#666666" points="319.5,-208 227.5,-208 227.5,-189 319.5,-189 319.5,-208"/>
<text text-anchor="middle" x="273.5" y="-196" font-family="Helvetica,sans-Serif" font-size="10.00">vfs_find_mount</text>
</a>
</g>
</g>
<!-- Node4&#45;&gt;Node5 -->
<g id="edge4_Node000004_Node000005" class="edge">
<title>Node4&#45;&gt;Node5</title>
<g id="a_edge4_Node000004_Node000005"><a xlink:title=" ">
<path fill="none" stroke="#63b8ff" d="M176.76,-198.5C188.96,-198.5 203.19,-198.5 216.87,-198.5"/>
<polygon fill="#63b8ff" stroke="#63b8ff" points="217.2,-202 227.2,-198.5 217.2,-195 217.2,-202"/>
</a>
</g>
</g>
<!-- Node9 -->
<g id="Node000009" class="node">
<title>Node9</title>
<g id="a_Node000009"><a xlink:href="vfs_8c.html#a51d7bce96d1618609b4420f3aa8146b7" target="_top" xlink:title="Build an absolute, normalised path in out.">
<polygon fill="white" stroke="#666666" points="329,-113 218,-113 218,-94 329,-94 329,-113"/>
<text text-anchor="middle" x="273.5" y="-101" font-family="Helvetica,sans-Serif" font-size="10.00">vfs_make_absolute</text>
</a>
</g>
</g>
<!-- Node4&#45;&gt;Node9 -->
<g id="edge8_Node000004_Node000009" class="edge">
<title>Node4&#45;&gt;Node9</title>
<g id="a_edge8_Node000004_Node000009"><a xlink:title=" ">
<path fill="none" stroke="#63b8ff" d="M157.27,-188.69C179.51,-172.25 224.49,-139 251.2,-119.25"/>
<polygon fill="#63b8ff" stroke="#63b8ff" points="253.54,-121.87 259.5,-113.11 249.37,-116.24 253.54,-121.87"/>
</a>
</g>
</g>
<!-- Node6 -->
<g id="Node000006" class="node">
<title>Node6</title>
<g id="a_Node000006"><a xlink:href="kstdlib_8c.html#a31caf3300c489531baba99bcea216c59" target="_top" xlink:title="Get the length of a null&#45;terminated string.">
<polygon fill="white" stroke="#666666" points="573.5,-189 523.5,-189 523.5,-170 573.5,-170 573.5,-189"/>
<text text-anchor="middle" x="548.5" y="-177" font-family="Helvetica,sans-Serif" font-size="10.00">kstrlen</text>
</a>
</g>
</g>
<!-- Node5&#45;&gt;Node6 -->
<g id="edge5_Node000005_Node000006" class="edge">
<title>Node5&#45;&gt;Node6</title>
<g id="a_edge5_Node000005_Node000006"><a xlink:title=" ">
<path fill="none" stroke="#63b8ff" d="M305.48,-208.03C346.73,-219.21 421.63,-234.23 483,-217.5 498.99,-213.14 515.05,-203.7 527.15,-195.32"/>
<polygon fill="#63b8ff" stroke="#63b8ff" points="529.52,-197.92 535.56,-189.22 525.41,-192.25 529.52,-197.92"/>
</a>
</g>
</g>
<!-- Node7 -->
<g id="Node000007" class="node">
<title>Node7</title>
<g id="a_Node000007"><a xlink:href="vfs_8c.html#ac42cb3bc178697221980c90dfc9a1a1c" target="_top" xlink:title="Return true if path begins with prefix as a path component.">
<polygon fill="#fff0f0" stroke="red" points="483,-208 365,-208 365,-189 483,-189 483,-208"/>
<text text-anchor="middle" x="424" y="-196" font-family="Helvetica,sans-Serif" font-size="10.00">vfs_path_starts_with</text>
</a>
</g>
</g>
<!-- Node5&#45;&gt;Node7 -->
<g id="edge6_Node000005_Node000007" class="edge">
<title>Node5&#45;&gt;Node7</title>
<g id="a_edge6_Node000005_Node000007"><a xlink:title=" ">
<path fill="none" stroke="#63b8ff" d="M319.86,-198.5C330.81,-198.5 342.76,-198.5 354.51,-198.5"/>
<polygon fill="#63b8ff" stroke="#63b8ff" points="354.76,-202 364.76,-198.5 354.76,-195 354.76,-202"/>
</a>
</g>
</g>
<!-- Node7&#45;&gt;Node6 -->
<g id="edge7_Node000007_Node000006" class="edge">
<title>Node7&#45;&gt;Node6</title>
<g id="a_edge7_Node000007_Node000006"><a xlink:title=" ">
<path fill="none" stroke="#63b8ff" d="M483.02,-189.5C493.36,-187.9 503.81,-186.28 513.21,-184.82"/>
<polygon fill="#63b8ff" stroke="#63b8ff" points="513.97,-188.24 523.31,-183.25 512.89,-181.33 513.97,-188.24"/>
</a>
</g>
</g>
<!-- Node9&#45;&gt;Node6 -->
<g id="edge11_Node000009_Node000006" class="edge">
<title>Node9&#45;&gt;Node6</title>
<g id="a_edge11_Node000009_Node000006"><a xlink:title=" ">
<path fill="none" stroke="#63b8ff" d="M294.22,-113.08C312.28,-121.54 339.94,-133.71 365,-141.5 415.49,-157.2 475.86,-168.33 512.94,-174.34"/>
<polygon fill="#63b8ff" stroke="#63b8ff" points="512.79,-177.86 523.21,-175.97 513.88,-170.95 512.79,-177.86"/>
</a>
</g>
</g>
<!-- Node10 -->
<g id="Node000010" class="node">
<title>Node10</title>
<g id="a_Node000010"><a xlink:href="kstdlib_8c.html#a60bff60a47ea068c9e7014bc077d7d91" target="_top" xlink:title="Bounded strcat (BSD strlcat semantics).">
<polygon fill="white" stroke="#666666" points="450.5,-132 397.5,-132 397.5,-113 450.5,-113 450.5,-132"/>
<text text-anchor="middle" x="424" y="-120" font-family="Helvetica,sans-Serif" font-size="10.00">kstrlcat</text>
</a>
</g>
</g>
<!-- Node9&#45;&gt;Node10 -->
<g id="edge9_Node000009_Node000010" class="edge">
<title>Node9&#45;&gt;Node10</title>
<g id="a_edge9_Node000009_Node000010"><a xlink:title=" ">
<path fill="none" stroke="#63b8ff" d="M329.37,-110.52C348.67,-112.99 369.84,-115.7 387.16,-117.91"/>
<polygon fill="#63b8ff" stroke="#63b8ff" points="387.04,-121.43 397.4,-119.22 387.92,-114.48 387.04,-121.43"/>
</a>
</g>
</g>
<!-- Node11 -->
<g id="Node000011" class="node">
<title>Node11</title>
<g id="a_Node000011"><a xlink:href="kstdlib_8c.html#a17077b431dac6188d17946bde91629f6" target="_top" xlink:title="Copy a string with a size limit.">
<polygon fill="white" stroke="#666666" points="578,-57 519,-57 519,-38 578,-38 578,-57"/>
<text text-anchor="middle" x="548.5" y="-45" font-family="Helvetica,sans-Serif" font-size="10.00">kstrncpy</text>
</a>
</g>
</g>
<!-- Node9&#45;&gt;Node11 -->
<g id="edge12_Node000009_Node000011" class="edge">
<title>Node9&#45;&gt;Node11</title>
<g id="a_edge12_Node000009_Node000011"><a xlink:title=" ">
<path fill="none" stroke="#63b8ff" d="M329.22,-94.94C371.44,-87.99 431.19,-77.42 483,-65.5 491.47,-63.55 500.49,-61.21 509.02,-58.86"/>
<polygon fill="#63b8ff" stroke="#63b8ff" points="510.06,-62.2 518.75,-56.13 508.17,-55.46 510.06,-62.2"/>
</a>
</g>
</g>
<!-- Node12 -->
<g id="Node000012" class="node">
<title>Node12</title>
<g id="a_Node000012"><a xlink:href="proc_8c.html#ad849c5156bdc5fb8229a60a9fc0157ac" target="_top" xlink:title="Get the currently running process.">
<polygon fill="white" stroke="#666666" points="462.5,-56 385.5,-56 385.5,-37 462.5,-37 462.5,-56"/>
<text text-anchor="middle" x="424" y="-44" font-family="Helvetica,sans-Serif" font-size="10.00">proc_current</text>
</a>
</g>
</g>
<!-- Node9&#45;&gt;Node12 -->
<g id="edge13_Node000009_Node000012" class="edge">
<title>Node9&#45;&gt;Node12</title>
<g id="a_edge13_Node000009_Node000012"><a xlink:title=" ">
<path fill="none" stroke="#63b8ff" d="M299.36,-93.96C323.77,-84.59 361.22,-70.21 388.51,-59.74"/>
<polygon fill="#63b8ff" stroke="#63b8ff" points="389.98,-62.92 398.06,-56.07 387.47,-56.39 389.98,-62.92"/>
</a>
</g>
</g>
<!-- Node13 -->
<g id="Node000013" class="node">
<title>Node13</title>
<g id="a_Node000013"><a xlink:href="vfs_8c.html#a5d0202f169a3d00d5e2ecc92c208b621" target="_top" xlink:title="Normalise an absolute path in&#45;place.">
<polygon fill="#fff0f0" stroke="red" points="467,-19 381,-19 381,0 467,0 467,-19"/>
<text text-anchor="middle" x="424" y="-7" font-family="Helvetica,sans-Serif" font-size="10.00">vfs_normalize</text>
</a>
</g>
</g>
<!-- Node9&#45;&gt;Node13 -->
<g id="edge14_Node000009_Node000013" class="edge">
<title>Node9&#45;&gt;Node13</title>
<g id="a_edge14_Node000009_Node000013"><a xlink:title=" ">
<path fill="none" stroke="#63b8ff" d="M283.34,-93.92C298.56,-77.96 331.32,-45.88 365,-27.5 368.24,-25.73 371.69,-24.1 375.22,-22.62"/>
<polygon fill="#63b8ff" stroke="#63b8ff" points="376.57,-25.85 384.67,-19.02 374.08,-19.31 376.57,-25.85"/>
</a>
</g>
</g>
<!-- Node10&#45;&gt;Node6 -->
<g id="edge10_Node000010_Node000006" class="edge">
<title>Node10&#45;&gt;Node6</title>
<g id="a_edge10_Node000010_Node000006"><a xlink:title=" ">
<path fill="none" stroke="#63b8ff" d="M449.46,-132.11C459.88,-136.34 472.12,-141.47 483,-146.5 495.49,-152.27 509.08,-159.13 520.55,-165.1"/>
<polygon fill="#63b8ff" stroke="#63b8ff" points="519.14,-168.31 529.62,-169.86 522.39,-162.11 519.14,-168.31"/>
</a>
</g>
</g>
<!-- Node13&#45;&gt;Node11 -->
<g id="edge15_Node000013_Node000011" class="edge">
<title>Node13&#45;&gt;Node11</title>
<g id="a_edge15_Node000013_Node000011"><a xlink:title=" ">
<path fill="none" stroke="#63b8ff" d="M455.91,-19.09C472.03,-24.09 491.89,-30.25 509,-35.56"/>
<polygon fill="#63b8ff" stroke="#63b8ff" points="508.11,-38.95 518.7,-38.57 510.19,-32.26 508.11,-38.95"/>
</a>
</g>
</g>
</g>
</svg>

<g id="navigator" transform="translate(0 0)" fill="#404254">
  <rect fill="#f2f5e9" fill-opacity="0.5" stroke="#606060" stroke-width=".5" x="0" y="0" width="60" height="60"/>
  <use id="zoomplus" xlink:href="#zoomPlus" x="17" y="9" onmousedown="handleZoom(evt,'in')"/>
  <use id="zoomminus" xlink:href="#zoomMin" x="42" y="9" onmousedown="handleZoom(evt,'out')"/>
  <use id="reset" xlink:href="#resetDef" x="30" y="36" onmousedown="handleReset()"/>
   <use id="arrowup" xlink:href="#arrowUp" x="0" y="0" onmousedown="handlePan(0,-1)"/>
  <use id="arrowright" xlink:href="#arrowRight" x="0" y="0" onmousedown="handlePan(1,0)"/>
  <use id="arrowdown" xlink:href="#arrowDown" x="0" y="0" onmousedown="handlePan(0,1)"/>
  <use id="arrowleft" xlink:href="#arrowLeft" x="0" y="0" onmousedown="handlePan(-1,0)"/>
</g>
<svg viewBox="0 0 15 15" width="100%" height="30px" preserveAspectRatio="xMaxYMin meet">
 <g id="arrow_out" transform="scale(0.3 0.3)">
  <a xlink:href="sys__fs_8c_a9b635f43a86efa68bdf828ae9fb1c76c_cgraph_org.svg" target="_base">
   <rect id="button" ry="5" rx="5" y="6" x="6" height="38" width="38"
        fill="#f2f5e9" fill-opacity="0.5" stroke="#606060" stroke-width="1.0"/>
   <path id="arrow"
     d="M 11.500037,31.436501 C 11.940474,20.09759 22.043105,11.32322 32.158766,21.979434 L 37.068811,17.246167 C 37.068811,17.246167 37.088388,32 37.088388,32 L 22.160133,31.978069 C 22.160133,31.978069 26.997745,27.140456 26.997745,27.140456 C 18.528582,18.264221 13.291696,25.230495 11.500037,31.436501 z"
     style="fill:#404040;"/>
  </a>
 </g>
</svg>

<style type='text/css'>
<![CDATA[
[data-mouse-over-selected='false'] { opacity: 0.7; }
[data-mouse-over-selected='true']  { opacity: 1.0; }
]]>
</style>
<script type="application/ecmascript"><![CDATA[
document.addEventListener('DOMContentLoaded', (event) => {
  highlightEdges();
  highlightAdjacentNodes();
});
]]></script>
</svg>
