<?xml version="1.0" encoding="UTF-8" standalone="no"?>
<!DOCTYPE svg PUBLIC "-//W3C//DTD SVG 1.1//EN"
 "http://www.w3.org/Graphics/SVG/1.1/DTD/svg11.dtd">
<!-- Generated by graphviz version 2.43.0 (0)
 -->
<!-- Title: user_cstr_ok Pages: 1 -->
<svg width="332pt" height="46pt"
 viewBox="0.00 0.00 332.00 46.00" xmlns="http://www.w3.org/2000/svg" xmlns:xlink="http://www.w3.org/1999/xlink">
<g id="graph0" class="graph" transform="scale(1 1) rotate(0) translate(4 42)">
<title>user_cstr_ok</title>
<!-- Node1 -->
<g id="Node000001" class="node">
<title>Node1</title>
<g id="a_Node000001"><a xlink:title="Return true if ptr is a valid, non&#45;NULL user&#45;space pointer.">
<polygon fill="#999999" stroke="#666666" points="324,-19 246,-19 246,0 324,0 324,-19"/>
<text text-anchor="middle" x="285" y="-7" font-family="Helvetica,sans-Serif" font-size="10.00">user_cstr_ok</text>
</a>
</g>
</g>
<!-- Node2 -->
<g id="Node000002" class="node">
<title>Node2</title>
<g id="a_Node000002"><a xlink:href="sys__proc_8c.html#acf40044c5e098f736e0e2f32a76717ed" target="_top" xlink:title="Copy a null&#45;terminated user&#45;space string vector into kernel storage.">
<polygon fill="white" stroke="#666666" points="210,-38 109,-38 109,-19 210,-19 210,-38"/>
<text text-anchor="middle" x="159.5" y="-26" font-family="Helvetica,sans-Serif" font-size="10.00">copy_user_strvec</text>
</a>
</g>
</g>
<!-- Node1&#45;&gt;Node2 -->
<g id="edge1_Node000001_Node000002" class="edge">
<title>Node1&#45;&gt;Node2</title>
<g id="a_edge1_Node000001_Node000002"><a xlink:title=" ">
<path fill="none" stroke="#63b8ff" d="M235.84,-16.91C227.37,-18.21 218.55,-19.57 210.04,-20.88"/>
<polygon fill="#63b8ff" stroke="#63b8ff" points="236.59,-20.34 245.94,-15.36 235.52,-13.42 236.59,-20.34"/>
</a>
</g>
</g>
<!-- Node3 -->
<g id="Node000003" class="node">
<title>Node3</title>
<g id="a_Node000003"><a xlink:href="sys__proc_8c.html#a827b355acd43667b34b4d1db5377be4d" target="_top" xlink:title="Replace the calling process image with a new ELF at pathname.">
<polygon fill="white" stroke="#666666" points="73,-19 0,-19 0,0 73,0 73,-19"/>
<text text-anchor="middle" x="36.5" y="-7" font-family="Helvetica,sans-Serif" font-size="10.00">sys_execve</text>
</a>
</g>
</g>
<!-- Node1&#45;&gt;Node3 -->
<g id="edge3_Node000001_Node000003" class="edge">
<title>Node1&#45;&gt;Node3</title>
<g id="a_edge3_Node000001_Node000003"><a xlink:title=" ">
<path fill="none" stroke="#63b8ff" d="M235.64,-9.5C187.83,-9.5 115.8,-9.5 73.03,-9.5"/>
<polygon fill="#63b8ff" stroke="#63b8ff" points="235.75,-13 245.75,-9.5 235.75,-6 235.75,-13"/>
</a>
</g>
</g>
<!-- Node2&#45;&gt;Node3 -->
<g id="edge2_Node000002_Node000003" class="edge">
<title>Node2&#45;&gt;Node3</title>
<g id="a_edge2_Node000002_Node000003"><a xlink:title=" ">
<path fill="none" stroke="#63b8ff" d="M98.99,-19.16C90.14,-17.77 81.26,-16.37 73.1,-15.09"/>
<polygon fill="#63b8ff" stroke="#63b8ff" points="98.51,-22.62 108.94,-20.72 99.6,-15.71 98.51,-22.62"/>
</a>
</g>
</g>
</g>
</svg>
